<?xml version="1.0" encoding="UTF-8"?>
<svg id="Capa_1" xmlns="http://www.w3.org/2000/svg" width="150" height="75" version="1.1" viewBox="0 0 150 75">
  <!-- Generator: Adobe Illustrator 29.4.0, SVG Export Plug-In . SVG Version: 2.1.0 Build 152)  -->
  <path d="M85.8287,3.7679l2.8015-2.5002c.1554-.1387.3993-.131.5447.0172l.0426.0434c.1454.1482.1373.3808-.0181.5195l-2.8015,2.5002c-.1554.1387-.3993.131-.5447-.0172l-.0425-.0434c-.1454-.1482-.1373-.3808.0181-.5195Z" style="fill: #fbc887;"/>
  <ellipse cx="82.2723" cy="4.7867" rx=".651" ry=".5546" transform="translate(49.727 80.4996) rotate(-70.0692)" style="fill: #fbc887;"/>
  <path d="M147.5065,52.0548c-4.0345.6051-8.0254,1.1856-11.9711,1.7414-12.972,1.8292-25.802,3.6322-38.4931,5.409-1.9244.2694-3.1272.5327-4.6092-.2263-.1179-.0601-.2519-.0816-.3826-.0631l-11.2962,1.6429c-.1162.0185-.2212.0785-.289.1694-.9396,1.2472-2.1004,1.6213-3.6341,1.8738-16.2154,2.6683-32.4502,5.389-48.7044,8.1635-.2147.0354-.3778.0878-.4924.157-.7523.157-1.3384,0-1.7565-.4742-.2002-.331-.4246-.6621-.6732-.9931-5.3163-7.0457-10.6311-14.0913-15.941-21.137-2.5427-3.3396-5.0806-6.6792-7.6137-10.0204-.6991-.9238-.2422-1.7537.8605-1.8446,1.6709-.1386,3.8456-.3357,6.5207-.5897.0565-.0046.1001-.0477.1033-.1016.0565-.9346.9315-.9577,1.6483-.9762.0759-.0015.1372-.06.1405-.134.0307-1.1301-.0258-1.6721,1.3755-1.6798.0807,0,.1501-.057.1631-.134.092-.5235.1889-.9669.2922-1.3303.1195-.4203.4327-.6605.9396-.7221.6183-.0739,3.7842-.4773,9.4994-1.2117.7539-.097,1.4385-.1709,2.052-.2202.0371-.0031.063-.0339.0597-.0693,0-.0108-.0048-.0216-.0113-.0308-2.1682-2.9639-3.8052-5.2134-4.9079-6.7454-.2535-.3526-.3487-.6728-.2825-.9608.1582-.6852.5973-.7991,1.3222-.8699,2.8091-.2756,5.7345-.5435,8.7745-.8053.0226-.0015.0387-.0216.0355-.0416,0-.0062-.0032-.0123-.0065-.0185-1.256-1.7075-1.9147-2.6021-1.9777-2.6852-.5198-.6913-.2309-1.5474.6942-1.6629.0581-.0077.1695-.0231.3326-.0477,3.5179-.5266,6.9308-1.01,10.2404-1.4519,5.9799-.7976,11.5336.1555,16.661,2.8592,2.2618,1.1917,4.1943,2.6914,5.7732,4.6561.733.91,1.3836,1.7368,1.9519,2.4789.0178.0231.0517.0277.0775.0108.0081-.0062.0145-.0139.0178-.0231,1.629-4.3897,4.3025-8.0234,8.0238-10.9026,3.4727-2.6883,7.7622-4.5298,12.0922-5.6661,2.6138-.6867,4.8934-1.2318,6.8371-1.6336.9477-.1971,1.4191.3588,2.0681,1.0609,4.7513,5.1287,8.3596,9.0088,10.8264,11.6432.0872.0924.2131.1401.3406.1293,2.052-.1678,3.4614-.2787,4.225-.3295.4714-.0308.854.1016,1.1462.3957.6829.6852,1.5305,1.5459,2.5411,2.5805.0517.0554.1324.0754.2067.0554,1.545-.4311,3.1126-.8715,4.6996-1.3211.5263-.1494.9977-.0246,1.4142.3772,1.2011,1.1579,2.8689,2.7976,5.0031,4.9209,12.9672,12.8904,19.7979,19.6959,25.0109,24.7122.6668.6421.6425,1.2626-.071,1.8615-.1146.0939-.4004.1694-.8573.2248h0ZM67.3157,19.8226c-1.0526,1.5967-1.8647,3.3104-2.4362,5.1441-.0323.1032-.0097.2156.0597.3002,5.4681,6.6377,10.4002,12.6148,14.7963,17.9314,2.0923,2.5313,3.2983,5.0872,3.0255,8.4206-.0339.4049-.6377.8961-1.0252.4727-.1501-.1647-.2422-.3264-.2777-.4881-.2357-1.0778-.6135-1.9862-1.1333-2.7253-.0323-.0462-.0517-.1001-.0549-.1555,0-.02-.0113-.0462-.0291-.0816-.3536-.6744-1.0155-1.4011-1.9825-2.1818-.7087-.5712-1.3045-.99-1.7904-1.2595-3.4097-1.8815-7.6169-2.6883-11.5545-2.91-1.9906-.1463-3.9844-.1694-5.9815-.0724-3.3161.1617-6.5788.4881-9.79.9762-.0145.0031-.0242.0169-.021.0308,0,.0031.0016.0062.0032.0092l.6296.8669c.0145.0216.042.0339.0694.0293,2.6299-.3911,5.1953-.6806,7.696-.8684,2.4911-.1878,4.8062-.2063,6.9453-.0554,1.227.0693,2.4459.1771,3.6583.3264,2.1553.2633,4.3477.7652,6.5788,1.5027.5473.1801,1.3577.5235,2.4281,1.0285,1.2964.6113,2.3086,1.5012,3.0384,2.6714.0145.0169.0113.0431-.0065.0554s-.0452.0108-.0581-.0062c-3.1465-3.0732-8.006-4.2465-12.4118-4.7346-5.8184-.6451-11.4448-.1909-17.2777.6544-.0452.0062-.0759.0462-.0694.0908,0,.0046.0016.0092.0032.0123l.0678.194c.0129.037.0178.077.0161.1155-.0194.4173-.2373.6267-.6522.6313-.1453.0015-.2825-.0647-.3665-.1786l-18.2367-24.5259c-.0743-.1016-.2018-.1571-.3326-.1463l-3.3306.3049-6.1688.5774c-.0178,0-.0323.0154-.0307.0323,0,.0062.0032.0123.0065.0169l19.9512,27.5068c.0549.077.1534.1139.247.0939l5.3955-1.0762c4.3541-.8653,9.2992-1.7568,13.8357-2.1463,3.3693-.291,6.222-.3434,8.5549-.157,2.9334.2325,5.5714.8314,8.048,2.1125,1.6403.8468,3.3613,2.3973,3.4872,4.2604.0032.0354-.0242.0647-.0613.0677-.0307.0015-.0597-.0169-.0694-.0447-.5424-1.5736-1.5547-2.7838-3.0384-3.6306-3.1449-1.7968-7.244-2.2988-10.8684-2.3111-2.8414-.0092-5.7732.1817-8.7938.5712-3.5954.4635-7.16,1.0716-10.6973,1.8215l-5.5182,1.1486c-.0274.0062-.0436.0308-.0371.0554,0,.0046.0032.0092.0048.0139.2115.3403.494.6405.8476.8992.0678.0508.1469.0847.2325.0985l1.135.1955c.0759.0123.1534.0123.2293.0015l4.1427-.6513,2.1391-.2679c.0484-.0062.0953.0139.1227.0508l.0484.0631c.0404.0554.0274.1324-.0307.1709-.0161.0108-.0339.0185-.0533.0216l-6.4804,1.0886s-.0016.0015-.0032.0015c-.1405.0293-.3148.1109-.5263.2448-.8363.5312-2.0003-.3464-2.4717-1.0008-4.9563-6.8671-9.9336-13.7311-14.9336-20.5935-.0646-.0893-.176-.1355-.2874-.1201l-4.4962.5882-7.3199.9592c-.0468.0062-.0807.0447-.0775.0893.0113.1401.0791.2864.2066.4404l-.3826.699c-.0694-.0924-.1437-.1632-.2228-.2125-.2809.3156-.4391.8022-.8201.9485-.3084.1201-.6458.291-.825.6128-.3649.6528-.741,1.0316-1.4611,1.2826-.0484.0169-.0775.0631-.0726.1124.0291.254.1211.3757.2761.3634l21.267,29.1743.0291.2587c.0032.0416.042.0724.0856.0693h.0081l.6054-.1062c.2696-.0015.6119-.0385,1.0268-.1093,13.6565-2.3188,28.4739-4.7315,44.452-7.2381.05-.0092.092-.0385.1146-.0816.113-.2125.2131-.4927.3019-.8422.0856-.3372.2954-.6282.6296-.873.5279-.2233,1.0349-.1786,1.524.137.1082.0693.2212.1324.3358.1878.0258.0123.0533.0154.0807.0108l7.0745-1.144c.1049-.0169.1954-.0816.2438-.1724.1259-.2448.3213-.6359.586-1.1717.2777-.5605.9638-1.3457,1.4514-1.8091,1.1027-1.0485,2.2328-1.9985,3.3903-2.85,3.1142-2.2865,7.0777-3.7861,11.0153-4.616,3.5372-.7452,7.3328-1.1656,11.3899-1.261,5.1775-.1216,10.4761-.0216,15.8958.3002.1082.0077.2034-.0708.2099-.174.0016-.0231,0-.0462-.0081-.0693l-.0065-.0185c-.0517-.1617-.1986-.2787-.3746-.3018-4.1943-.5528-8.2369-.8253-12.1277-.8176-3.2983.0077-6.7726.2725-10.4212.796-3.915.562-7.4894,1.4904-10.7199,2.7869-2.9496,1.1825-5.7749,2.8115-8.0318,4.9609-1.1511,1.0978-2.0003,2.3188-2.5476,3.663-.0065.0154-.021.0246-.0371.0231l-.0468-.0031c-.0387-.0015-.0694-.0339-.0662-.0724,0-.0046,0-.0092.0016-.0123.3729-1.2918,1.0365-2.445,1.9938-3.4566,1.2899-1.3657,2.7865-2.5436,4.4898-3.5336,2.8705-1.6706,5.9137-2.9224,9.1296-3.7553,6.6176-1.7168,13.6178-2.2002,20.4146-1.9046.7733.0323,2.3764.1355,4.8094.3064l3.2902.4404c.0468.0062.0904-.0246.0969-.0693.0032-.0246-.0048-.0493-.0226-.0677l-13.3966-13.2799-9.9159-9.9434c-.1211-.1216-.2922-.1848-.4666-.174l-3.4501.2233c-.0145,0-.0258.0123-.0242.0262,0,.0062.0032.0123.0065.0154l17.3488,18.7181c.2115.2279.1889.5758-.05.7775,0,0-.0016,0-.0032.0015l-.0339.0277c-.2196.1971-.5634.1894-.7717-.02-.0048-.0046-.0097-.0108-.0145-.0154l-3.9974-4.3712c-.0727-.0801-.1808-.1201-.289-.1109-5.8427.5066-11.5384,1.6398-17.0872,3.4012-2.3635.7498-4.6302,1.669-6.7984,2.7576-4.1136,2.0632-9.1054,5.8339-8.8633,10.8226.0129.271-.205.5019-.4908.5173h-.0291c-.2938.0185-.5521-.1786-.6022-.4558-.0533-.2972-.0662-.5882-.0371-.8699.2632-2.5744,1.3561-4.4744,3.0804-6.3959,1.5967-1.6567,3.492-3.0609,5.686-4.2126,1.8711-.9823,3.7939-1.8261,5.7652-2.5328,5.9734-2.1402,12.1874-3.3889,18.4401-4.0479.0549-.0062.0936-.0539.0872-.1062-.0016-.02-.0113-.0385-.0242-.0523-1.5063-1.5905-2.4911-2.636-2.9512-3.1348-3.1482-3.4104-10.3437-11.1613-21.5867-23.2556-.1388-.1494-.2954-.2479-.4714-.2956-.0274-.0077-.0565-.0077-.0856-.0015-1.135.2587-2.8043.6482-5.0048,1.1686-3.4339.8114-6.8646,1.9831-9.9288,3.6476-3.7245,2.0247-6.7015,4.7608-8.9327,8.2112l-.0016-.0015ZM69.2773,41.7126c4.4365.6867,9.5542,2.5097,11.9501,6.456.0097.0169.0307.0231.0484.0154.0145-.0077.0226-.0231.0178-.037-.218-1.104-.9283-2.2126-1.5789-3.1379-.0597-.0878-.5715-.716-1.5337-1.8877-5.1258-6.2496-9.2879-11.3029-12.4845-15.1599-1.2463-1.5027-2.6525-3.2442-4.2185-5.2257-.8766-1.107-1.5967-1.9138-2.1633-2.4204-2.6009-2.3234-6.0751-3.8862-9.4945-4.7531-2.6041-.6605-5.2566-.9007-7.9592-.7237-1.5854.1047-3.3209.2987-5.2082.5835-2.1068.3172-4.5495.6667-7.3279,1.0501-.0404.0046-.0694.0416-.063.0816.0016.0108.0065.0216.0129.0308l19.0197,25.5821c.0484.0662.1308.1001.2147.0878,5.1436-.7514,10.1952-1.2579,15.3872-1.0916,1.503.0477,3.2967.2325,5.3809.5512v-.0015ZM145.1607,49.6035c.184.0416.3197.1432.4052.3049.0468.0862.0113.1925-.0791.2371-.0129.0062-.0258.0108-.0404.0139-.3019.0708-.6038.1278-.9073.1709-24.5572,3.4797-38.2122,5.4274-48.8707,6.981-.8298.1201-1.4159.1478-1.7581.0816-.8653-.1694-1.7226-.9223-2.215-1.5351-.1857-.231-.36-.2079-.5941-.077-.0468.0262-.0727.077-.0662.1278.1518,1.1948,1.382,2.1633,2.5105,2.4758.7798.2171,1.5918.0739,2.5379-.0662,3.7197-.5497,9.0667-1.3072,16.0394-2.2711,2.3119-.3187,6.9033-.9608,13.7728-1.9231,3.9747-.5558,10.8248-1.5459,20.5502-2.967.3955-.057.7733-.1293,1.1333-.2171.0387-.0092.0613-.0462.0517-.0816-.0032-.0108-.0081-.02-.0161-.0293-.9412-.9854-1.9325-1.8969-2.9706-2.733-.3923-.3942-.7846-.8114-1.1785-1.2502-.4633-.5173-.854-.9331-1.1689-1.2472-7.7638-7.717-15.8828-15.7835-24.357-24.1995-.1889-.1863-.3536-.3156-.4956-.388-.042-.02-.0904-.0246-.1356-.0108l-3.71,1.0763c-.0387.0108-.0597.0508-.0484.0878.0032.0108.0097.0216.0194.0293,2.9221,2.7437,5.9234,5.6184,9.0021,8.6254,1.2754,1.2456,2.6703,2.5744,4.1862,3.9863,1.9535,1.8215,3.4275,3.2288,4.5882,4.3789.5166.5127,1.5579,1.5151,3.1223,3.0101,2.567,2.4497,4.6673,4.4343,6.3011,5.9525.3245.3033.5118.5297.5602.679.1227.3757.0145,1.0593-.4779,1.2025-.2761.0816-.5424.1401-.7959.1755-3.4969.4973-5.8394.8207-7.0277.97-1.3319.1678-2.2408.3541-3.5292.4973-1.7258.194-3.8004.5789-5.2211.7375-.6103.0677-1.3771.1786-2.3022.3341-1.0768.1801-2.7623.3341-4.0861.5543-1.3012.2156-2.7607.3757-4.1669.5928-.8815.1355-1.6596.2433-2.3345.3233-.6765.0801-1.453.1925-2.3296.3357-1.0139.1663-2.031.3187-3.0497.4573-1.2302.1694-2.4604.3326-3.6922.4881-.6022.077-1.2141.1678-1.8356.2741-1.5289.2618-2.3393.3418-4.0087.639-.8766.1555-1.9244.3587-2.7381.234-.0161-.0031-.0323.0062-.0371.0216h0c-.0048.0216.0065.0416.0274.0462.712.1863,1.7549-.0323,2.6251-.1678,2.7026-.4188,5.6005-.8422,8.6921-1.2687,3.978-.5481,7.4361-1.0455,10.376-1.4935,1.164-.1771,2.5218-.2987,3.6309-.4835,1.0607-.1771,1.9664-.3064,2.7171-.3849,1.2899-.1355,2.709-.425,4.1911-.602.1647-.02.7443-.1093,1.7404-.2679.6248-.1001,1.495-.2233,2.6105-.3711,3.3209-.4419,5.9524-.7991,7.8946-1.0732,2.3103-.3264,4.6302-.6575,6.9582-.9931h0ZM91.7002,54.7908c.6393.0924,1.1898-.1016,1.8259-.3064,2.7672-.8946,6.1252-1.7337,10.0725-2.5143,6.7354-1.3318,13.345-2.3912,19.8285-3.1779,4.43-.5374,8.8568-.9639,13.2788-1.2795.6506-.0462,1.2334-.04,1.7517.02.0484.0062.0807.0493.0743.0939-.0065.037-.0371.0662-.0759.0708-6.3431.5389-12.6637,1.2595-18.9616,2.1602-.8976.1278-2.6331.3849-5.2082.7699-5.1743.7714-10.1516,1.7091-14.9287,2.813-2.2973.5312-4.5172,1.1194-6.6612,1.766-.0662.02-.1033.0878-.0823.1509.0048.0169.0145.0308.0258.0447l.2535.2741c.0759.0816.1905.1186.3035.1001,3.1659-.5558,6.4497-1.0824,9.8513-1.5767,7.5572-1.1009,19.2215-2.7453,34.993-4.9347.7055-.097,1.3432-.1709,1.9131-.2217.0484-.0046.0856-.0447.0807-.0908-.0016-.02-.0097-.037-.0242-.0523-.5521-.5574-1.0881-1.1009-1.6096-1.6305-1.2496-1.2687-2.4507-2.3604-3.6712-3.6121-.6926-.7083-1.3707-1.378-2.0374-2.0108-5.3099-5.041-10.1225-9.6709-14.4379-13.8912-.0048-.0046-.0129-.0062-.0194-.0015l-.0387.0339c-.0178.0139-.0194.04-.0048.057l.0016.0015c2.68,2.6206,7.2085,7.078,13.5839,13.3723.7539.7437,1.4514,1.4797,2.0907,2.2064.2309.2633.4472.4788.649.6436.042.0339.0452.0939.0097.1324-.0161.0169-.0371.0277-.0597.0323l-.1227.02c-.1308.02-.2632-.0092-.3713-.0801l-.4746-.311c-.0517-.0354-.1243-.0231-.1614.0262-.0048.0062-.0097.0139-.0129.0216-.0597.137-.0387.2279.0662.2756.0291.0139.0597.02.0904.0216.1792.0062.3277.0447.4488.1139.0468.0262.071.0785.0597.1293-.0533.251.063.4265.3487.5266.3487.1232.7233.2279,1.1253.3141.2712.057.4876.194.5634.4311.0161.0554-.0161.1124-.0743.1278-.0145.0046-.0307.0046-.0452.0031-.063-.0092-.1179,0-.1647.0246-.0161.0092-.0065.0246.0194.0339.0161.0062.0355.0077.0533.0062.3568-.0339.6942.0277,1.0106.1863.0226.0108.0307.037.0194.0585-.0081.0139-.0226.0231-.0387.0231-.8234.0231-1.2802.0216-1.9712.1293-2.948.4604-6.5013.4804-8.7406.6498-3.1546.2387-7.0503.6267-11.6869,1.1609-4.3154.4989-8.5581,1.2518-12.725,2.2572-3.8537.9315-7.2617,2.1879-10.2242,3.7723-.3374.1801-.4972.3079-.7749.465-.0274.0139-.0371.0462-.0226.0708.0113.0216.0371.0308.0613.0262l.4488-.0893c.0178-.0046.0355-.0092.0533-.0169,2.1343-.93,4.4042-1.7399,6.8081-2.4312,6.264-1.8015,12.7573-3.0517,19.257-3.8585,5.1484-.6405,10.2565-1.144,15.4098-1.4858,1.0284-.0677,1.792-.1001,2.2893-.0955.7733.0046,1.5628-.0077,2.3716-.0385.1195-.0046.2357.04.3197.1201l.1873.1786c.042.04.042.1032,0,.1432-.0194.0185-.0452.0293-.0743.0308-1.277.04-3.5792.02-5.3212.1678-1.5854.134-3.0852.194-4.6835.3587-2.6331.2741-4.8804.505-6.7387.6913-3.6018.3618-7.8494.9916-12.7444,1.8923-3.7019.6806-7.4571,1.5736-11.2655,2.6775-1.8421.5327-3.8036,1.3087-5.3454,1.7583-.0194.0077-.0307.0277-.0226.0477.0048.0123.0145.02.0274.0231h.0017ZM6.1075,37.1997l-1.4272.1093c-.0484.0046-.084.0447-.0791.0893,0,.0154.0065.0293.0161.0416l23.1042,30.3352c.042.0539.1033.0924.1711.1047.092.0169.2212.0077.3842-.0308l8.0528-1.4057c.5634-.1109,1.1317-.2109,1.7016-.3002,1.763-.2787,3.5259-.5712,5.2873-.8792,2.2392-.3895,4.0006-.6898,5.2873-.8992,5.5876-.9115,9.2055-1.5089,10.8506-1.7907,1.7501-.3002,3.3064-.5035,4.6157-.7498,1.0639-.2002,2.1278-.3095,3.1514-.505,1.3206-.2525,2.9593-.4419,4.3606-.6959.6377-.1155,1.3012-.2186,1.9906-.311,1.0155-.1355,1.9954-.3357,3.0432-.505.2922-.0477.5877-.1417.8863-.2848.0113-.0062.0161-.0185.0113-.0293h0c-.0048-.0123-.0178-.0185-.0307-.0139h0c-.2293.0754-.4908.1417-.783.1955-1.4417.2664-2.7897.4912-4.0442.6744-.712.1032-1.4788.2263-2.299.3726-.0565.0108-.8234.137-2.3006.3803-.5215.0862-1.9599.3156-4.3186.6867-4.0926.6451-9.882,1.5921-17.3697,2.8408-1.4352.2387-2.4443.4558-3.6632.6297-2.1682.311-4.3025.6852-6.4513,1.0347-1.256.1678-2.5088.3572-3.7568.5651-.5085.0847-.9009-.057-1.1785-.425-1.0074-1.3349-2.0536-2.9177-2.9189-4.0864-1.7323-2.3388-3.2838-4.4605-4.656-6.3651-1.0187-1.4181-2.3038-3.0594-3.2273-4.402-.8008-1.1656-1.7985-2.4189-2.5137-3.4181-2.0778-2.8931-4.1572-5.6707-8.253-11.1921-.084-.1124-.226-.1724-.3697-.1555l-3.2741.3849h0ZM2.7705,37.5077c-.071.0046-.1243.0631-.1195.1309,0,.0231.0097.0447.0226.0631l24.1617,32.0828c.0533.0708.1437.1093.2357.1016.783-.0647,1.6629-.2879,2.3393-.3988,2.6622-.4342,5.3712-.8915,8.1287-1.3734,6.1365-1.0716,11.6675-1.9523,17.6684-2.9778,5.4277-.9254,10.2581-1.6783,16.3155-2.7145,1.9954-.3418,3.3306-.5435,5.481-.9007,1.2496-.2063,1.9728-.5404,2.7284-1.495.4472-.5635,1.1963-1.9662.5037-2.5174-.1501-.1201-.3584-.1247-.4795-.0108-.063.057-.1098.1278-.1372.2125-.3584,1.0393-.9041,2.1202-1.9696,2.5836-.247.1078-.8912.2417-1.9293.4003-4.4752.6821-9.4251,1.4643-14.8512,2.3434-11.6353,1.8861-22.4181,3.6768-32.3485,5.3751-.4149.0708-.7265.117-.9315.1401-.0549.0062-.1098-.0169-.1421-.0601L3.9523,37.6139c-.0823-.1078-.2163-.1678-.3568-.1586l-.825.0523h0ZM93.9911,50.2779c2.4653-1.1117,4.9337-1.977,7.4054-2.5975,1.8259-.4573,3.9053-.8592,6.2398-1.2025,7.1891-1.0578,14.3766-1.589,21.5641-1.5921.6958,0,1.9535.0216,3.7746.0662.0468.0015.0888-.0323.0936-.0785v-.0031c.0048-.0431-.0274-.0831-.0727-.0924-.6587-.117-1.2916-.1909-1.8986-.2202-4.1846-.2032-8.1884-.3064-12.0098-.3095-6.3399-.0062-12.9333.4942-18.9228,2.6467-2.2909.8237-4.3574,1.9369-6.2027,3.3396-.0113.0108-.0113.0262,0,.037.0081.0077.0194.0092.0291.0062ZM133.4432,44.9798c.0048-.0231-.0678-.0539-.1598-.0724-.092-.0169-.1711-.0123-.176.0092h0c-.0048.0231.0678.0539.1598.0724.092.0169.1711.0123.176-.0092h0ZM135.458,45.8328c-.3471-.0955-.6086-.2171-.7814-.3664-.1162-.1001-.2551-.1724-.4052-.2125l-.473-.1201c-.0274-.0077-.0581-.0077-.0872-.0015-1.5838.3172-3.4388.1355-4.7513.1632-6.1946.137-12.2762.5605-18.2432,1.2718-5.699.6775-11.0799,1.5551-16.1234,3.7553-1.319.5743-2.3603,1.1917-3.1256,1.8492-1.2124,1.0424-2.1359,2.154-2.7688,3.3319-.0097.0185-.0032.04.0161.0493.0065.0031.0129.0046.021.0046l.9913-.0647c.0484-.0031.092-.0293.113-.0708l.0969-.1863c.0549-.1062.1308-.2002.2228-.2787.3972-.3341.7055-.6959,1.1301-.9592.7959-.4942,1.4853-.8823,2.0649-1.1625,3.3419-1.6121,6.9259-2.6899,10.7215-3.5151,1.7307-.3772,4.3977-.8792,6.4238-1.1763,7.3215-1.0762,14.6058-1.7537,21.8547-2.0355.3229-.0123,1.3545-.0739,3.0933-.1848.0274,0,.0468-.0231.0452-.0477,0-.02-.0161-.037-.0355-.0431h0ZM81.4647,59.0943c-.0016.0262.0178.0493.0452.0508h.0129l9.1523-1.4319c.0274-.0046.0452-.0293.042-.0554,0-.0062-.0032-.0108-.0065-.0154l-.6377-1.0532c-.0097-.0185-.0307-.0277-.0517-.0246l-8.4338,1.3195c-.0226.0031-.0404.0216-.042.0447l-.0807,1.1656h0Z" style="fill: #1d1e2d;"/>
  <path d="M86.3225,44.4348c-.4085-.5712-.8621-1.1255-1.3626-1.6629-.3067-.3295-.67-.7699-.7895-1.1101-.176-.4989-.4085-1.0855-.699-1.7599-.0888-.2032-.2325-.639-.4343-1.3057-.1308-.4357-.2954-.8638-.4924-1.2872.8185-.7868,1.3416-1.2687,1.5692-1.4489,3.0917-2.4312,6.7338-4.3065,10.9265-5.6261,2.0423-.6421,3.8359-1.087,5.3809-1.338.0097-.0015.0161-.0092.0145-.0185l-.0081-.0416c-.0032-.0169-.0178-.0277-.0355-.0262-2.0972.1494-4.2379.5882-6.4255,1.3164-3.2499,1.0824-6.0945,2.502-8.5339,4.2573-.4763.3434-.9606.7468-1.4514,1.2102-.0371.0339-.0759.0647-.1179.0924-.5473.3618-1.0591.7945-1.5353,1.2964l-1.658-2.1833c-.0291-.0385-.0436-.0862-.0404-.134.0226-.3372.1211-.5605.2954-.6698.1905-.037.3632-.1232.5198-.2602,1.6968-1.4889,3.5889-2.7884,5.678-3.8985,2.9609-1.572,6.0977-2.7006,9.4122-3.3889,1.5095-.3141,3.0142-.6328,4.514-.9577.4585-.7622.4133-1.4365-.1356-2.0232-.4972-.5327-1.0897-.8299-1.7775-.893-.7443-.0693-1.3093-.0878-1.6968-.0554-1.9551.1617-3.978.5266-6.0703,1.0947-.3164.0862-1.0607.331-2.2328.7329-1.9858.6805-3.8472,1.5459-5.586,2.5975-.3374.1062-.6103.2864-.8185.542l-1.4078.9115c-1.3432.8745-2.5234,1.9308-3.5421,3.1687-.0533.0077-.1017.0062-.1485-.0062-.042-.0108-.0807-.0385-.1179-.0831-.7346-.9115-1.3077-1.8384-2.2086-2.7068l.7652-.9331c.0597-.0693.0484-.1709-.0226-.2279-.0613-.0477-.1485-.0493-.2115-.0031-.3374.2356-.6377.5235-.9009.8607l-2.1246-2.5313c1.9067-2.3465,4.2557-4.2527,7.0486-5.72.5521-.2895,1.2786-.6451,2.1795-1.0686.2115-.1001.247-.2571.1033-.4711l2.2538-.8099c.0646.0862.1727.1201.3245.1001.473-.0616.7701-.2171.8912-.4681-.0097-.1139.0581-.1694.2034-.1678.1566.0031.2599-.0015.31-.0139,1.3093-.3049,2.4055-.5389,3.2886-.7006.7911-.1447,1.382-.4219,1.5805-1.1255.3003-1.0686-.4924-1.9985-1.5402-2.2865-.3261-.0893-.7701-.1201-1.3335-.0908-1.4998.0785-2.9415.3618-4.3251.853-.3939-.194-.8427-.0677-1.3481.3788l-.2632.0955c-.1566-.0616-.3277-.06-.5118.0046-4.0571,1.415-7.541,3.6337-10.4519,6.6561-.1275.1324-.1776.2818-.1501.4481.0097.06.0694.1016.1324.0924.0178-.0031.0355-.0092.05-.02l.3197-.2263c.0549.1093-.0129.214-.2018.3126-.1631.0847-.3245.1724-.4843.2633-.0436.0262-.0839.057-.1179.0955l-.5941.6667c-.0839.0939-.2293.1047-.3261.0262-.0097-.0077-.0194-.0169-.0291-.0277l-2.5056-2.9085c2.2312-3.4505,5.2082-6.1865,8.9327-8.2112,3.0642-1.6644,6.4949-2.8361,9.9288-3.6476,2.2005-.5204,3.8698-.91,5.0048-1.1686.0291-.0062.0581-.0062.0856.0015.176.0477.3326.1463.4714.2956,11.243,12.0944,18.4385,19.8452,21.5867,23.2556.4601.4989,1.4449,1.5443,2.9512,3.1348.0371.0385.0339.1001-.0081.1355-.0161.0139-.0355.0216-.0549.0231-6.2527.659-12.4667,1.9077-18.4401,4.0479-1.9712.7067-3.894,1.5505-5.7652,2.5328-2.194,1.1517-4.0894,2.5559-5.6861,4.2126h0ZM85.1117,21.5009c-1.4901.6066-2.9415,1.3503-4.3574,2.2295-.2987.1863-.5715.4019-.8201.6467-.0258.0246-.0242.0631,0,.0878.0194.0169.0468.0231.071.0123.2809-.1062.5764-.254.8863-.4404,1.4482-.873,2.906-1.6074,4.3703-2.2033,1.4643-.5974,3.0271-1.0932,4.6899-1.4889.3552-.0847.67-.1863.9461-.3064.0323-.0154.0452-.0523.0307-.0816-.0097-.02-.0323-.0339-.0565-.0354-.3584,0-.7104.04-1.0575.1186-1.6451.3664-3.2127.853-4.7029,1.4612ZM77.0686,26.8514l1.7194-1.3904c.0081-.0077.0097-.02.0016-.0277l-.0032-.0062c-.1308-.1447-.6183.0462-1.0897.428l-.042.0339c-.4714.3803-.7491.8083-.6199.9546l.0048.0046c.0065.0077.0194.0092.0291.0031h0ZM92.8739,34.1865c-.9218.3695-1.8566.7899-2.801,1.261-.36.1801-.6199.3295-.7782.4496-.084.0631-.0985.1801-.0323.2602.0032.0031.0065.0077.0097.0108l.0048.0046c.084.0862.2179.1093.3261.0539,1.1608-.5851,2.3183-1.1101,3.4759-1.5751,1.1575-.4604,2.3635-.8807,3.6147-1.2579.1162-.0354.1937-.1432.1873-.2602v-.0062c-.0065-.1032-.0985-.1817-.205-.1755h-.0129c-.2002.0231-.494.0939-.8815.2125-1.0155.3126-1.9841.6528-2.9076,1.0208v.0015ZM87.585,37.015c-.0258-.0293-.1065-.0031-.1792.057s-.1098.1324-.084.1617.1065.0031.1792-.057.1098-.1324.084-.1617ZM86.7278,37.6154c-.0775-.0908-.4553.0831-.8443.3865h0c-.3891.3033-.6425.6236-.5651.7129h0c.0775.0908.4553-.0831.8443-.3865h0c.3891-.3033.6425-.6236.5651-.7129h0Z" style="fill: #fceed2;"/>
  <path d="M28.7035,10.4621l.0677-.0196c.2313-.067.4757.0575.546.278l.4711,1.4788c.0703.2206-.0603.4537-.2915.5207l-.0677.0196c-.2313.067-.4757-.0575-.546-.278l-.4711-1.4788c-.0703-.2206.0603-.4537.2915-.5207Z" style="fill: #fbc887;"/>
  <path d="M25.5647,13.4652c-.1211-.0092-.2115-.1124-.2018-.2279l.0129-.1478c.0274-.3049.6974-.5019,1.4982-.4373l.5505.0431c.8008.0647,1.4272.3634,1.4013.6698l-.0129.1478c-.0097.1155-.1179.2017-.2389.1925l-3.0093-.2402h0Z" style="fill: #fbc887;"/>
  <path d="M102.9258,13.0631l1.0504-.4252c.2073-.0839.4467.0083.5347.206l.0257.0578c.088.1977-.0087.426-.216.51l-1.0504.4252c-.2073.0839-.4467-.0083-.5347-.206l-.0257-.0578c-.088-.1977.0087-.426.216-.51Z" style="fill: #fbc887;"/>
  <path d="M85.6138,17.4977c-.4407-.0939-.8363-.0031-1.1866.2725-.0323.0262-.042.057-.0291.0955l-2.2538.8099c-1.9228.7529-3.731,1.7306-5.4245,2.9362-2.6009,1.8476-5.0887,4.3296-5.9993,7.3351-.0081.0231.0048.0493.0291.057.0226.0077.0484-.0031.0581-.0246.5538-1.0316,1.2221-2.0463,2.0051-3.044l2.1246,2.5313c-.7152.8592-1.792,2.4389-1.8275,3.5213,0,.0169.0145.0308.0323.0308.0129,0,.0226-.0062.0274-.0169.5538-1.1902,1.2673-2.2664,2.1375-3.2318.9009.8684,1.474,1.7953,2.2086,2.7068.0371.0447.0759.0724.1179.0831.0468.0123.0953.0139.1485.0062-.0533.1678.0291.2002.2502.0955.042-.02.0791-.0462.113-.0785.7701-.7498,1.8114-1.6921,3.1223-2.8269.1275-.1109.1469-.231.0565-.3588l1.4078-.9115c.4052-.0354.6781-.2156.8185-.542,1.7387-1.0516,3.6002-1.9169,5.586-2.5975,1.1721-.4019,1.9163-.6467,2.2328-.7329,2.0923-.5682,4.1152-.9331,6.0703-1.0947.3875-.0323.9525-.0139,1.6968.0554.6878.0631,1.2802.3603,1.7775.893.5489.5866.5941,1.261.1356,2.0232-.6635-.0631-1.3916-.0385-2.1811.0739-6.4319.913-12.8041,3.4335-17.4795,7.7693-.0985.0908-.2519.3126-.4633.6621-.1744.1093-.2728.3326-.2954.6698-.0032.0477.0113.0955.0404.134l1.658,2.1833c-.825.796-1.4691,1.6906-1.9325,2.6806-.0129.0293-.0226.0523-.0274.0708-.0097.04.0161.0801.0581.0878.0291.0062.0581-.0031.0775-.0246l2.0407-2.4882c.197.4234.3616.8515.4924,1.2872.2018.6667.3455,1.1024.4343,1.3057.2906.6744.5231,1.261.6991,1.7599.1195.3403.4827.7806.7895,1.1101.5005.5374.9541,1.0916,1.3626,1.6629-1.7242,1.9215-2.8172,3.8215-3.0803,6.3959-.0291.2818-.0161.5728.0371.8699.05.2771.3084.4742.6022.4573h.0291c.2858-.0169.5037-.2479.4908-.5189-.2422-4.9886,4.7497-8.7594,8.8633-10.8226,2.1682-1.0886,4.4349-2.0078,6.7984-2.7576,5.5488-1.7614,11.2446-2.8946,17.0872-3.4012.1082-.0092.2163.0308.289.1109l3.9974,4.3712c.1986.2171.5424.2387.7701.0493.0048-.0046.0113-.0092.0161-.0139l.0339-.0277c.2405-.2002.2648-.5481.0549-.776,0,0,0-.0015-.0016-.0031l-17.3488-18.7181c-.0097-.0092-.0097-.0262,0-.0354.0048-.0046.0113-.0062.0161-.0062l3.4501-.2233c.1744-.0108.3455.0523.4666.174l9.9159,9.9434c-.2405.254-.5731.445-.9961.5743-.1292.04-.2002.1724-.1582.2956.0032.0092.0065.0185.0113.0277.0533.1093.0904.1755.1114.1971.0646.0647.7249.813,1.9809,2.2433.5134.5866,1.1947,1.3118,2.0439,2.1787,2.3458,2.3942,4.6916,4.8809,7.0389,7.4599-2.433-.1709-4.0361-.2741-4.8094-.3064-6.7968-.2956-13.797.1878-20.4146,1.9046-3.216.833-6.2592,2.0848-9.1296,3.7553-1.7032.99-3.1998,2.1679-4.4898,3.5336-.9574,1.0116-1.6209,2.1648-1.9938,3.4566-.0097.037.0129.0739.0517.0831.0048,0,.0097.0015.0129.0015l.0468.0031c.0161.0015.0307-.0077.0371-.0231.5473-1.3442,1.3965-2.5651,2.5476-3.663,2.257-2.1494,5.0823-3.7784,8.0318-4.9609,3.2305-1.2964,6.8049-2.2249,10.7199-2.7869,3.6486-.5235,7.1229-.7883,10.4212-.796,3.8908-.0077,7.9334.2648,12.1277.8176.176.0231.3229.1401.3746.3018l.0065.0185c.0323.0985-.0258.2048-.1292.2356-.0226.0077-.0484.0092-.0727.0077-5.4197-.3218-10.7183-.4219-15.8958-.3002-4.0571.0955-7.8526.5158-11.3899,1.261-3.9376.8299-7.9011,2.3296-11.0153,4.616-1.1575.8515-2.2877,1.8015-3.3903,2.85-.4876.4635-1.1737,1.2487-1.4514,1.8091-.2648.5358-.4601.9269-.586,1.1717-.0484.0908-.1388.1555-.2438.1724l-7.0745,1.144c-.0274.0046-.0549,0-.0807-.0108-.1146-.0554-.2276-.1186-.3358-.1878-.4892-.3156-.9961-.3603-1.524-.137-.331-.5343-.4214-1.0824-.2712-1.6444.0613-.2771-.1792-.5004-.7217-.6713-2.2457-.7083-4.7497-.776-7.0809-.5327-2.6751.2787-5.6489.7421-8.9214,1.3904-6.7306,1.3334-13.4273,2.8069-20.0885,4.4189l-.4972-.699c7.6573-1.9046,15.3565-3.6275,23.0994-5.1657,2.5992-.5158,5.2195-.91,7.8591-1.1794.3826-.0385.9557-.0539,1.721-.0462h0s.0016-.0015.0016-.0031,0-.0015-.0016-.0015c-.6603-.1093-1.248-.1478-1.763-.1155-2.9593.1801-6.0671.5728-9.3202,1.1748-3.3774.6251-6.6208,1.2795-9.7302,1.9616-2.6671.5851-6.8775,1.5782-12.633,2.9778-.1534-.0631-.2874-.1232-.402-.1832-.1195-.0616-.226-.1555-.3197-.2818-.3842-.5189-.7055-.97-.9638-1.3503-.7765-1.1486-1.5531-2.2865-2.3296-3.4135-1.926-2.7976-6.5094-9.3306-13.7502-19.5989-.5764-.816-1.1446-1.6767-1.7081-2.5821l4.4962-.5882c.1114-.0154.2228.0308.2874.1201,4.9999,6.8624,9.9772,13.7264,14.9336,20.5935.4714.6544,1.6354,1.532,2.4717,1.0008.2115-.134.3859-.2156.5263-.2448,0,0,.0016,0,.0032-.0015l6.4804-1.0886c.071-.0108.1179-.0754.1066-.1417-.0032-.0185-.0113-.0354-.0226-.0508l-.0484-.0631c-.0274-.037-.0743-.057-.1227-.0508l-2.1391.2679c-.3729-.408-.7184-.8638-1.0349-1.3673-.0355-.057-.0355-.1878,0-.3942,3.5372-.7498,7.1019-1.358,10.6973-1.8215,3.0206-.3895,5.9524-.5805,8.7938-.5712,3.6244.0123,7.7235.5143,10.8684,2.3111,1.4837.8468,2.4959,2.057,3.0384,3.6306.0113.0339.05.0523.0856.0416.0291-.0092.0484-.0354.0452-.0647-.1259-1.863-1.8469-3.4135-3.4872-4.2604-2.4765-1.281-5.1145-1.88-8.048-2.1125-2.3329-.1863-5.1856-.134-8.5549.157-4.5366.3895-9.4816,1.281-13.8357,2.1463-5.7393-8.1927-9.4122-13.4108-11.0185-15.6511-2.7429-3.8308-4.5737-6.205-6.8468-9.3167,0,0-.2373-.3033-.7071-.9053-.3116-.3988-.5877-.8237-.8282-1.278l3.3306-.3049c.1308-.0108.2583.0447.3326.1463l18.2367,24.5259c.0839.1139.2212.1801.3665.1786.4149-.0046.6329-.214.6522-.6313.0016-.0385-.0032-.0785-.0161-.1155l-.0678-.194c-.0145-.0416.0097-.0878.0533-.1001.0048,0,.0081-.0015.0129-.0031,5.833-.8453,11.4593-1.2995,17.2777-.6544,4.4058.4881,9.2653,1.6613,12.4118,4.7346.0145.0169.0404.02.0581.0062s.021-.0385.0065-.0554c-.7297-1.1702-1.742-2.0601-3.0384-2.6714-1.0704-.505-1.8808-.8484-2.4281-1.0285-2.2312-.7375-4.4236-1.2395-6.5788-1.5027-1.2124-.1494-2.4313-.2571-3.6583-.3264l.4488-.9161c3.9376.2217,8.1448,1.0285,11.5545,2.91.4859.2694,1.0817.6882,1.7904,1.2595.967.7806,1.629,1.5074,1.9825,2.1818.0178.0354.0274.0616.0291.0816.0032.0554.0226.1093.0549.1555.5198.7391.8976,1.6475,1.1333,2.7253.0355.1617.1275.3233.2777.4881.3875.4234.9913-.0677,1.0252-.4727.2728-3.3335-.9331-5.8894-3.0255-8.4206-4.3961-5.3166-9.3282-11.2937-14.7963-17.9314-.0694-.0847-.092-.1971-.0597-.3002.5715-1.8338,1.3836-3.5475,2.4362-5.1441l2.5056,2.9085c.0807.0939.2276.1062.3261.0293.0113-.0077.021-.0169.0291-.0277l.5941-.6667c.0339-.0385.0743-.0693.1179-.0955.1598-.0908.3213-.1786.4843-.2633.1889-.0985.2567-.2032.2018-.3126,2.7914-2.8685,6.13-4.9532,9.9094-6.4775.2825-.1139.5166-.2725.7023-.4773l.2632-.0955c.586.0385,1.0349-.0878,1.3481-.3788,1.3836-.4912,2.8253-.7745,4.3251-.853.5634-.0293,1.0074.0015,1.3335.0908,1.0478.2879,1.8405,1.2179,1.5402,2.2865-.1986.7036-.7895.9808-1.5805,1.1255-.8831.1617-1.9793.3957-3.2886.7006-.05.0123-.1534.0169-.31.0139-.1453-.0015-.2131.0539-.2034.1678h.0016ZM80.2522,34.6684l-.3229-.2217c-.0113-.0077-.0258-.0046-.0339.0062h0l-.2825.3741c-.9348,1.241-1.6354,2.2849-1.5644,2.3326h0l.1082.0739c.0775.0385.8879-.9254,1.8179-2.1587l.2825-.3741c.0081-.0108.0065-.0246-.0048-.0323h0ZM117.1793,36.7455l-.0113.2464c-.0016.04.0307.0739.0727.0754h0l1.0171.0462c.4407.02.8008-.0354.8072-.1232l.0032-.0708c.0081-.0878-.3439-.1771-.7862-.1971h-.0048l-1.0171-.0447c-.042-.0031-.0775.0277-.0807.0677h0ZM116.8968,36.9888l-.0113-.1909c-.0032-.0339-.0323-.0585-.0678-.057l-.2502.0123c-.2147.0108-.3842.0724-.381.1355l.0048.0831c.0032.0631.1792.1062.3939.0955l.2502-.0139c.0355-.0015.063-.0308.0613-.0647h0ZM85.3232,51.4958c.2196-.6482.3471-1.2133.6861-1.8138,1.4643-2.5975,4.1572-4.6253,6.8291-6.0418,3.6406-1.9292,7.5685-3.4074,11.7822-4.4328,3.505-.8515,6.7984-1.4858,9.8836-1.9015.1388-.02.2583-.1047.318-.2263l.0032-.0077c.0307-.0631,0-.1386-.0646-.1678-.021-.0092-.0436-.0123-.0662-.0108-1.093.0816-2.1488.2032-3.1691.3664-6.214.9962-12.1987,2.5852-17.7427,5.3181-2.6041,1.2841-4.916,2.947-6.7661,5.1241-.967,1.1378-1.545,2.3989-1.7323,3.7861-.0016.0108.0048.02.0145.0231s.021-.0046.0242-.0139v-.0015ZM119.0068,39.3553c.0194,0,.0355-.0139.0371-.0323,0-.0185-.0129-.0339-.0323-.0339-1.5708-.2325-3.2402-.1463-4.9063.0015-3.329.2972-6.7419.8545-10.2372,1.6721-4.7981,1.124-9.4768,2.8854-13.3433,5.7847-1.2996.9746-2.433,2.1818-3.3984,3.6245-.0016.0031,0,.0077.0016.0108l.0355.0339c.0145.0139.0371.0154.0533,0,0,0,.0032-.0031.0032-.0046,1.0897-1.3565,2.3942-2.5528,3.9166-3.586,3.5986-2.445,7.7429-4.111,12.0356-5.1488,5.184-1.2518,10.4632-2.0262,15.8344-2.3234v.0015ZM75.9126,50.4827c-.3084-.2356-.6781-.4265-1.1075-.5758-2.1989-.7622-4.6028-1.0824-6.8323-1.1301-2.2376-.0477-4.493-.0323-6.9905.1894-2.8915.2556-5.7151.5928-8.4742,1.0116-.1405.0216-.2357.1478-.2131.2802v.0062l.0032.0092c.0274.137.1631.2294.3084.2079,4.183-.6297,8.0399-1.0254,11.5707-1.1902,2.6945-.1263,5.2534-.0231,7.6734.3079,1.4498.1986,2.7946.5066,4.0361.9269.0129.0046.0291,0,.0339-.0139.0048-.0108,0-.0231-.0097-.0293h.0016Z" style="fill: #fbc887;"/>
  <path d="M83.7976,13.9656c-.3132.291-.762.4173-1.3481.3788.5053-.4465.9541-.5728,1.3481-.3788Z" style="fill: #211f22;"/>
  <path d="M82.1863,14.4399c-.1857.2048-.4198.3634-.7023.4773-3.7794,1.5243-7.1181,3.6091-9.9094,6.4775l-.3197.2263c-.05.037-.1227.0262-.1614-.0231-.0113-.0139-.0194-.0308-.021-.0493-.0274-.1663.0226-.3156.1501-.4481,2.9108-3.0224,6.3948-5.2411,10.4519-6.6561.184-.0647.3552-.0662.5118-.0046h0Z" style="fill: #211f22;"/>
  <path d="M49.8201,15.5608c-.1324.1986-.1631.3434-.0904.4373.3003.3942.5909.796.8702,1.204.0048.0062.0597.1293.1679.3695.0969.2202.3374.4373.7217.6544l-.4133-.0708c-.071-.0123-.1388.0323-.1518.1001-.0065.0354.0016.0708.0242.0985.042.0539.092.0893.1518.1062.3859.1139.6958.214.9283.3018l1.1818,2.0986c.0097.0169.021.0323.0339.0462l.5441.5481c-2.6428-.3772-5.3276-.3834-8.0528-.0216-1.319.1755-2.4426.4019-3.3709.6805-.0581.0169-.092.077-.0743.1324.0048.0154.0129.0277.0242.04l.0161.0169c.071.0754.1792.1109.2841.0908,1.009-.1909,1.9954-.3572,2.9577-.5004,2.2521-.3326,4.5269-.3911,6.8258-.1755.6668.0616,1.3287.1678,1.9858.3187l-.0436.2202c-.0129.06.0032.1232.042.1709l1.516,1.9123c-1.4417-.234-2.9932-.2787-4.6544-.1355-.0904.0077-.1598.0785-.1598.1632v.0062c-.0032.0816.0662.1478.1518.1494h.0032c.8298-.0077,1.6855-.0169,2.5653-.0308.6264-.0077,1.4691.0924,2.5298.3002.4682.7991.98,1.5258,1.5353,2.1802.0258.0308.0549.0585.0872.0847.1857.1432.3277.2879.4294.4342-2.0035-.2325-4.0006-.2571-5.9896-.0754-2.2263.2032-4.4397.5851-6.49,1.3349-.6038.2202-1.143.4773-1.6177.7714-.0145.0092-.0194.0277-.0113.0431.0048.0077.0145.0139.0258.0139.0339.0046.0694,0,.1098-.0139,4.6351-1.6059,9.3218-2.1479,14.0585-1.629l2.3167,2.8469c-1.4062-.1986-2.8866-.2725-4.4397-.2186-3.4145.117-6.637.6898-9.6656,1.7198-.0775.0262-.1195.1093-.0904.1832.0065.0154.0145.0293.0242.0416l.0178.02c.0807.0939.2131.1324.3342.0955,3.4694-1.047,6.9179-1.589,10.3486-1.6259,1.3061-.0139,2.6993.0693,4.1798.2479-.0274.1925-.0081.3295.0597.4142.4181.5096.8444,1.0131,1.2819,1.5074.0048.0046.0081.0092.0129.0139l.5828.4558c-1.1576-.1909-2.2731-.2448-3.3467-.1617-.0662.0046-.1195.0554-.1243.1186l-.0048.0708c-.0065.0955.0678.1771.1679.1848h.0065l3.4049.1186c-.0145.1832.0032.3064.0565.3695,1.6613,2.0309,3.2709,4.1002,4.8256,6.2081.2793.3772.5651.7652.8573,1.1656-2.0842-.3187-3.8779-.5035-5.3809-.5512-5.192-.1663-10.2436.3403-15.3872,1.0916-.0839.0123-.1663-.0216-.2147-.0878l-19.0197-25.5821c-.0242-.0323-.0161-.0785.0178-.1001.0097-.0062.021-.0108.0323-.0123,2.7784-.3834,5.2211-.7329,7.3279-1.0501,1.8873-.2848,3.6228-.4788,5.2082-.5835,2.7026-.1771,5.3551.0631,7.9592.7237h0ZM48.422,18.0166c.0016-.0785-.063-.1447-.1469-.1463h0l-.6232-.0139c-.0823-.0015-.1518.06-.1534.1401v.0154c-.0032.0785.063.1447.1453.1463h0l.6232.0139c.0823.0015.1518-.06.1534-.1401v-.0154h.0016ZM50.7661,18.2645c.0145-.1201-.0759-.231-.2018-.2448l-1.658-.1878c-.1259-.0139-.2422.0724-.2567.1925h0l-.0016.0154c-.0145.1201.0759.231.2018.2448l1.658.1878c.1259.0139.2422-.0724.2567-.1925h0l.0016-.0154ZM44.2599,18.1259c-.0097-.0955-.0985-.1663-.1986-.1555h0l-1.2689.1186c-.1001.0092-.1744.0939-.1631.1894v.0154c.0113.0955.1001.1663.2002.1555l1.2689-.1186c.1001-.0092.1744-.0939.1631-.1894v-.0154h-.0016ZM37.2371,19.6949l.0323.0308s.0161.0092.0258.0062c1.5789-.5605,3.2305-.9623,4.9547-1.204.113-.0154.2066-.0893.2422-.1909l.0113-.0293c.021-.0616-.0129-.1278-.0775-.1478-.0161-.0046-.0339-.0077-.05-.0062-1.742.1432-3.4501.6297-5.1242,1.4612-.0258.0123-.0371.0431-.0226.0677.0016.0046.0048.0077.0081.0123h0ZM42.1047,22.4001l-.0791-.2063c-.0097-.0231-.0371-.0354-.063-.0277l-.0291.0092c-1.39.485-2.4927.9423-2.4652,1.0208l.0048.0123c.0307.0785,1.1818-.2525,2.5734-.7375l.0291-.0108c.0242-.0092.0371-.0354.0291-.06h0ZM50.3464,24.4248c-.0081-.0677-.1405-.1093-.2987-.0924-.1566.0169-.2777.0847-.2696.1524s.1405.1093.2987.0924c.1566-.0169.2777-.0847.2696-.1524h0ZM45.5144,25.1131c-.0258-.097-.1292-.1571-.2309-.1324h0l-1.2802.3064c-.1017.0246-.1647.1232-.1388.2202h0l.0032.0123c.0258.097.1292.1571.2309.1324l1.2802-.3064c.1017-.0246.1647-.1232.1388-.2202h0l-.0032-.0123ZM42.7488,25.9784l.7152-.1986c.0129-.0031.0194-.0169.0161-.0293h0v-.0046c-.0291-.0924-.184-.1324-.3455-.0862h0l-.1727.0477c-.1631.0447-.2712.1571-.2438.251h0v.0046c.0048.0123.0194.0185.0323.0154h-.0016ZM59.6149,33.6692c-.0032-.0831-.1921-.1447-.423-.137h0c-.2309.0062-.4165.0785-.4133.1617.0032.0831.1921.1447.423.137h0c.2309-.0062.4165-.0785.4133-.1617ZM52.8956,34.2296c-.8637.1678-1.7468.3788-2.6493.6328-.3439.097-.5941.1848-.7523.2633-.0839.04-.1195.1386-.0759.2186.0016.0046.0048.0077.0065.0123l.0032.0046c.0565.0893.1695.1309.2728.1001,1.1075-.3187,2.2037-.5835,3.287-.7976,1.0849-.2094,2.2021-.3757,3.3516-.4989.1082-.0108.1937-.0908.2099-.194v-.0062c.0145-.0893-.05-.1724-.1437-.1848h-.0129c-.1776-.0123-.444.0015-.8008.0416-.9331.1047-1.8324.2417-2.6961.4096v-.0015Z" style="fill: #fceed2;"/>
  <path d="M69.2773,41.7126c-.2922-.4003-.578-.7883-.8573-1.1656-1.5547-2.1079-3.1643-4.1772-4.8256-6.2081-.0533-.0631-.071-.1863-.0565-.3695.1162.0062.2002-.0031.2535-.0262.0452-.0216.0646-.0739.042-.117-.0097-.0185-.0258-.0323-.0452-.0416l-.3536-.1463-.5828-.4558s-.0081-.0092-.0129-.0139c-.4375-.4942-.8637-.9977-1.2819-1.5074-.0678-.0847-.0872-.2217-.0597-.4142.4585.1247.9154.2279,1.3723.311.7281.1309,1.1882.2233,1.3803.2756.7217.1986,1.4368.3988,2.1472.6036.0339.0108.071-.0077.0807-.04.0081-.0262,0-.0539-.0242-.0693-.2825-.1955-.5909-.3557-.9267-.4804-1.5547-.5789-3.1352-.9331-4.7384-1.0639l-2.3167-2.8469c.2793-.0293.3955-.1078.3487-.2325-.0081-.0231-.0258-.04-.0484-.0493l-.3859-.1632c-.1017-.1463-.2438-.291-.4294-.4342-.0323-.0262-.0613-.0539-.0872-.0847-.5554-.6544-1.0671-1.3811-1.5353-2.1802.2519.0246.3988.0293.4407.0123.0565-.0216.0839-.0816.063-.1355-.0113-.0277-.0355-.0493-.0662-.0585l-.8734-.271-1.516-1.9123c-.0387-.0477-.0549-.1109-.042-.1709l.0436-.2202c2.039.3541,4.0054.9408,5.8992,1.7583h.0016s-.0145-.0123-.0226-.0169c-1.9583-1.3134-4.2637-1.92-6.4739-2.3234l-.5441-.5481c-.0129-.0139-.0242-.0293-.0339-.0462l-1.1818-2.0986,3.5679.9223c.0129.0031.0242-.0031.0274-.0154.0032-.0108-.0016-.0216-.0113-.0262-1.3448-.6467-2.7203-1.1194-4.1233-1.4165-.3842-.2171-.6248-.4342-.7217-.6544-.1082-.2402-.1631-.3634-.1679-.3695-.2793-.408-.5699-.8099-.8702-1.204-.0727-.0939-.042-.2387.0904-.4373,3.4194.8669,6.8937,2.4296,9.4945,4.7531.5667.5066,1.2867,1.3134,2.1633,2.4204,1.566,1.9816,2.9722,3.723,4.2185,5.2257,3.1966,3.857,7.3586,8.9103,12.4845,15.1599.9622,1.1717,1.474,1.7999,1.5337,1.8877.6506.9254,1.361,2.0339,1.5789,3.1379.0048.0185-.0081.037-.0274.04-.0161.0031-.0323-.0031-.0387-.0169-2.3958-3.9463-7.5136-5.7693-11.9501-6.456h0ZM64.7536,29.4904c.0226-.0216.0226-.057,0-.0785-.0032-.0031-.0081-.0062-.0129-.0092-1.8066-.9592-3.6615-1.5443-5.5634-1.7522-.0743-.0092-.1405.0416-.1485.1109-.0016.0185,0,.037.0048.0554l.0113.0323c.0371.1124.1372.1955.2583.2156,1.8808.3156,3.6761.8037,5.3858,1.4643.0113.0031.0226,0,.0291-.0062l.0355-.0323h0ZM66.6764,34.4159c.0258-.097-.0371-.1955-.1388-.2202h0l-1.516-.3603c-.1017-.0246-.205.0354-.2309.1324h0l-.0032.0123c-.0258.097.0371.1955.1388.2202h0l1.516.3603c.1017.0246.205-.0354.2309-.1324h0l.0032-.0123ZM69.9715,35.4999c.0436-.0985-.0032-.2125-.1066-.254h0l-1.5192-.6205c-.1033-.0416-.2228.0031-.2664.1016h0l-.0048.0108c-.0436.0985.0032.2125.1066.254h0l1.5192.6205c.1033.0416.2228-.0031.2664-.1016h0l.0048-.0108Z" style="fill: #fbc887;"/>
  <path d="M85.6138,17.4977c-.1211.251-.4181.4065-.8912.4681-.1518.02-.2599-.0139-.3245-.1001-.0129-.0385-.0032-.0693.0291-.0955.3503-.2756.7459-.3664,1.1866-.2725h0Z" style="fill: #211f22;"/>
  <path d="M47.4984,18.0144l.0006-.0226c.002-.0771.0691-.138.1499-.1362l.6305.0147c.0808.0019.1447.0659.1428.143l-.0006.0226c-.002.0771-.0691.138-.1499.1362l-.6305-.0147c-.0808-.0019-.1447-.0659-.1428-.143Z" style="fill: #211f22;"/>
  <path d="M48.6477,18.0483l.0042-.0338c.0145-.1156.1245-.1982.2457-.1844l1.677.1907c.1212.0138.2078.1187.1933.2343l-.0042.0338c-.0145.1156-.1245.1982-.2457.1844l-1.677-.1907c-.1212-.0138-.2078-.1187-.1933-.2343Z" style="fill: #211f22;"/>
  <path d="M42.7858,18.0891l1.2816-.1198c.0969-.0091.1831.0585.1926.1509l.0028.027c.0095.0924-.0613.1746-.1582.1837l-1.2816.1198c-.0969.0091-.1831-.0585-.1926-.1509l-.0028-.027c-.0095-.0924.0613-.1746.1582-.1837Z" style="fill: #211f22;"/>
  <path d="M37.2371,19.6949c-.0194-.02-.0194-.0523.0016-.0724.0032-.0031.0081-.0062.0129-.0077,1.6742-.8314,3.3822-1.318,5.1242-1.4612.0678-.0062.1275.0416.134.1062,0,.0169,0,.0323-.0065.0477l-.0113.0293c-.0355.1016-.1292.1755-.2422.1909-1.7242.2417-3.3758.6436-4.9547,1.204-.0097.0031-.0194,0-.0258-.0062l-.0323-.0308h0Z" style="fill: #211f22;"/>
  <path d="M51.4894,18.226c1.4029.2972,2.7784.7699,4.1233,1.4165.0113.0062.0161.02.0097.0308-.0048.0092-.0161.0139-.0258.0108l-3.5679-.9223c-.2325-.0878-.5424-.1878-.9283-.3018-.0597-.0169-.1098-.0523-.1518-.1062-.0436-.0539-.0339-.1324.0242-.1755.0291-.0216.0678-.0308.1033-.0231,0,0,.4133.0708.4133.0708Z" style="fill: #211f22;"/>
  <path d="M82.1444,18.6756c.1437.214.1082.3711-.1033.4711-.9009.4234-1.6274.7791-2.1795,1.0686-2.793,1.4673-5.142,3.3735-7.0486,5.72-.783.9977-1.4514,2.0124-2.0051,3.044-.0097.0231-.0387.0323-.0613.0231-.0226-.0092-.0339-.0339-.0258-.0554.9105-3.0055,3.3984-5.4875,5.9993-7.3351,1.6935-1.2056,3.5017-2.1833,5.4245-2.9362h0Z" style="fill: #211f22;"/>
  <path d="M85.2618,21.8335c-1.4643.5959-2.9221,1.3303-4.3703,2.2033-.31.1863-.6054.3341-.8863.4404-.0323.0139-.071,0-.0839-.0323-.0097-.0231-.0048-.0493.0129-.0677.2486-.2448.5215-.4604.8201-.6467,1.4159-.8792,2.8672-1.6228,4.3574-2.2295,1.4901-.6082,3.0577-1.0947,4.7029-1.4612.3471-.0785.6991-.117,1.0575-.1186.0355,0,.063.0293.063.0631,0,.0231-.0145.0431-.0371.0539-.2761.1201-.5909.2217-.9461.3064-1.6629.3957-3.2256.8915-4.6899,1.4889h0Z" style="fill: #211f22;"/>
  <path d="M122.705,21.7119l1.6822-1.6788c.1607-.1604.4274-.1662.5956-.0129l.0492.0448c.1682.1533.1742.4076.0135.568l-1.6822,1.6788c-.1607.1604-.4274.1662-.5956.0129l-.0492-.0448c-.1682-.1533-.1742-.4076-.0135-.568Z" style="fill: #fbc887;"/>
  <path d="M144.6441,48.0962l.5166,1.5074c-2.328.3357-4.648.6667-6.9582.9931-1.9422.2741-4.5737.6313-7.8946,1.0732-1.1156.1478-1.9858.271-2.6105.3711-.9961.1586-1.5757.2479-1.7404.2679-1.4821.1771-2.9011.4665-4.1911.602-.7507.0785-1.6564.2079-2.7171.3849-1.1091.1848-2.4669.3064-3.6309.4835-2.9399.4481-6.398.9454-10.376,1.4935-3.0917.4265-5.9896.8499-8.6921,1.2687-.8702.1355-1.9131.3541-2.6251.1678-.021-.0046-.0323-.0246-.0274-.0447h0c.0048-.0169.021-.0262.0371-.0231.8137.1247,1.8615-.0785,2.7381-.234,1.6693-.2972,2.4798-.3772,4.0087-.639.6216-.1062,1.2334-.1971,1.8356-.2741,1.2318-.1555,2.462-.3187,3.6922-.4881,1.0187-.1386,2.0358-.291,3.0497-.4573.8766-.1432,1.6532-.2556,2.3296-.3357.6748-.0801,1.453-.1878,2.3345-.3233,1.4062-.2171,2.8656-.3772,4.1669-.5928,1.3238-.2202,3.0093-.3741,4.0861-.5543.9251-.1555,1.6919-.2664,2.3022-.3341,1.4207-.1586,3.4953-.5435,5.2211-.7375,1.2883-.1432,2.1972-.3295,3.5292-.4973,1.1882-.1494,3.5308-.4727,7.0276-.97.2535-.0354.5198-.0939.7959-.1755.4924-.1432.6006-.8268.4779-1.2025-.0484-.1494-.2357-.3757-.5602-.679-1.6338-1.5181-3.7342-3.5028-6.3012-5.9525-1.5644-1.495-2.6057-2.4974-3.1223-3.0101-1.1608-1.1502-2.6348-2.5574-4.5882-4.3789-1.516-1.4119-2.9108-2.7407-4.1862-3.9863-3.0787-3.007-6.08-5.8817-9.0021-8.6254-.0291-.0277-.0291-.0724,0-.1001.0081-.0077.0194-.0139.0307-.0169l3.71-1.0763c.0452-.0139.0936-.0092.1356.0108.1421.0724.3067.2017.4956.388,8.4742,8.416,16.5932,16.4825,24.357,24.1995.3148.3141.7055.7298,1.1689,1.2472.3939.4388.7862.8561,1.1785,1.2502h-.0016Z" style="fill: #af2d2c;"/>
  <path d="M53.7884,21.4547c2.2102.4034,4.5156,1.01,6.4739,2.3234.0081.0046.0145.0108.0226.0169h-.0016c-1.8937-.8176-3.8601-1.4042-5.8992-1.7583-.6571-.1509-1.319-.2571-1.9858-.3187-2.299-.2156-4.5737-.1571-6.8258.1755-.9622.1432-1.9486.3095-2.9577.5004-.1049.02-.2131-.0154-.2841-.0908l-.0161-.0169c-.0404-.0431-.0371-.1109.0081-.1494.0113-.0108.0258-.0185.042-.0231.9283-.2787,2.052-.505,3.3709-.6805,2.7252-.3618,5.41-.3557,8.0528.0216Z" style="fill: #211f22;"/>
  <path d="M27.5118,21.2022c.2406.4542.5166.8792.8282,1.278.4698.602.7055.9038.7071.9053,2.2731,3.1117,4.1039,5.486,6.8468,9.3167,1.6064,2.2403,5.2792,7.4583,11.0185,15.6511l-5.3955,1.0762c-.0936.02-.1921-.0169-.247-.0939l-19.9512-27.5068c-.0113-.0139-.0081-.0323.0065-.0431.0048-.0031.0113-.0062.0178-.0062l6.1688-.5774h0Z" style="fill: #fceed2;"/>
  <path d="M42.1047,22.4001c.0081.0246-.0048.0508-.0291.06l-.0291.0108c-1.3916.485-2.5427.816-2.5734.7375l-.0048-.0123c-.0274-.0785,1.0752-.5358,2.4652-1.0208l.0291-.0092c.0258-.0077.0533.0046.063.0277l.0791.2063h0Z" style="fill: #211f22;"/>
  <path d="M124.7818,22.8378l2.2939-.2609c.2023-.023.3859.1148.41.3077l.0071.0565c.0241.193-.1203.3681-.3227.3911l-2.2939.2609c-.2023.023-.3859-.1148-.41-.3077l-.0071-.0565c-.0241-.193.1203-.3681.3227-.3911Z" style="fill: #fbc887;"/>
  <path d="M16.5434,22.9971l.024-.0583c.0819-.1993.3176-.2975.5265-.2194l1.3508.5049c.2089.0781.3119.3029.23.5022l-.024.0583c-.0819.1993-.3176.2975-.5265.2194l-1.3508-.5049c-.2089-.0781-.3119-.3029-.23-.5022Z" style="fill: #fbc887;"/>
  <path d="M55.8984,24.3401l.8734.271c.0565.0169.0872.0754.0678.1293-.0097.0293-.0339.0523-.0646.0647-.042.0169-.1889.0123-.4407-.0123-1.0607-.2079-1.9034-.3079-2.5298-.3002-.8799.0139-1.7355.0231-2.5653.0308-.0856,0-.155-.0647-.1566-.1463v-.0092c.0016-.0847.071-.1555.1614-.1632,1.6613-.1432,3.2127-.0985,4.6544.1355h0Z" style="fill: #211f22;"/>
  <ellipse cx="50.0628" cy="24.4546" rx=".2856" ry=".1232" transform="translate(-2.2088 5.1676) rotate(-5.7816)" style="fill: #211f22;"/>
  <path d="M43.9951,25.2899l1.2969-.3107c.0976-.0234.1966.0331.2211.1262l.0072.0272c.0245.0931-.0347.1875-.1324.2109l-1.2969.3107c-.0976.0234-.1966-.0331-.2211-.1262l-.0072-.0272c-.0245-.0931.0347-.1875.1324-.2109Z" style="fill: #211f22;"/>
  <ellipse cx="19.5765" cy="25.61" rx=".4262" ry=".7663" transform="translate(-9.9055 38.6456) rotate(-76.4581)" style="fill: #fbc887;"/>
  <path d="M77.0686,26.8514c-.0097.0062-.0226.0046-.0291-.0031l-.0048-.0046c-.1292-.1463.1485-.5743.6199-.9546l.042-.0339c.4714-.3818.959-.5728,1.0897-.428l.0032.0062c.0081.0077.0065.02-.0016.0277l-1.7194,1.3904h0Z" style="fill: #211f22;"/>
  <path d="M101.0494,25.4903c-1.4998.3249-3.0045.6436-4.514.9577-3.3144.6882-6.4513,1.8168-9.4122,3.3889-2.0891,1.1101-3.9812,2.4096-5.678,3.8985-.1566.137-.3293.2233-.5198.2602.2115-.3495.3649-.5712.4633-.6621,4.6754-4.3358,11.0476-6.8563,17.4795-7.7693.7895-.1124,1.5176-.137,2.1811-.0739h0Z" style="fill: #211f22;"/>
  <path d="M42.7488,25.9784c-.0129.0046-.0258-.0031-.0307-.0154h0v-.0046c-.0307-.0924.0791-.2048.2405-.251h0l.1727-.0477c.1631-.0462.318-.0077.3471.0862h0v.0046c.0048.0123-.0032.0246-.0161.0293h0l-.7152.1986h.0016Z" style="fill: #211f22;"/>
  <path d="M83.5505,26.9438c-.1405.3264-.4133.5066-.8185.542.2083-.2556.4811-.4357.8185-.542Z" style="fill: #211f22;"/>
  <path d="M58.3863,27.4919l.3859.1632c.0226.0092.0404.0262.0484.0493.0468.1247-.0694.2032-.3487.2325-4.7368-.5189-9.4235.0231-14.0585,1.629-.0404.0139-.0759.0185-.1098.0139-.0178,0-.0307-.0154-.0291-.0323,0-.0092.0065-.0185.0145-.0246.4746-.2941,1.0139-.5512,1.6177-.7714,2.0503-.7498,4.2637-1.1317,6.49-1.3349,1.989-.1817,3.986-.1571,5.9896.0754h0Z" style="fill: #211f22;"/>
  <path d="M75.3072,28.7699c-.8702.9654-1.5838,2.0416-2.1375,3.2318-.0065.0154-.0258.0216-.0404.0139-.0113-.0046-.0178-.0154-.0194-.0277.0355-1.0824,1.1124-2.6621,1.8275-3.5213.2632-.3372.5634-.6251.9009-.8607.0743-.0539.1808-.0416.2373.0293.0484.06.0468.1432-.0032.2017l-.7652.9331h0Z" style="fill: #211f22;"/>
  <path d="M64.7536,29.4904l-.0355.0323s-.0178.0092-.0291.0062c-1.7097-.6605-3.5049-1.1486-5.3858-1.4643-.1211-.02-.2212-.1032-.2583-.2156l-.0113-.0323c-.0226-.0677.0161-.1386.0856-.1617.0178-.0062.0387-.0077.0581-.0046,1.9018.2079,3.7568.7929,5.5634,1.7522.0274.0154.0387.0493.0226.0754-.0032.0046-.0065.0092-.0097.0123h0Z" style="fill: #211f22;"/>
  <path d="M91.7002,54.7908c-.021-.0046-.0339-.0246-.0291-.0447.0032-.0123.0129-.0231.0242-.0262,1.5418-.4496,3.5033-1.2256,5.3454-1.7583,3.8085-1.104,7.5636-1.997,11.2656-2.6775,4.895-.9007,9.1426-1.5305,12.7444-1.8923,1.8582-.1863,4.1055-.4173,6.7387-.6913,1.5983-.1647,3.0981-.2248,4.6835-.3587,1.742-.1478,4.0442-.1278,5.3212-.1678.0581,0,.1049-.0477.1049-.1032,0-.0262-.0113-.0523-.0323-.0708l-.1873-.1786c-.084-.0801-.2002-.1247-.3197-.1201-.8088.0308-1.5983.0431-2.3716.0385-.4972-.0046-1.2609.0277-2.2893.0955-5.1533.3418-10.2614.8453-15.4098,1.4858-6.4997.8068-12.993,2.057-19.257,3.8585-2.4039.6913-4.6738,1.5012-6.8081,2.4312-.0178.0077-.0355.0123-.0533.0169l-.4488.0893c-.0291.0062-.0597-.0108-.0662-.0385-.0065-.0231.0048-.0462.0274-.0585.2777-.157.4375-.2848.7749-.465,2.9625-1.5844,6.3706-2.8408,10.2242-3.7723,4.1669-1.0054,8.4096-1.7583,12.725-2.2572,4.6367-.5343,8.5323-.9223,11.6869-1.1609,2.2392-.1694,5.7926-.1894,8.7406-.6498.691-.1078,1.1479-.1062,1.9712-.1293.0242,0,.0452-.02.0436-.0447,0-.0154-.0097-.0308-.0242-.037-.3164-.1586-.6538-.2202-1.0106-.1863-.0274.0031-.0613-.0062-.0743-.0185-.0081-.0077-.0065-.0154.0016-.0216.0468-.0262.1017-.0339.1647-.0246.0597.0077.1146-.0308.1227-.0878.0016-.0139,0-.0293-.0032-.0431-.0759-.2371-.2922-.3741-.5634-.4311-.402-.0862-.7765-.1909-1.1253-.3141-.2858-.1001-.402-.2756-.3487-.5266.0113-.0508-.0129-.1032-.0597-.1293-.1211-.0693-.2696-.1078-.4488-.1139-.0307,0-.0613-.0077-.0904-.0216-.1049-.0477-.1259-.1386-.0662-.2756.0242-.057.0936-.0831.1518-.0601.0081.0031.0145.0077.0226.0123l.4746.311c.1082.0708.2405.1001.3713.0801l.1227-.02c.0549-.0092.092-.057.0823-.1093-.0032-.0216-.0145-.0416-.0323-.0554-.2018-.1647-.4181-.3803-.649-.6436-.6393-.7267-1.3368-1.4627-2.0907-2.2064-6.3754-6.2943-10.9039-10.7517-13.5839-13.3723-.0161-.0154-.0161-.0416,0-.057l.0016-.0015.0387-.0339s.0145-.0031.0194.0015c4.3154,4.2203,9.128,8.8502,14.4379,13.8912.6668.6328,1.3448,1.3026,2.0374,2.0108,1.2205,1.2518,2.4217,2.3434,3.6712,3.6121.5215.5297,1.0575,1.0732,1.6096,1.6305.0339.0339.0323.0878-.0016.1201-.0145.0139-.0339.0216-.0549.0231-.5699.0508-1.2076.1247-1.9131.2217-15.7715,2.1895-27.4358,3.8339-34.993,4.9347-3.4016.4942-6.6854,1.0208-9.8513,1.5767-.113.0185-.2276-.0185-.3035-.1001l-.2535-.2741c-.0468-.0508-.042-.1278.0113-.1709.0129-.0108.0291-.02.0452-.0246,2.144-.6467,4.3638-1.2348,6.6612-1.766,4.7771-1.104,9.7544-2.0416,14.9287-2.813,2.575-.3849,4.3106-.6421,5.2082-.7699,6.2979-.9007,12.6185-1.6213,18.9616-2.1602.0484-.0062.0823-.0477.0759-.0924-.0048-.037-.0355-.0662-.0743-.0724-.5182-.0601-1.101-.0662-1.7517-.02-4.422.3156-8.8487.7421-13.2788,1.2795-6.4836.7868-13.0931,1.8461-19.8285,3.1779-3.9473.7806-7.3053,1.6198-10.0725,2.5143-.6361.2048-1.1866.3988-1.8259.3064h.0016Z" style="fill: #fbc887;"/>
  <path d="M81.3242,28.3972c.0904.1278.071.2479-.0565.3588-1.3109,1.1348-2.3522,2.0771-3.1223,2.8269-.0339.0323-.071.0585-.113.0785-.2212.1047-.3035.0724-.2502-.0955,1.0187-1.2379,2.1989-2.2942,3.5421-3.1687Z" style="fill: #211f22;"/>
  <path d="M82.5447,37.309l-2.0407,2.4882c-.0274.0323-.0759.037-.1098.0108-.0226-.0185-.0339-.0462-.0258-.0739.0048-.0185.0145-.0416.0274-.0708.4633-.99,1.1075-1.8846,1.9325-2.6806.4763-.5019.988-.9346,1.5353-1.2964.042-.0277.0807-.0585.1179-.0924.4908-.4634.9751-.8669,1.4514-1.2102,2.4394-1.7553,5.2841-3.1749,8.5339-4.2573,2.1876-.7283,4.3283-1.1671,6.4255-1.3164.0178-.0015.0323.0092.0355.0262l.0081.0416c0,.0092-.0048.0169-.0145.0185-1.545.251-3.3387.6959-5.3809,1.338-4.1927,1.3195-7.8349,3.1949-10.9265,5.6261-.2276.1801-.7507.6621-1.5692,1.4489h0Z" style="fill: #211f22;"/>
  <path d="M118.8115,29.5027l13.3966,13.2799c.0323.0323.0307.0847-.0032.1155-.0194.0169-.0452.0246-.071.0216l-3.2902-.4404c-2.3474-2.579-4.6932-5.0656-7.0389-7.4599-.8492-.8669-1.5305-1.5921-2.0439-2.1787-1.256-1.4304-1.9163-2.1787-1.9809-2.2433-.021-.0216-.0581-.0878-.1114-.1971-.0581-.1186-.0048-.2571.1179-.3126.0097-.0046.0194-.0077.0291-.0108.423-.1293.7556-.3203.9961-.5743h0Z" style="fill: #fceed2;"/>
  <path d="M60.7886,30.7838c1.6031.1309,3.1837.485,4.7384,1.0639.3358.1247.6442.2848.9267.4804.0291.02.0371.057.0161.0862-.0161.0231-.0452.0323-.0727.0231-.7104-.2048-1.4255-.4049-2.1472-.6036-.1921-.0523-.6522-.1447-1.3803-.2756-.4569-.0831-.9138-.1863-1.3723-.311-1.4804-.1786-2.8737-.2617-4.1798-.2479-3.4307.037-6.8791.5789-10.3486,1.6259-.1211.037-.2535,0-.3342-.0955l-.0178-.02c-.0517-.0616-.042-.1524.0226-.2017.0129-.0108.0274-.0185.0436-.0231,3.0287-1.0301,6.2511-1.6028,9.6656-1.7198,1.5531-.0539,3.0335.02,4.4397.2186ZM61.1986,31.0317c.0081-.0293.0016-.0585-.0194-.0908-.0097-.0139-.0291-.0185-.0436-.0092-.0032.0031-.0065.0062-.0097.0092-.0226.0323-.0291.0616-.0194.0878.0097.0246.0371.0385.0613.0308.0145-.0046.0258-.0154.0307-.0277h0Z" style="fill: #211f22;"/>
  <path d="M21.3737,30.9054c.5634.9053,1.1317,1.766,1.7081,2.5821,7.2408,10.2683,11.8241,16.8012,13.7502,19.5989.7765,1.1271,1.5531,2.2649,2.3296,3.4135.2583.3803.5796.8314.9638,1.3503.0936.1263.2002.2202.3197.2818.1146.0601.2486.1201.402.1832-1.8598.4758-3.7035.93-5.5327,1.3657-.8476.2017-1.5547.1047-2.1214-.2925-.218-.1524-.6635-.7098-1.3351-1.6706-4.409-6.3174-9.2184-13.1752-14.425-20.5766-.5764-.8207-1.6596-2.4019-3.2499-4.7469-.1275-.154-.1953-.3002-.2066-.4404-.0032-.0447.0307-.0831.0775-.0893,0,0,7.3199-.9592,7.3199-.9592Z" style="fill: #fceed2;"/>
  <path d="M61.1986,31.0317c-.0081.0246-.0339.037-.0597.0277-.0145-.0046-.0258-.0169-.0323-.0308-.0097-.0262-.0032-.0554.0194-.0878.0081-.0139.0274-.0185.0436-.0092.0048.0031.0081.0062.0097.0092.021.0323.0274.0616.0194.0908h0Z" style="fill: #5e7185;"/>
  <path d="M40.847,58.3152c5.7555-1.3996,9.9659-2.3927,12.633-2.9778,3.1094-.6821,6.3528-1.3365,9.7302-1.9616,3.2531-.602,6.3609-.9946,9.3202-1.1748.515-.0323,1.1027.0062,1.763.1155,0,0,.0016,0,.0016.0015s0,.0015-.0016.0015h0c-.7652-.0062-1.3384.0092-1.721.0477-2.6396.2694-5.2598.6636-7.8591,1.1794-7.7428,1.5382-15.4421,3.2611-23.0994,5.1657-1.6919.3972-3.3839.8006-5.0774,1.2102-.9864.2387-1.9034.4142-2.7526.5281-.1437.02-.2535.1324-.2648.271l-.0291.4126c-.0097.1278.092.2371.2276.2464h.0194c.2728-.0046.4924-.0293.6555-.0708,2.5653-.659,5.1371-1.2918,7.7186-1.8984,6.6612-1.6121,13.3579-3.0856,20.0885-4.4189,3.2725-.6482,6.2463-1.1117,8.9214-1.3904,2.3312-.2433,4.8352-.1755,7.0809.5327.5424.1709.783.3942.7217.6713-2.7704-.8422-5.6796-.9053-8.5291-.5712-2.2199.2602-4.4526.6051-6.6967,1.0347-9.1264,1.7506-18.1802,3.7846-27.15,5.8971-.586.1386-1.0591.2556-1.4175.3495-.8896.2356-1.3739.3511-1.4514.348-.134-.0062-.2519.0862-.2696.214l-.1566,1.1763c-.0129.1016.0613.194.1679.2063.0274.0031.0565,0,.084-.0077.331-.1047.7975-.1355,1.114-.2048,10.5504-2.2772,21.3558-4.3127,32.4179-6.1095,2.1133-.3434,4.091-.602,5.9314-.7791,2.0536-.1971,3.7633-.2587,5.1275-.1848.0646.0031.113.0554.1098.1155v.0015l-.0097.1247c-.0081.1216-.1146.2171-.2422.2171-4.0506.0108-7.7784.5281-11.9969,1.2102-9.4073,1.5228-19.1263,3.2873-29.1535,5.2966-1.3755.2756-2.3603.4896-2.956.6421-.1889.0493-.3665.134-.5295.254-.0404.0308-.0726.0708-.0904.1186l-.557,1.4396-.6054.1062c-.0436.0077-.084-.0185-.092-.0601v-.0077l-.0291-.2587c.063.0893.1211.137.1744.1432.0597.0062.1082-.0447.1453-.154.1308-.388.2276-.8207.2906-1.2995.0065-.0508-.0113-.1032-.0484-.1417-.2987-.3033-.6135-.6836-.9461-1.144-3.0368-4.188-5.7571-7.9325-8.161-11.2321-3.8068-5.2304-7.2149-10.1343-10.5326-14.9751-.339-.4958-.5925-.8899-.7604-1.1825-.0662-.1155-.2179-.1586-.339-.097-.0097.0046-.0194.0108-.0274.0169l-.0404.0277c-.1469.1016-.1937.2895-.1098.4434.2535.4665.452.8037.599,1.0116,3.7132,5.2843,7.7025,11.0612,10.5068,15.1383.0016.0015.0016.0046,0,.0062-.0194.0231-.0387.0339-.0597.0323-.0178,0-.0355-.0092-.0452-.0231-.1501-.1894-.4407-.582-.8686-1.1794-.4117-.5758-1.4304-1.9647-3.0561-4.1649-1.122-1.5181-2.7558-3.7584-4.8998-6.7193-.98-1.3519-1.8873-2.6714-2.7219-3.9601-.0775-.1201-.1873-.1786-.331-.174-.1033.0031-.1857.0847-.1824.1817,0,.0277.0081.0539.021.0785.0242.0447.0662.1078.1259.1925-.155.0123-.247-.1093-.2761-.3634-.0048-.0493.0242-.0955.0726-.1124.72-.251,1.0962-.6297,1.4611-1.2826.1792-.3218.5166-.4927.825-.6128.381-.1463.5392-.6328.8201-.9485-.2147.4742-.2179.8099.0743,1.2764.3019.4773.6522,1.0085,1.0478,1.5951,1.4578,2.1494,3.2644,4.7115,5.4181,7.6862,4.4236,6.1095,8.387,11.5539,11.892,16.3347.3084.4203.5747.7637.8008,1.0301.0339.037.092.0431.1324.0108.0145-.0108.0242-.0262.0291-.0431l.1275-.4373c.0258-.0893-.0016-.1832-.0726-.2464-.2664-.2371-.536-.5497-.8104-.9361-6.1526-8.6778-12.2923-17.3632-18.4159-26.0579l.3826-.699c1.5902,2.345,2.6735,3.9262,3.2499,4.7469,5.2066,7.4013,10.016,14.2592,14.425,20.5766.6716.9608,1.1172,1.5181,1.3351,1.6706.5667.3972,1.2738.4942,2.1214.2925,1.8292-.4357,3.6728-.8899,5.5327-1.3657h-.0016ZM32.531,62.9836c.0113-.3511.1275-.6498.3519-.8946.071-.077.0743-.1909.0081-.271-1.0946-1.3611-2.0035-2.6652-3.0319-4.0556-4.0151-5.4259-8.0076-10.8872-11.9775-16.3824-.5893-.816-1.1947-1.6783-1.813-2.5852-.5521-.8099-1.1463-1.6783-1.7807-2.6067-.4343-.6344-.8799-1.2672-1.3368-1.8969-.184-.2525-.3891-.3249-.6748-.1894-.0743.0354-.1098.1186-.0823.194.0856.2294.1873.4327.3051.6128,3.1804,4.8146,8.098,11.8326,14.7511,21.0539,2.0423,2.83,3.5905,4.9594,4.6464,6.3882.2373.3218.4133.5451.5279.6698.0226.0231.0613.0262.0872.0031.0113-.0108.0194-.0246.0194-.04h0Z" style="fill: #211f22;"/>
  <path d="M13.5775,32.8809c.0791.0493.1534.1201.2228.2125,6.1236,8.6947,12.2633,17.3801,18.4159,26.0579.2745.3865.5441.699.8104.9361.071.0631.0985.157.0726.2464l-.1275.4373c-.0145.0477-.0662.0739-.1162.0601-.0178-.0046-.0339-.0154-.0452-.0277-.226-.2664-.4924-.6097-.8008-1.0301-3.5049-4.7808-7.4684-10.2252-11.892-16.3347-2.1537-2.9747-3.9602-5.5368-5.4181-7.6862-.3955-.5866-.7459-1.1178-1.0478-1.5951-.2922-.4665-.289-.8022-.0743-1.2764h0Z" style="fill: #fbc887;"/>
  <path d="M93.079,34.6515c-1.1575.465-2.3151.99-3.4759,1.5751-.1082.0554-.2422.0323-.3261-.0539l-.0048-.0046c-.0727-.0754-.0678-.194.0113-.2617.0032-.0031.0065-.0062.0113-.0092.1582-.1201.4181-.2694.7782-.4496.9444-.4711,1.8792-.8915,2.801-1.261.9235-.368,1.8921-.7083,2.9076-1.0208.3875-.1186.6813-.1894.8815-.2125.1065-.0123.2034.06.2163.1617v.0185c.0065.117-.071.2248-.1873.2602-1.2512.3772-2.4572.7976-3.6147,1.2579h.0016Z" style="fill: #211f22;"/>
  <path d="M63.4346,33.6384l.3536.1463c.0468.02.0662.0724.0468.1155-.0081.0185-.0242.0339-.0436.0431-.0533.0231-.1372.0323-.2535.0262l-3.4049-.1186c-.1001-.0031-.1776-.0831-.1744-.1786v-.0062l.0048-.0708c.0048-.0631.0581-.1139.1243-.1186,1.0736-.0831,2.1892-.0293,3.3467.1617h0Z" style="fill: #1d1e2d;"/>
  <ellipse cx="59.1974" cy="33.6817" rx=".4181" ry=".1494" transform="translate(-.9161 1.6637) rotate(-1.5978)" style="fill: #211f22;"/>
  <path d="M52.8956,34.2296c.8637-.1678,1.763-.3049,2.6961-.4096.3568-.04.6232-.0539.8008-.0416.0936.0062.1663.0831.1598.174v.0185c-.0178.1032-.1033.1832-.2115.194-1.1495.1232-2.2667.2895-3.3516.4989-1.0833.214-2.1795.4788-3.287.7976-.1033.0308-.2163-.0108-.2728-.1001l-.0032-.0046c-.0484-.077-.0242-.1771.0565-.2248.0048-.0031.0081-.0046.0129-.0062.1582-.0785.4085-.1663.7523-.2633.9025-.254,1.7856-.465,2.6493-.6328h-.0016Z" style="fill: #211f22;"/>
  <path d="M64.7864,33.9861l.0071-.0272c.0243-.0931.1233-.1498.2209-.1266l1.5324.3644c.0977.0232.1571.1175.1327.2107l-.0071.0272c-.0243.0931-.1233.1498-.2209.1266l-1.5324-.3644c-.0977-.0232-.1571-.1175-.1327-.2107Z" style="fill: #211f22;"/>
  <path d="M32.531,62.9836c0,.0323-.0307.057-.0646.0554-.0161,0-.0323-.0077-.042-.0185-.1146-.1247-.2906-.348-.5279-.6698-1.0558-1.4288-2.6041-3.5582-4.6464-6.3882-6.6531-9.2213-11.5707-16.2392-14.7511-21.0539-.1179-.1801-.2196-.3834-.3051-.6128-.0274-.0754.0081-.1586.0823-.194.2858-.1355.4908-.0631.6748.1894.4569.6297.9025,1.2626,1.3368,1.8969.6345.9284,1.2286,1.7968,1.7807,2.6067.6183.9069,1.2237,1.7691,1.813,2.5852,3.9699,5.4952,7.9624,10.9565,11.9775,16.3824,1.0284,1.3904,1.9373,2.6945,3.0319,4.0556.0662.0801.063.194-.0081.271-.2244.2448-.3406.5435-.3519.8946h0Z" style="fill: #fbc887;"/>
  <path d="M80.2522,34.6684c.0113.0077.0129.0216.0048.0323h0l-.2825.3741c-.9299,1.2333-1.7404,2.1972-1.8179,2.1587l-.1082-.0739c-.071-.0462.628-1.0886,1.5612-2.3296l.0032-.0031.2825-.3741c.0081-.0108.0226-.0139.0339-.0062h0l.3229.2217h0Z" style="fill: #211f22;"/>
  <path d="M68.0699,34.7466l.0124-.0275c.0422-.094.1564-.1376.255-.0973l1.5365.628c.0986.0403.1442.1492.102.2432l-.0124.0275c-.0422.094-.1564.1376-.255.0973l-1.5365-.628c-.0986-.0403-.1442-.1492-.102-.2432Z" style="fill: #211f22;"/>
  <path d="M31.9418,65.3747l-21.267-29.1743c-.0597-.0847-.1017-.1478-.1259-.1925-.0484-.0862-.0129-.194.0791-.2402.0258-.0123.0533-.02.0823-.02.1437-.0046.2535.0539.331.174.8347,1.2887,1.742,2.6083,2.7219,3.9601,2.144,2.9608,3.7778,5.2011,4.8998,6.7193,1.6257,2.2002,2.6445,3.589,3.0561,4.1649.4278.5974.7184.99.8686,1.1794.0097.0139.0274.0216.0452.0231.021.0015.0404-.0092.0597-.0323.0016-.0015.0016-.0046,0-.0062-2.8043-4.0771-6.7936-9.8541-10.5068-15.1383-.1469-.2079-.3455-.5451-.599-1.0116-.084-.154-.0371-.3418.1098-.4434l.0404-.0277c.1114-.077.268-.0523.3487.0539.0065.0077.0113.0169.0178.0262.1679.2925.4214.6867.7604,1.1825,3.3177,4.8408,6.7258,9.7448,10.5326,14.9751,2.4039,3.2996,5.1242,7.0441,8.161,11.2321.3326.4604.6474.8407.9461,1.144.0371.0385.0549.0908.0484.1417-.063.4788-.1598.9115-.2906,1.2995-.0371.1093-.0856.1601-.1453.154-.0533-.0062-.1114-.0539-.1744-.1432h0Z" style="fill: #fbc887;"/>
  <path d="M117.1793,36.7455c.0032-.04.0387-.0708.0807-.0677h0l1.0171.0447c.4424.02.7959.1078.7911.1955h0l-.0032.0708c-.0065.0878-.3665.1432-.8072.1232l-1.0171-.0462c-.042-.0015-.0743-.0354-.0727-.0754h0l.0113-.2464v.0015Z" style="fill: #211f22;"/>
  <path d="M116.8968,36.9888c.0016.0339-.0258.0631-.0613.0647h0l-.2502.0139c-.2147.0108-.3907-.0323-.3939-.0955l-.0048-.0831c-.0032-.0631.1663-.1247.381-.1355l.2502-.0123c.0355-.0015.0646.0231.0678.057l.0113.1909h0Z" style="fill: #211f22;"/>
  <path d="M36.2556,66.2939c-.0048.0693.021.1201.0743.1494l-8.0528,1.4057c-.2777-.4034-.5263-.8083-.7443-1.2164-.3358-.6267-.5667-1.0408-.6942-1.241-1.4352-2.248-2.9011-4.4544-4.3961-6.6176-.98-1.4181-2.144-2.8192-3.2402-4.3373-1.3158-1.8199-2.5314-3.4551-3.6486-4.907-1.3319-1.7306-2.5702-3.3504-3.7116-4.8608-1.8857-2.4928-3.7972-4.9825-5.7345-7.4691l3.2741-.3849c.1437-.0169.2858.0431.3697.1555,4.0958,5.5214,6.1752,8.299,8.253,11.1921.7152.9993,1.7129,2.2526,2.5137,3.4181.9235,1.3426,2.2086,2.9839,3.2273,4.402,1.3723,1.9046,2.9237,4.0263,4.656,6.3651.8653,1.1686,1.9115,2.7514,2.9189,4.0864.2777.368.67.5096,1.1785.425,1.248-.2079,2.5008-.3972,3.7568-.5651h0Z" style="fill: #af2d2c;"/>
  <path d="M85.2844,51.4881c.1873-1.3873.7652-2.6483,1.7323-3.7861,1.8502-2.1771,4.162-3.84,6.7661-5.1241,5.544-2.733,11.5287-4.3219,17.7427-5.3181,1.0203-.1632,2.0762-.2848,3.1691-.3664.0727-.0062.1372.0462.1421.1155.0016.0216-.0016.0431-.0113.0631l-.0032.0077c-.0597.1216-.1792.2063-.318.2263-3.0852.4157-6.3786,1.0501-9.8836,1.9015-4.2137,1.0254-8.1416,2.5036-11.7822,4.4328-2.6719,1.4165-5.3648,3.4443-6.8291,6.0418-.339.6005-.4666,1.1656-.6861,1.8138-.0016.0108-.0129.0169-.0242.0139s-.0178-.0123-.0145-.0231h0v.0015Z" style="fill: #211f22;"/>
  <ellipse cx="87.4532" cy="37.1237" rx=".171" ry=".0707" transform="translate(-3.8702 63.3205) rotate(-39.0071)" style="fill: #211f22;"/>
  <path d="M6.1075,37.1997c1.9373,2.4866,3.8488,4.9763,5.7345,7.4691,1.1414,1.5104,2.3797,3.1302,3.7116,4.8608,1.1172,1.4519,2.3329,3.0871,3.6486,4.907,1.0962,1.5181,2.2602,2.9193,3.2402,4.3373,1.495,2.1633,2.9609,4.3697,4.3961,6.6176.1275.2002.3584.6143.6942,1.241.218.408.4666.813.7443,1.2164-.1631.0385-.2922.0477-.3842.0308-.0678-.0123-.1292-.0508-.1711-.1047L4.6174,37.4399c-.0291-.0354-.021-.0878.0178-.1139.0129-.0092.0291-.0154.0452-.0169l1.4272-.1093h0Z" style="fill: #c1201f;"/>
  <path d="M2.7705,37.5077l.825-.0523c.1405-.0092.2745.0508.3568.1586l23.4949,30.8787c.0323.0431.0872.0662.1421.0601.205-.0231.5166-.0693.9315-.1401,9.9304-1.6983,20.7132-3.489,32.3485-5.3751,5.4261-.8792,10.376-1.6613,14.8512-2.3434,1.0381-.1586,1.6822-.2925,1.9293-.4003,1.0655-.4635,1.6112-1.5443,1.9696-2.5836.0274-.0847.0743-.1555.1372-.2125.1211-.1139.3293-.1093.4795.0108.6926.5512-.0565,1.9539-.5037,2.5174-.7556.9546-1.4788,1.2887-2.7284,1.495-2.1504.3572-3.4856.5589-5.481.9007-6.0574,1.0362-10.8878,1.7891-16.3155,2.7145-6.0009,1.0254-11.5319,1.9062-17.6684,2.9778-2.7575.4819-5.4665.9392-8.1287,1.3734-.6765.1109-1.5563.3341-2.3393.3988-.092.0077-.1824-.0308-.2357-.1016L2.6736,37.7017c-.042-.0554-.0274-.1324.0307-.1724.0194-.0139.042-.0216.0662-.0216Z" style="fill: #c86334;"/>
  <ellipse cx="86.0231" cy="38.1657" rx=".8939" ry=".2149" transform="translate(-5.3357 60.7526) rotate(-37.8123)" style="fill: #211f22;"/>
  <path d="M119.0068,39.3553c-5.3712.2972-10.6504,1.0716-15.8344,2.3234-4.2928,1.0378-8.4371,2.7037-12.0356,5.1488-1.5224,1.0331-2.8269,2.2295-3.9166,3.586-.0129.0154-.0355.0185-.0517.0062,0,0-.0032-.0031-.0048-.0031l-.0355-.0339s-.0032-.0077-.0016-.0108c.9654-1.4427,2.0988-2.6498,3.3984-3.6245,3.8666-2.8993,8.5452-4.6607,13.3433-5.7847,3.4953-.8176,6.9082-1.375,10.2372-1.6721,1.6661-.1478,3.3354-.234,4.9063-.0015.0194,0,.0339.0154.0323.0339,0,.0185-.0178.0323-.0371.0323h0Z" style="fill: #211f22;"/>
  <path d="M64.9135,42.29l-.4488.9161c-2.1391-.1509-4.4542-.1324-6.9453.0554-2.5008.1878-5.0661.4773-7.696.8684-.0274.0046-.0549-.0077-.0694-.0293l-.6296-.8669c-.0081-.0123-.0048-.0277.0081-.037.0032-.0015.0065-.0031.0097-.0031,3.2111-.4881,6.4739-.8145,9.79-.9762,1.9971-.097,3.9909-.0739,5.9815.0724h0Z" style="fill: #fceed2;"/>
  <path d="M93.9621,50.2348c1.8453-1.4027,3.9118-2.5159,6.2027-3.3396,5.9896-2.1525,12.5829-2.6529,18.9228-2.6467,3.8214.0031,7.8252.1062,12.0098.3095.607.0293,1.2399.1032,1.8986.2202.0452.0092.0775.0493.0727.0924v.0031c-.0048.0462-.0468.0801-.0936.0785-1.8211-.0447-3.0787-.0677-3.7746-.0662-7.1875.0031-14.375.5343-21.5641,1.5921-2.3345.3434-4.4139.7452-6.2398,1.2025-2.4717.6205-4.9402,1.4858-7.4054,2.5975-.0145.0046-.0307-.0015-.0355-.0154-.0032-.0092,0-.02.0065-.0277Z" style="fill: #fbc887;"/>
  <ellipse cx="133.2754" cy="44.9492" rx=".0416" ry=".1709" transform="translate(65.1283 167.9889) rotate(-79.657)" style="fill: #4c596b;"/>
  <path d="M135.4483,45.9237c-1.7388.1109-2.7704.1724-3.0933.1848-7.2488.2818-14.5332.9592-21.8547,2.0355-2.0261.2972-4.6932.7991-6.4238,1.1763-3.7955.8253-7.3796,1.9031-10.7215,3.5151-.5796.2802-1.2689.6682-2.0649,1.1625-.4246.2633-.733.6251-1.1301.9592-.092.0785-.1679.1724-.2228.2787l-.0969.1863c-.021.0416-.0646.0677-.113.0708l-.9913.0647c-.021,0-.0404-.0139-.042-.0339,0-.0062,0-.0139.0048-.02.6329-1.1779,1.5563-2.2895,2.7688-3.3319.7652-.6575,1.8066-1.2749,3.1256-1.8492,5.0435-2.2002,10.4244-3.0779,16.1234-3.7553,5.967-.7113,12.0486-1.1348,18.2432-1.2718,1.3125-.0277,3.1675.154,4.7513-.1632.0291-.0062.0597-.0062.0872.0015l.473.1201c.1501.04.289.1124.4052.2125.1727.1494.4343.271.7814.3664.0258.0062.042.0323.0355.057-.0048.02-.0226.0339-.0452.0339h0Z" style="fill: #fbc887;"/>
  <path d="M144.6441,48.0962c1.0381.8361,2.0294,1.7476,2.9706,2.733.0258.0277.0242.0708-.0048.0955-.0081.0077-.0194.0123-.0307.0154-.36.0878-.7378.1601-1.1333.2171-9.7254,1.4211-16.5754,2.4112-20.5502,2.967-6.8694.9623-11.4609,1.6044-13.7728,1.9231-6.9728.9639-12.3198,1.7214-16.0394,2.2711-.9461.1401-1.7581.2833-2.5379.0662-1.1285-.3126-2.3587-1.281-2.5105-2.4758-.0065-.0508.0194-.1016.0662-.1278.2341-.1309.4085-.154.5941.077.4924.6128,1.3497,1.3657,2.215,1.5351.3423.0662.9283.0385,1.7581-.0816,10.6585-1.5536,24.3134-3.5013,48.8707-6.981.3035-.0431.6054-.1001.9073-.1709.0985-.0231.1582-.1186.134-.2125-.0032-.0139-.0081-.0262-.0145-.0385-.0856-.1617-.2212-.2633-.4052-.3049l-.5166-1.5074h0Z" style="fill: #c86334;"/>
  <path d="M75.9126,50.4827c.0113.0077.0145.0231.0065.0339-.0065.0092-.0194.0123-.0307.0092-1.2415-.4203-2.5863-.7283-4.0361-.9269-2.42-.331-4.9789-.4342-7.6734-.3079-3.5308.1647-7.3877.5605-11.5707,1.1902-.1453.0216-.2809-.0708-.3084-.2079l-.0032-.0092c-.0258-.1324.0662-.2602.205-.2848h.0065c2.7591-.4188,5.5827-.756,8.4742-1.0116,2.4975-.2217,4.7529-.2371,6.9905-.1894,2.2295.0477,4.6334.368,6.8323,1.1301.4294.1494.7991.3403,1.1075.5758v-.0015Z" style="fill: #211f22;"/>
  <path d="M47.3096,48.8968c-.0339.2063-.0339.3372,0,.3942.3164.5035.6619.9592,1.0349,1.3673l-4.1427.6513c-.0759.0108-.1534.0108-.2293-.0015l-1.135-.1955c-.0856-.0139-.1647-.0477-.2325-.0985-.3536-.2587-.6361-.5589-.8476-.8992-.0145-.0216-.0065-.0508.0178-.0631.0048-.0031.0097-.0046.0145-.0062l5.5182-1.1486h.0016Z" style="fill: #fceed2;"/>
  <path d="M78.9236,54.8062c-.1501.562-.0597,1.1101.2712,1.6444-.3342.2448-.5441.5358-.6296.873-.0888.3495-.1889.6297-.3019.8422-.0226.0431-.0646.0724-.1146.0816-15.9781,2.5066-30.7954,4.9193-44.452,7.2381-.4149.0708-.7572.1078-1.0268.1093l.557-1.4396c.0178-.0477.05-.0878.0904-.1186.1631-.1201.3406-.2048.5295-.254.5957-.1524,1.5805-.3664,2.956-.6421,10.0273-2.0093,19.7462-3.7738,29.1535-5.2966,4.2185-.6821,7.9463-1.1994,11.9969-1.2102.1275,0,.2341-.0955.2422-.2171l.0097-.1247c.0048-.0601-.0436-.1124-.1082-.117h-.0016c-1.3642-.0739-3.0739-.0123-5.1275.1848-1.8405.1771-3.8181.4357-5.9314.7791-11.0621,1.7968-21.8676,3.8323-32.4179,6.1095-.3164.0693-.783.1001-1.114.2048-.1017.0308-.2115-.0216-.2438-.1186-.0081-.0262-.0113-.0523-.0081-.0801l.1566-1.1763c.0178-.1278.1356-.2202.2696-.214.0775.0031.5618-.1124,1.4514-.348.3584-.0939.8314-.2109,1.4175-.3495,8.9698-2.1125,18.0236-4.1464,27.15-5.8971,2.2441-.4296,4.4768-.7745,6.6967-1.0347,2.8495-.3341,5.7587-.271,8.5291.5712Z" style="fill: #fceed2;"/>
  <path d="M81.4647,59.0943l.0807-1.1656c0-.0231.0194-.0416.042-.0447l8.4338-1.3195c.021-.0031.042.0062.0517.0246l.6377,1.0532c.0129.0231.0048.0523-.0194.0647-.0048.0031-.0113.0046-.0161.0062l-9.1523,1.4319c-.0274.0046-.0533-.0139-.0581-.0385v-.0123h0Z" style="fill: #c86334;"/>
  <path d="M41.6139,58.7124l.4972.699c-2.5815.6066-5.1533,1.2395-7.7186,1.8984-.1631.0416-.3826.0662-.6555.0708-.134.0015-.2454-.1001-.247-.2279v-.0185l.0291-.4126c.0113-.1386.1211-.251.2648-.271.8492-.1139,1.7662-.2895,2.7526-.5281,1.6935-.4096,3.3855-.813,5.0774-1.2102Z" style="fill: #fceed2;"/>
  <path d="M36.3298,66.4433c-.0533-.0293-.0791-.0801-.0743-.1494,2.1488-.3495,4.2831-.7237,6.4513-1.0347,1.2189-.174,2.2279-.3911,3.6632-.6297,7.4878-1.2487,13.2771-2.1956,17.3697-2.8408,2.3587-.3711,3.7972-.6005,4.3186-.6867,1.4772-.2433,2.2441-.3695,2.3006-.3803.8201-.1463,1.587-.2694,2.299-.3726,1.2544-.1832,2.6025-.408,4.0442-.6744.2922-.0539.5538-.1201.783-.1955.0129-.0046.0258,0,.0307.0123h0c.0048.0123,0,.0246-.0113.0308-.2987.1432-.5941.2371-.8863.2848-1.0478.1694-2.0277.3695-3.0432.505-.6894.0924-1.3529.1955-1.9906.311-1.4013.254-3.04.4434-4.3606.6959-1.0236.1955-2.0875.3049-3.1514.505-1.3093.2464-2.8656.4496-4.6157.7498-1.6451.2818-5.2631.8792-10.8506,1.7907-1.2867.2094-3.0481.5096-5.2873.8992-1.7614.3079-3.5243.6005-5.2873.8792-.5699.0893-1.1382.1894-1.7016.3002h0Z" style="fill: #af2d2c;"/>
</svg>