<?xml version="1.0" encoding="UTF-8"?>
<svg id="Capa_1" xmlns="http://www.w3.org/2000/svg" width="150" height="75" version="1.1" viewBox="0 0 150 75">
  <!-- Generator: Adobe Illustrator 29.4.0, SVG Export Plug-In . SVG Version: 2.1.0 Build 152)  -->
  <path d="M91.9608,10.2751l3.1479-2.0471c.1746-.1136.4145-.069.5358.0995l.0355.0493c.1213.1685.0781.3972-.0965.5108l-3.1479,2.0471c-.1746.1136-.4145.069-.5358-.0995l-.0355-.0493c-.1213-.1685-.0781-.3972.0965-.5108Z" style="fill: #fbc887;"/>
  <ellipse cx="88.2911" cy="10.7435" rx=".651" ry=".5546" transform="translate(36.541 83.0807) rotate(-61.3578)" style="fill: #fbc887;"/>
  <path d="M145.6137,67.3465c-4.0796-.0129-8.1124-.0436-12.0967-.0918-13.0994-.1566-26.0544-.3177-38.8682-.4835-1.943-.0251-3.1718.053-4.5218-.9218-.1074-.0772-.2366-.1188-.3686-.1204l-11.4147-.087c-.1177.0007-.2305.0441-.3113.1236-1.1177,1.0905-2.3217,1.2845-3.876,1.3018-16.4325.1816-32.8921.412-49.3789.6927-.2176.0025-.3867.0295-.5105.0807-.7674.0413-1.3229-.2027-1.6644-.7348-.1477-.3575-.3194-.7187-.515-1.0836-4.1879-7.7696-8.3742-15.5389-12.5557-23.3076-2.0076-3.6862-4.0104-7.3717-6.0082-11.0579-.5511-1.019.0262-1.7702,1.1299-1.693,1.6727.1161,3.8521.2507,6.5348.4047.0566.004.1062-.032.1175-.0848.1974-.9153,1.0658-.8056,1.7772-.7153.0752.01.1447-.0386.1591-.1111.2015-1.1125.2277-1.6567,1.6141-1.4521.0798.0122.157-.0336.1815-.1077.1702-.5035.3332-.9272.4903-1.2707.1818-.3974.5277-.5874,1.0381-.5715.6224.0206,3.8129.1014,9.5733.241.7599.0183,1.4478.0489,2.0616.0931.0372.0026.0674-.0239.0695-.0594.0016-.0107-.0015-.022-.0065-.0322-1.6943-3.2581-2.9717-5.7296-3.8296-7.411-.1971-.3869-.2428-.7179-.1338-.9925.2602-.6533.7115-.6994,1.4387-.6596,2.8185.153,5.7507.3313,8.7952.533.0226.0019.0416-.0154.0414-.0357.0009-.0061-.0013-.0127-.0036-.0192-.9829-1.8781-1.4985-2.8621-1.5482-2.9538-.4091-.7621.0062-1.5645.9381-1.5386.0586.0012.1711.0028.336.0032,3.557.0123,7.0038.0513,10.3422.1158,6.0317.1173,11.3769,1.9006,16.0358,5.3497,2.0552,1.5206,3.7383,3.2956,5.0014,5.4767.5867,1.0105,1.1046,1.9263,1.5539,2.7459.0141.0255.0469.0352.075.0224.0089-.0049.0165-.0115.021-.0201,2.275-4.0923,5.468-7.2792,9.5825-9.5616,3.8398-2.1313,8.3588-3.3019,12.8108-3.7693,2.6876-.2829,5.0235-.4764,7.0057-.5792.9666-.0513,1.3484.5695,1.8836,1.3618,3.9197,5.7892,6.8987,10.171,8.9381,13.1486.0722.1045.1894.1708.3171.1794,2.0537.1449,3.4636.2488,4.2261.3142.4706.041.8288.2298,1.0731.5647.5713.7807,1.2787,1.7598,2.121,2.9356.0427.0626.1194.0946.1959.0861,1.5925-.1921,3.2087-.39,4.8455-.594.5429-.0679.9899.1268,1.3408.5871,1.0119,1.3264,2.412,3.1999,4.2001,5.6219,10.8652,14.7057,16.5864,22.4672,20.9795,28.2152.5618.7356.4439,1.3453-.3522,1.8293-.1275.0755-.4214.1068-.8814.0924h0ZM71.2298,23.3407c-1.2823,1.4188-2.3445,2.9898-3.1872,4.7158-.0475.0971-.0422.2116.0136.3058,4.3997,7.3893,8.3696,14.0444,11.9098,19.9655,1.6848,2.819,2.4898,5.528,1.7152,8.7817-.0948.3951-.7661.7892-1.0849.312-.1235-.1856-.1899-.3593-.2006-.5245-.0697-1.1011-.3056-2.0562-.7075-2.8655-.0249-.0505-.0359-.1067-.0307-.162.003-.0198-.0042-.0474-.0164-.0851-.2473-.7202-.7916-1.5388-1.6292-2.4569-.614-.672-1.1395-1.1762-1.579-1.5161-3.0854-2.3762-7.1219-3.8109-10.9805-4.6265-1.9455-.4461-3.9128-.7709-5.9015-.9775-3.3023-.3424-6.5769-.514-9.8249-.5179-.0148.0008-.0265.0131-.0254.0273-.0005.003.0007.0063.0018.0096l.4911.9522c.0111.0235.0364.0398.0642.0394,2.6588.0117,5.2384.1142,7.7388.3072,2.4908.1916,4.782.524,6.8736.9971,1.2023.2543,2.3908.5455,3.5667.8767,2.0905.5867,4.1816,1.4149,6.2753,2.4818.5137.261,1.2628.7231,2.2443,1.3844,1.1889.8006,2.0546,1.8336,2.5987,3.1008.0118.0189.0046.0443-.0148.0538s-.0463.0038-.0565-.0149c-2.6448-3.5144-7.2705-5.4101-11.5515-6.5598-5.6536-1.5189-11.2838-1.9221-17.1775-1.97-.0456-.0008-.082.0342-.0824.0793-.0007.0046.0002.0094.0013.0127l.0376.202c.0072.0385.0059.0788-.0015.1166-.0823.4095-.3295.5835-.7403.5252-.1439-.0205-.2695-.1067-.3352-.2321l-14.3117-27.0051c-.058-.1117-.1757-.1858-.3066-.195l-3.3383-.2031-6.1851-.3636c-.0176-.0027-.0342.0103-.0352.0273-.0009.0061.0013.0127.0038.0177l15.555,30.2112c.0426.0844.1343.1359.2299.1302l5.4962-.2467c4.435-.1959,9.458-.3281,14.0012-.0261,3.3745.2227,6.2023.603,8.48,1.1405,2.8644.6741,5.3812,1.6657,7.6352,3.307,1.4931,1.0855,2.9594,2.8787,2.8017,4.7394-.0022.0355-.0337.0603-.0709.0577-.0306-.0031-.0565-.0258-.0619-.0547-.2979-1.6376-1.1151-2.9871-2.4534-4.0489-2.8365-2.2524-6.8123-3.3694-10.393-3.9305-2.8072-.4395-5.7342-.6948-8.7789-.7673-3.6241-.0864-7.2397-.0252-10.8497.1803l-5.6285.2996c-.0281.0019-.0478.0238-.0451.0492-.0007.0046.0018.0096.0027.0144.1575.3684.3913.7079.7016,1.0172.0593.0605.1324.106.2149.1326l1.0922.3652c.0731.0237.1497.0354.2264.0362l4.1935-.0163,2.155.0592c.0488.0012.0921.0281.1136.0688l.0383.0697c.0315.0609.0071.135-.0562.1643-.0176.0082-.0363.0131-.0559.0132l-6.5705.0945s-.0018.0013-.0034.001c-.1433.0076-.328.0619-.5573.1623-.9071.3984-1.9247-.6454-2.2916-1.3636-3.8591-7.5385-7.7394-15.0772-11.6422-22.6177-.0503-.0981-.1534-.1606-.2659-.1622l-4.5334-.0996-7.3807-.1605c-.0472-.001-.0866.0319-.0901.0765-.0101.1402.0348.2951.1376.4666l-.4841.633c-.0546-.1018-.1173-.1831-.188-.2438-.3255.2695-.5556.7264-.9543.8133-.323.072-.6824.1898-.9083.4808-.4595.59-.8887.9075-1.6385,1.0465-.0504.0094-.0862.0507-.0888.1001-.0098.2555.0628.3897.2178.401l16.603,32.0588-.0105.2601c-.0031.0416.0305.0779.0741.0814l.008.0012.6145-.0133c.2667.0393.6106.0546,1.0315.0475,13.8502-.2237,28.862-.3643,45.0354-.422.0509-.0016.0968-.0241.1257-.0633.1439-.1929.2853-.4547.426-.7868.1356-.3203.3872-.5762.7546-.7676.5556-.1407,1.05-.0198,1.4857.3663.0964.0849.1986.1644.3035.2365.0237.0161.0503.0233.0782.0229l7.1661-.0593c.1063-.0008.2055-.0511.2671-.1335.1616-.2229.4139-.5799.7567-1.0694.3594-.5119,1.1565-1.1842,1.7086-1.5685,1.2488-.8694,2.5097-1.6373,3.7829-2.3036,3.4246-1.7884,7.5695-2.6705,11.5874-2.8944,3.6093-.2009,7.4247-.0415,11.4495.4786,5.1362.6639,10.3585,1.5654,15.6669,2.7043.1058.024.2118-.0392.2338-.1402.0051-.0226.007-.0457.0025-.0697l-.0036-.0192c-.0266-.1676-.1541-.3055-.3245-.355-4.0622-1.1816-8.0169-2.0633-11.8639-2.645-3.2614-.4919-6.7357-.7564-10.4215-.7915-3.955-.0375-7.6287.3389-11.0183,1.1311-3.0947.7221-6.1341,1.9044-8.6905,3.6872-1.3041.9108-2.3284,1.9891-3.073,3.2348-.0087.0142-.0245.0212-.0402.0172l-.0458-.0101c-.0381-.0074-.0635-.044-.0545-.0816.0007-.0046.0014-.0091.0035-.0119.5643-1.2204,1.3948-2.2599,2.4944-3.1148,1.4819-1.1546,3.1396-2.0922,4.9732-2.8128,3.0904-1.2165,6.2881-1.993,9.5931-2.3293,6.8013-.6947,13.7939-.1123,20.4675,1.2093.7595.1491,2.3285.4939,4.7075,1.0313l3.1856.9336c.0453.0132.0931-.0107.1062-.0538.0069-.0239.0027-.0494-.0121-.0704l-11.2307-15.1557-8.2955-11.3305c-.1013-.1386-.2609-.2269-.4348-.2426l-3.4441-.3019c-.0144-.0022-.0274.0083-.0279.0222-.0009.0061.0013.0127.004.0162l14.3136,21.1298c.1745.2573.0995.5978-.1672.761,0,0-.0016-.0002-.0034.001l-.0377.0223c-.2469.1616-.5856.1019-.7598-.1367-.0041-.0053-.0079-.0121-.012-.0174l-3.2892-4.9262c-.0597-.0901-.1605-.1461-.2689-.1533-5.852-.3842-11.6536-.1267-17.4052.774-2.4498.3832-4.8296.9485-7.1376,1.6961-4.3786,1.4164-9.884,4.3875-10.4002,9.3553-.0283.2698-.2787.4651-.5635.437l-.0287-.0044c-.2932-.0262-.5187-.2602-.5262-.5417-.0077-.3018.0237-.5914.0951-.8655.65-2.5048,2.0182-4.2174,4.0135-5.8556,1.8292-1.3958,3.9153-2.4967,6.2585-3.3028,1.9983-.6876,4.0267-1.2304,6.0823-1.6304,6.2287-1.2108,12.5601-1.5039,18.8405-1.2083.0552.0022.1007-.0391.1023-.0918.0014-.02-.0053-.0398-.016-.0554-1.248-1.8003-2.0631-2.9829-2.4424-3.5456-2.5953-3.8479-8.5339-12.5992-17.8154-26.2568-.1146-.1687-.2545-.2898-.4212-.3636-.026-.0118-.0547-.0162-.0843-.0145-1.161.0838-2.8701.216-5.124.3971-3.5172.282-7.0858.9206-10.3667,2.1017-3.9882,1.4372-7.3453,3.6908-10.0733,6.7636l-.0013-.0018ZM69.8533,45.2752c4.2813,1.3507,9.0639,3.9278,10.8344,8.1914.007.0182.0268.0275.0455.0226.0155-.0054.0258-.0194.0231-.0338-.0482-1.1242-.5825-2.3276-1.0854-3.3409-.0458-.0958-.4565-.7943-1.2301-2.0982-4.1202-6.9539-7.4688-12.5793-10.0444-16.8759-1.0044-1.6742-2.1306-3.6085-3.3784-5.8044-.6989-1.227-1.2884-2.1336-1.7718-2.7201-2.219-2.6905-5.4165-4.7615-8.6651-6.1362-2.474-1.0473-5.0595-1.6865-7.7578-1.9208-1.5829-.1366-3.3278-.2077-5.2365-.212-2.1306-.0056-4.598-.0301-7.4024-.0719-.0406-.0015-.0749.0306-.0746.0711,0,.0109.0031.0223.0081.0324l14.9257,28.1677c.0378.0728.1141.1187.1989.1193,5.1981.0363,10.2681.3007,15.375,1.2515,1.4785.2748,3.2234.7291,5.2354,1.3598l.0002-.0015ZM143.6662,64.5683c.1756.069.2943.19.3544.3627.0332.0923-.018.192-.1141.2224-.0137.0041-.0272.0067-.042.0076-.3091.0243-.6162.0349-.9227.0315-24.801-.2798-38.5934-.4227-49.3642-.5014-.8384-.007-1.4219-.0683-1.7502-.1856-.8297-.2985-1.563-1.1725-1.957-1.8529-.1485-.2564-.3244-.26-.5756-.1661-.0502.0188-.0835.0651-.0848.1163-.031,1.204,1.0384,2.3476,2.1065,2.8275.7379.3327,1.5623.3142,2.5186.3189,3.76.02,9.1601.0811,16.1984.1844,2.3335.0351,6.9692.0959,13.9052.1851,4.0131.0526,10.9341.1115,20.7625.1797.3996.0036.784-.0107,1.1531-.0429.0397-.0033.0676-.0364.0634-.0728-.0016-.0111-.0049-.021-.0115-.0314-.7811-1.1166-1.6229-2.1677-2.5224-3.1514-.3281-.449-.6527-.9209-.9756-1.4143-.3796-.5815-.7029-1.0516-.9665-1.4098-6.5055-8.8039-13.3091-18.007-20.4108-27.6094-.1585-.2128-.3017-.3655-.4311-.4586-.0385-.0261-.0856-.038-.1324-.0312l-3.8302.5019c-.0399.0048-.0667.0412-.0612.0794.0016.0111.0063.0228.0147.0319,2.4729,3.1547,5.0041,6.4507,7.5919,9.8893,1.072,1.4244,2.2496,2.9491,3.5342,4.5743,1.6551,2.0963,2.8989,3.7106,3.8721,5.0233.433.5851,1.3105,1.7336,2.6304,3.4483,2.1663,2.8102,3.9419,5.0901,5.3269,6.8382.2748.349.4256.6011.4509.756.0644.3899-.1461,1.0493-.6545,1.1163-.2852.0388-.5574.0563-.8133.053-3.5319-.038-5.8964-.0732-7.0935-.1056-1.342-.0358-2.2686.0107-3.5638-.0429-1.7353-.0696-3.8442-.0033-5.2726-.0618-.6135-.0255-1.3883-.032-2.3262-.0184-1.0917.015-2.781-.0881-4.123-.071-1.3189.016-2.7857-.0468-4.2086-.0452-.8918.0004-1.6773-.0109-2.3565-.034-.6808-.0233-1.4654-.0298-2.3536-.0211-1.0274.0108-2.0558.0074-3.0838-.0099-1.2417-.0189-2.4824-.0439-3.7236-.0768-.6069-.0151-1.2255-.018-1.8559-.0071-1.5509.0272-2.3641-.0164-4.0592.0245-.8901.0209-1.9565.0631-2.742-.1834-.0155-.0055-.0329.0012-.04.0157h0c-.0081.0206,0,.0421.0201.0498.6755.292,1.7395.2338,2.6202.2317,2.7348-.0046,5.6634.0157,8.784.0624,4.0151.0607,7.5087.0929,10.4825.0952,1.1774.0013,2.5379.0867,3.6622.072,1.0753-.0144,1.9901-.005,2.7441.031,1.2956.0614,2.7421-.0098,4.2339.0397.1658.0052.7522.0047,1.7609-.0012.6327-.0043,1.5115.0057,2.6366.0286,3.3495.0662,6.0048.1117,7.9661.1349,2.333.0273,4.6764.0514,7.0284.0722h0ZM90.0368,61.5987c.618.1881,1.1915.0798,1.8513-.0263,2.8707-.4651,6.3171-.786,10.3371-.9598,6.8594-.2963,13.5532-.3424,20.0811-.1381,4.4603.1398,8.9006.3887,13.3194.7464.6501.0529,1.2253.1472,1.7284.2851.0469.0134.0723.0609.0592.1041-.012.0355-.0467.0598-.0857.0585-6.3516-.428-12.7083-.6731-19.07-.7366-.9066-.0096-2.6611-.0183-5.2647-.0278-5.2314-.0212-10.2933.1518-15.1826.5195-2.3513.1771-4.6346.4223-6.8518.7368-.0685.0098-.1154.0711-.1042.1367.0022.0175.0097.0326.0188.048l.209.3093c.0626.0922.1703.146.2849.1449,3.2136-.0699,6.5392-.0931,9.9765-.0664,7.6367.0564,19.4156.1976,35.3367.4221.7121.011,1.3536.0345,1.9246.0706.0486.0028.0913-.0312.0935-.0776.0014-.02-.004-.038-.016-.0554-.4613-.6346-.9088-1.253-1.3441-1.8555-1.043-1.4433-2.065-2.7043-3.0818-4.1265-.5773-.805-1.1461-1.5697-1.7094-2.2962-4.4851-5.7871-8.541-11.0924-12.1674-15.9177-.0041-.0053-.0118-.008-.0189-.0045l-.0434.0276c-.0197.011-.0252.0366-.0134.0556l.0014.0018c2.2521,2.9962,6.0533,8.0881,11.4018,15.2754.6326.8493,1.2105,1.6824,1.7324,2.4976.1883.2952.3695.5411.544.7345.0364.0398.0305.0997-.0105.1324-.0185.0143-.0409.0218-.0639.0229l-.1243.0012c-.1323,0-.2587-.049-.3549-.1354l-.4221-.3793c-.0457-.0428-.1194-.0417-.1635.0014-.0057.0054-.0117.0122-.016.0194-.0798.1264-.0728.2194.0237.2825.0266.0181.056.0288.0861.035.1762.0332.3172.0938.4264.1806.0423.033.0583.0884.0395.1369-.0907.24-.0024.4311.2649.5733.326.1746.6804.3348,1.0647.4809.2595.0974.4526.2656.4916.5115.0076.0572-.033.1087-.0928.1151-.0151.0024-.031,0-.0452-.0038-.0608-.0187-.1165-.0178-.1665-.0006-.0174.0067-.0101.0234.014.0364.015.0085.0339.013.0517.0142.3578.0206.682.1325.9708.3372.0207.0141.0247.0412.0103.0608-.0101.0125-.0258.0194-.0418.017-.8174-.1019-1.2687-.1726-1.9681-.1707-2.9837.0086-6.4991-.5098-8.7382-.6816-3.1544-.2419-7.0638-.4484-11.7279-.6225-4.3412-.1605-8.649-.0589-12.9201.3039-3.9503.3371-7.5093,1.0628-10.6776,2.1802-.3608.127-.5382.2291-.8364.3423-.0292.0095-.0437.04-.0331.0666.0079.023.032.0361.0567.0352l.4572-.0203c.0183-.0019.0365-.0038.0552-.0087,2.2505-.596,4.6169-1.0527,7.0978-1.372,6.4646-.8319,13.0723-1.0843,19.6193-.8974,5.1861.1466,10.3115.4226,15.4571.8653,1.0268.0888,1.7865.1725,2.2773.2524.7637.1217,1.5459.2291,2.3501.3212.1188.0135.2269.0753.2978.1671l.1581.2049c.0354.0459.0259.1083-.0217.1415-.0219.0153-.0491.0221-.0781.0192-1.2683-.1538-3.5409-.5223-5.2852-.64-1.5874-.1077-3.079-.2755-4.6838-.3547-2.6443-.1279-4.9006-.24-6.7656-.3373-3.6151-.1879-7.909-.2087-12.884-.0598-3.7623.112-7.6094.426-11.5411.9404-1.9015.2476-3.958.7176-5.5501.9285-.0203.0047-.0345.0227-.0296.0438.0029.0129.0113.022.0236.027l.0016.0002ZM8.0958,31.2469l-1.4273-.1081c-.0486-.0028-.0897.0314-.0917.0763-.0023.0152.002.0299.0097.0435l18.2432,33.4846c.0333.0596.0881.107.1533.1294.0884.0307.2175.0411.3845.0278l8.1728-.1699c.5737-.0242,1.1506-.0371,1.7275-.0391,1.7848-.0085,3.5718-.0306,5.3594-.0682,2.2724-.0459,4.0589-.0759,5.3625-.088,5.6612-.0547,9.3279-.0973,10.9967-.1266,1.7753-.0317,3.3445.0031,4.676-.0421,1.082-.0367,2.1502.0164,3.1915-.0219,1.3436-.0496,2.9921.0114,4.4157-.0275.6478-.0176,1.3193-.019,2.0147-.0059,1.0243.0199,2.0233-.0296,3.0846-.0383.2961-.0029.6023-.051.9192-.1473.0121-.0044.0188-.0158.0156-.0272h0c-.0029-.0129-.0148-.021-.0282-.0183h0c-.238.0399-.5066.0657-.8036.0747-1.4654.0449-2.832.063-4.0997.0541-.7194-.0059-1.496-.0003-2.3289.0201-.0575.0021-.8346.0107-2.3316.0275-.5285.0062-1.9851.0151-4.3728.0247-4.1431.0178-10.0091.077-17.5996.1772-1.4548.0185-2.4851.0803-3.7163.0677-2.1903-.021-4.3566.0256-6.5336.0456-1.267-.0243-2.534-.0269-3.799-.0104-.5155.0067-.8818-.1928-1.1006-.5986-.7936-1.4721-1.588-3.1951-2.2663-4.4813-1.3581-2.5742-2.5703-4.9064-3.6383-6.9969-.7922-1.556-1.8139-3.373-2.5233-4.84-.615-1.2734-1.4114-2.6634-1.967-3.7594-1.6156-3.1744-3.2503-6.2349-6.4627-12.313-.066-.1238-.1973-.2047-.3419-.2097l-3.2946-.1154h0ZM4.7506,31.0459c-.0709-.0062-.1324.0436-.1379.1113-.0035.0228.0028.0456.0128.0658l19.0238,35.3721c.0419.0781.1255.1298.2176.1361.7838.0547,1.6873-.0327,2.3727-.0399,2.6973-.026,5.4443-.0677,8.2429-.1264,6.228-.1299,11.8286-.1627,17.9156-.2674,5.5053-.0926,10.394-.1052,16.5384-.2121,2.0242-.0356,3.3745-.0328,5.5542-.0602,1.2664-.0147,2.0319-.2354,2.9234-1.0646.5274-.4893,1.4803-1.7623.8792-2.4121-.1302-.1415-.3354-.1776-.4723-.0833-.0709.0468-.1279.1097-.1678.1892-.5117.973-1.2148,1.9588-2.3382,2.2555-.2605.0691-.9175.104-1.9676.1035-4.5269-.0036-9.5381.0199-15.0348.0671-11.7867.1021-22.7164.239-32.7894.4137-.4209.0072-.7358.0056-.942-.0026-.0552-.0022-.1059-.0334-.1313-.0809L5.9027,31.3299c-.0651-.119-.1884-.1987-.3287-.2108l-.8234-.0732h0ZM92.9848,57.4849c2.6052-.7255,5.1762-1.2069,7.7134-1.4459,1.8741-.1755,3.9904-.2577,6.35-.2436,7.2664.0433,14.4514.6068,21.5564,1.6924.6878.1054,1.9277.3172,3.721.6371.046.0086.0927-.0185.1045-.0634l.0005-.003c.0113-.0419-.0145-.0863-.0578-.1023-.6334-.2154-1.2477-.3843-1.8433-.5052-4.1056-.8347-8.0476-1.5431-11.8244-2.1249-6.2658-.9663-12.8589-1.4703-19.1054-.2498-2.3892.4673-4.6005,1.2546-6.6369,2.3616-.0128.0089-.0151.0242-.0056.0365.0068.0088.0177.0121.0278.0105ZM132.7841,58.2232c.0083-.0221-.0589-.0635-.147-.0957-.0884-.0307-.1673-.0381-.1753-.0175h0c-.0083.0221.0589.0635.147.0957.0884.0307.1673.0381.1753.0175h0ZM134.6465,59.3715c-.3286-.1469-.5687-.3068-.7169-.4806-.0997-.1165-.226-.2091-.3684-.2714l-.4494-.1904c-.026-.0118-.0563-.0164-.0859-.0147-1.6135.0736-3.4196-.3869-4.7212-.5583-6.1439-.8028-12.2195-1.3053-18.2253-1.5059-5.7358-.1935-11.1876-.141-16.5062,1.27-1.3908.3679-2.5136.8205-3.3696,1.3545-1.3563.8467-2.4375,1.8057-3.2415,2.8741-.0124.0168-.0093.0391.0085.0511.0059.004.0121.0065.02.0077l.9896.0862c.0483.0043.0954-.015.1224-.0529l.124-.1695c.0704-.0967.1596-.178.2624-.2417.4432-.2701.8028-.5811,1.2624-.777.8616-.368,1.6018-.6471,2.2171-.8363,3.5475-1.0873,7.2534-1.6098,11.1302-1.8507,1.7678-.1108,4.4802-.203,6.5279-.1898,7.4.0451,14.703.4787,21.9108,1.2981.321.0367,1.3501.1321,3.0856.2859.0271.0042.0498-.0157.0519-.0403.003-.0198-.0104-.039-.0286-.048h0ZM79.2675,64.3023c-.0056.0256.0101.0514.037.0571l.0128.002,9.2635-.0292c.0278-.0004.0491-.0221.0499-.0484.0009-.0061-.0016-.0111-.004-.0162l-.4708-1.1376c-.0068-.0197-.0261-.032-.0473-.0322l-8.5364.0269c-.0228-.0004-.0432.0152-.0483.0378l-.2563,1.1399h0Z" style="fill: #1d1e2d;"/>
  <path d="M86.2896,50.5477c-.3172-.6265-.6817-1.2431-1.095-1.8501-.2533-.3722-.5457-.8624-.6122-1.2169-.0984-.5198-.2393-1.1348-.4244-1.8455-.057-.2143-.133-.6668-.2315-1.3564-.0633-.4505-.1612-.8986-.2918-1.3469.9282-.6537,1.5183-1.0509,1.7706-1.1945,3.4242-1.9349,7.3084-3.237,11.6526-3.9063,2.116-.3253,3.9563-.4935,5.5215-.5076.0098,0,.0174-.0067.0172-.0161l-.0017-.0423c-.0006-.0172-.0134-.0301-.0311-.0313-2.0956-.17-4.2781-.0605-6.5507.3281-3.3763.5777-6.4031,1.5501-9.0803,2.9156-.5228.2673-1.0626.5927-1.6179.9764-.0418.0279-.0848.0524-.1305.0735-.5958.2748-1.1672.6249-1.714,1.0489l-1.3082-2.4092c-.0229-.0424-.03-.0918-.0196-.1385.0734-.3299.2046-.5356.3935-.6173.1939-.0077.3777-.0667.5533-.1785,1.9027-1.2147,3.9698-2.2127,6.2029-2.9936,3.1648-1.1055,6.4364-1.7459,9.8169-1.9242,1.5397-.0818,3.0752-.169,4.607-.263.5686-.6839.6261-1.3574.1724-2.0204-.4108-.6019-.9515-.9854-1.6217-1.1519-.7252-.1812-1.2809-.2851-1.6688-.3118-1.957-.1363-4.0118-.082-6.1661.1627-.3258.0373-1.0986.1666-2.318.3863-2.0659.3719-4.037.9453-5.9149,1.7215-.3496.0539-.6466.1907-.8912.4118l-1.5296.6878c-1.4602.661-2.7867,1.5263-3.9811,2.5957-.0538-.0005-.1015-.0093-.1459-.0286-.0399-.017-.074-.0503-.1039-.1-.588-1.0122-1.0142-2.0153-1.7731-3.0101l.8977-.8064c.0695-.0594.0738-.1616.0122-.2287-.0534-.0565-.1394-.0712-.2086-.0351-.3692.1818-.7096.4209-1.0208.7143l-1.7167-2.8239c2.2401-2.0307,4.8507-3.559,7.8337-4.5864.5896-.2025,1.3616-.444,2.3162-.7261.2242-.0669.2831-.2168.1735-.4501l2.3504-.4592c.0508.095.1526.1449.3056.1481.4769.0108.7941-.098.9518-.3277.0077-.1141.0831-.1586.2265-.1351.1543.0268.2572.0378.3085.0333,1.3404-.103,2.4594-.1683,3.3568-.1944.8039-.0232,1.4299-.2077,1.7328-.8732.4587-1.0107-.184-2.0501-1.1761-2.4933-.3088-.1377-.743-.2353-1.3044-.2918-1.4944-.1495-2.9624-.0879-4.4044.1881-.36-.2514-.8228-.1946-1.3899.1702l-.2746.0545c-.1455-.0846-.3149-.109-.5066-.0729-4.2246.7842-8.0044,2.4496-11.3394,4.9963-.1461.1116-.2182.2516-.2163.4201.0005.0608.0532.111.1169.1114.018-.0004.0365-.0038.0525-.0122l.3503-.1753c.0377.1164-.0452.2096-.2468.2784-.174.059-.3469.1213-.5186.1869-.047.0193-.0916.0436-.131.0765l-.6882.569c-.0972.0801-.2425.0688-.3263-.0235-.0084-.0091-.0166-.0197-.0245-.0318l-2.0362-3.2544c2.728-3.0727,6.0851-5.3263,10.0733-6.7636,3.2809-1.1811,6.8495-1.8197,10.3667-2.1017,2.2539-.1811,3.963-.3134,5.124-.3971.0297-.0017.0584.0027.0843.0145.1667.0738.3066.195.4212.3636,9.2815,13.6577,15.2201,22.4089,17.8154,26.2568.3792.5628,1.1944,1.7453,2.4424,3.5456.0309.0437.0184.1041-.0285.1327-.0181.0113-.0384.0159-.0578.0145-6.2804-.2956-12.6118-.0025-18.8405,1.2083-2.0555.4-4.0839.9428-6.0823,1.6304-2.3431.8061-4.4293,1.907-6.2585,3.3028h0ZM88.5663,27.695c-1.5648.374-3.1121.8892-4.6448,1.5438-.3234.1389-.6258.3107-.9086.515-.0293.0204-.0335.0587-.0133.0868.0166.0197.0428.0299.0684.0229.2938-.0625.6082-.1638.9428-.301,1.5637-.6436,3.1159-1.1488,4.6536-1.516,1.5379-.3687,3.1577-.6221,4.8613-.7614.3639-.0299.6905-.0827.9816-.1596.0343-.0103.0526-.0449.0427-.076-.0065-.0213-.0268-.0384-.0505-.0436-.3543-.0543-.7082-.068-1.0632-.043-1.6816.1131-3.3049.3566-4.8699.732ZM79.8056,31.7655l1.9101-1.1139c.0091-.0064.0126-.0183.0058-.0271l-.0023-.0066c-.1073-.1629-.6182-.048-1.142.258l-.0466.0271c-.5236.3045-.8629.6856-.7574.8497l.0041.0053c.0052.0086.0177.0121.0283.0074h0ZM94.3176,41.4099c-.9672.2256-1.9548.4996-2.9597.8222-.3831.1235-.6627.2318-.8373.3265-.0925.0497-.1246.1632-.0713.2523.0027.0035.0052.0086.0079.0121l.0041.0053c.0699.0979.1989.1411.3142.1027,1.236-.4025,2.4597-.7462,3.6744-1.0305,1.2139-.2797,2.4697-.5126,3.7636-.6959.1203-.0174.2132-.1122.2245-.2288l.0009-.0061c.0092-.1029-.0698-.1945-.1761-.2046l-.0128-.002c-.2014-.0075-.5025.018-.9035.0765-1.0511.1552-2.0601.3448-3.0287.5687l-.0002.0015ZM88.6613,43.4047c-.0211-.0328-.1049-.0192-.1858.0292s-.1286.1143-.1075.1471.1049.0192.1858-.0292.1286-.1143.1075-.1471ZM87.723,43.8684c-.0628-.1015-.4626.0132-.8931.2541h0c-.4305.2409-.7296.5191-.6665.6191h0c.0628.1015.4626-.0132.8931-.2541h0c.4305-.2409.7296-.5191.6665-.6191h0Z" style="fill: #fceed2;"/>
  <path d="M34.4808,8.2401l.0699-.0091c.2388-.0312.4615.1289.4976.3575l.2417,1.5331c.036.2287-.1283.4393-.367.4706l-.0699.0091c-.2388.0312-.4615-.1289-.4976-.3575l-.2417-1.5331c-.0361-.2287.1283-.4393.367-.4706Z" style="fill: #fbc887;"/>
  <path d="M30.9233,10.7332c-.1183-.0275-.192-.1431-.165-.2558l.0352-.1441c.0733-.2972.7654-.3905,1.5471-.2053l.5376.126c.7817.1852,1.3557.5753,1.2837.8743l-.0352.1441c-.0271.1127-.147.1815-.2653.1541l-2.9382-.6932h0Z" style="fill: #fbc887;"/>
  <path d="M107.4528,22.0526l1.1027-.2612c.2176-.0516.4403.0759.4973.2846l.0167.0611c.057.2088-.0731.4198-.2908.4714l-1.1027.2612c-.2176.0516-.4403-.0759-.4973-.2846l-.0167-.0611c-.057-.2088.0731-.4198.2908-.4714Z" style="fill: #fbc887;"/>
  <path d="M89.6689,23.814c-.4214-.1596-.8262-.1297-1.2142.0897-.0359.021-.0501.05-.0432.09l-2.3504.4592c-2.0146.453-3.95,1.1456-5.8066,2.0808-2.8507,1.4324-5.6858,3.509-7.041,6.3419-.0115.0216-.0027.0494.0201.0607.0212.011.0483.0043.0612-.0155.7036-.9358,1.518-1.8376,2.443-2.7052l1.7167,2.8239c-.8371.7409-2.1407,2.1393-2.3398,3.2039-.0026.0167.0097.0326.0273.0353.0128.002.0233-.0027.0297-.0126.7276-1.0926,1.596-2.0483,2.6023-2.8708.7589.9948,1.1851,1.9978,1.7731,3.0101.0299.0498.064.083.1039.1.0444.0193.0921.0281.1459.0286-.0781.1578-.0016.2023.2329.1323.0445-.0134.0852-.0337.1236-.0605.8748-.6245,2.0468-1.3983,3.5145-2.3214.1429-.0903.1802-.206.1102-.3461l1.5296-.6878c.4059.0264.7029-.1104.8912-.4118,1.878-.7761,3.849-1.3495,5.9149-1.7215,1.2194-.2197,1.9922-.349,2.318-.3863,2.1542-.2447,4.209-.299,6.1661-.1627.3879.0267.9436.1306,1.6688.3118.6703.1666,1.2109.55,1.6217,1.1519.4537.663.3963,1.3365-.1724,2.0204-.6463-.1629-1.3698-.2488-2.1671-.2573-6.496-.0717-13.1764,1.4546-18.4546,5.0323-.1111.0749-.2963.2708-.5583.5843-.1889.0817-.3201.2874-.3935.6173-.0104.0467-.0033.0961.0196.1385l1.3082,2.4092c-.936.6619-1.7082,1.4486-2.3162,2.357-.0172.027-.0303.0483-.0379.0659-.0156.0381.0038.0816.0442.0956.0278.0105.0579.0058.0803-.0126l2.394-2.1504c.1306.4484.2285.8964.2918,1.3469.0985.6896.1745,1.142.2315,1.3564.1851.7106.3261,1.3257.4244,1.8455.0666.3544.3589.8447.6122,1.2169.4133.607.7778,1.2236,1.095,1.8501-1.9954,1.6382-3.3635,3.3508-4.0135,5.8556-.0714.2741-.1027.5637-.0951.8655.0075.2815.233.5155.526.5432l.0287.0044c.285.0265.5354-.1687.5637-.4386.5162-4.9678,6.0216-7.9389,10.4002-9.3553,2.308-.7476,4.6878-1.3129,7.1376-1.6961,5.7516-.9007,11.5533-1.1582,17.4052-.774.1083.0073.2092.0632.2689.1533l3.2892,4.9262c.1634.2447.5.3181.7537.1653.0055-.0038.0126-.0074.0181-.0113l.0377-.0223c.2681-.1614.3447-.5017.1718-.7587,0,0,.0002-.0015-.0011-.0033l-14.3136-21.1298c-.0082-.0106-.0056-.0273.0054-.035.0055-.0038.0121-.0044.0169-.0036l3.4441.3019c.174.0158.3336.1041.4348.2426l8.2955,11.3305c-.2763.2147-.6339.353-1.0716.4168-.1337.02-.224.1401-.2012.2682.0018.0096.0036.0192.007.0291.0361.1161.0628.1872.0803.2117.054.0737.5934.9134,1.6183,2.5175.4186.6576.9822,1.4776,1.6903,2.4631,1.9561,2.7219,3.8982,5.5351,5.8279,8.4399-2.379-.5374-3.948-.8822-4.7075-1.0313-6.6736-1.3216-13.6663-1.904-20.4675-1.2093-3.305.3363-6.5027,1.1127-9.5931,2.3293-1.8335.7206-3.4912,1.6583-4.9732,2.8128-1.0995.8549-1.9301,1.8943-2.4944,3.1148-.0152.0351.0016.075.0385.09.0048.0007.0093.003.0125.0035l.0458.0101c.0157.004.0315-.003.0402-.0172.7446-1.2458,1.7689-2.324,3.073-3.2348,2.5565-1.7828,5.5959-2.9651,8.6905-3.6872,3.3896-.7922,7.0633-1.1686,11.0183-1.1311,3.6858.0352,7.1601.2996,10.4215.7915,3.8471.5817,7.8017,1.4633,11.8639,2.645.1705.0495.2979.1874.3245.355l.0036.0192c.017.1023-.0565.1985-.1633.2133-.0235.0042-.0493.0018-.073-.0034-5.3084-1.1389-10.5307-2.0404-15.6669-2.7043-4.0247-.5201-7.8402-.6795-11.4495-.4786-4.0179.2239-8.1627,1.106-11.5874,2.8944-1.2732.6663-2.5341,1.4342-3.7829,2.3036-.5521.3843-1.3493,1.0565-1.7086,1.5685-.3429.4895-.5952.8465-.7567,1.0694-.0616.0825-.1608.1327-.2671.1335l-7.1661.0593c-.0278.0004-.0543-.0083-.0782-.0229-.1049-.0721-.2071-.1517-.3035-.2365-.4357-.3861-.9301-.507-1.4857-.3663-.2462-.5782-.2526-1.1337-.019-1.6665.1026-.2647-.1013-.5218-.6117-.7729-2.1125-1.0402-4.5774-1.4864-6.9186-1.5991-2.6865-.1297-5.6962-.122-9.029.0231-6.8549.2986-13.6975.7408-20.526,1.3254l-.3856-.7663c7.8574-.7229,15.7288-1.2598,23.6153-1.6075,2.6474-.1162,5.2971-.1089,7.9471.0245.384.0199.9529.0915,1.7081.215h0s.0018-.0013.0021-.0028.0002-.0015-.0014-.0018c-.6361-.2081-1.2112-.3351-1.7251-.3812-2.9524-.2701-6.0838-.3527-9.3906-.2504-3.4331.1064-6.7382.262-9.9151.4652-2.7249.1744-7.0372.5183-12.9383,1.0301-.142-.0856-.2654-.1653-.3696-.242-.1088-.079-.1999-.1879-.2733-.3269-.3012-.5711-.5505-1.0657-.7482-1.4807-.5936-1.253-1.1889-2.4953-1.7858-3.727-1.4801-3.0571-5.0211-10.2089-10.6232-21.4553-.4461-.8939-.8775-1.8308-1.2973-2.811l4.5334.0996c.1124.0017.2156.0642.2659.1622,3.9029,7.5406,7.7832,15.0792,11.6422,22.6177.3669.7182,1.3845,1.762,2.2916,1.3636.2293-.1004.414-.1546.5573-.1623,0,0,.0016.0002.0034-.001l6.5705-.0945c.0718.0001.1279-.0567.1268-.1239-.0004-.0188-.0058-.0367-.0146-.0536l-.0383-.0697c-.0215-.0407-.0648-.0676-.1136-.0688l-2.155-.0592c-.3068-.4598-.5793-.9626-.8158-1.5082-.0265-.0617-.0067-.1911.0597-.3896,3.61-.2054,7.2257-.2667,10.8497-.1803,3.0448.0724,5.9717.3278,8.7789.7673,3.5807.5611,7.5565,1.6781,10.393,3.9305,1.3383,1.0618,2.1556,2.4113,2.4534,4.0489.006.0352.0415.0593.0783.0541.0301-.0047.0532-.0277.0545-.0571.1577-1.8606-1.3086-3.6539-2.8017-4.7394-2.254-1.6413-4.7708-2.6329-7.6352-3.307-2.2777-.5375-5.1055-.9178-8.48-1.1405-4.5432-.302-9.5662-.1698-14.0012.0261-4.4323-8.9675-7.2724-14.6816-8.521-17.1394-2.1311-4.202-3.5811-6.8261-5.3568-10.2463,0,0-.1886-.3358-.5618-1.002-.2476-.4414-.4561-.9032-.6251-1.3886l3.3383.2031c.1309.0092.2486.0833.3066.195l14.3117,27.0051c.0657.1253.1913.2116.3352.2321.4108.0583.658-.1157.7403-.5252.0074-.0378.0087-.0781.0015-.1166l-.0376-.202c-.0081-.0433.0229-.0853.0678-.0909.0048.0007.0082-.0003.0132-.0011,5.8937.0479,11.5239.4511,17.1775,1.97,4.2811,1.1497,8.9068,3.0455,11.5515,6.5598.0118.0189.0369.0259.0565.0149s.0266-.0349.0148-.0538c-.5441-1.2672-1.4099-2.3002-2.5987-3.1008-.9815-.6613-1.7306-1.1235-2.2443-1.3844-2.0937-1.0669-4.1848-1.8951-6.2753-2.4818-1.1758-.3313-2.3644-.6224-3.5667-.8767l.5824-.8376c3.8586.8155,7.8951,2.2503,10.9805,4.6265.4395.3399.965.8441,1.579,1.5161.8377.9181,1.3819,1.7367,1.6292,2.4569.0122.0377.0178.065.0164.0851-.0052.0553.0058.1115.0307.162.4019.8093.6377,1.7644.7075,2.8655.0106.1652.0771.3389.2006.5245.3189.4772.9901.0832,1.0849-.312.7746-3.2537-.0304-5.9627-1.7152-8.7817-3.5402-5.9211-7.5101-12.5763-11.9098-19.9655-.0558-.0942-.0611-.2087-.0136-.3058.8427-1.7261,1.9049-3.297,3.1872-4.7158l2.0362,3.2544c.0656.1051.2089.1395.3179.0783.0123-.0059.0233-.0136.0329-.023l.6882-.569c.0393-.0329.0839-.0572.131-.0765.1717-.0656.3446-.1279.5186-.1869.2016-.0688.2845-.162.2468-.2784,3.1936-2.4126,6.8095-3.9676,10.7762-4.9019.2965-.0698.5519-.1911.7665-.3654l.2746-.0545c.5735.1268,1.0362.07,1.3899-.1702,1.442-.2759,2.91-.3376,4.4044-.1881.5614.0564.9956.1541,1.3044.2918.9921.4433,1.6348,1.4826,1.1761,2.4933-.3029.6655-.9289.8499-1.7328.8732-.8974.0261-2.0164.0914-3.3568.1944-.0513.0046-.1542-.0065-.3085-.0333-.1434-.0235-.2188.021-.2265.1351l.0016.0002ZM81.7686,39.9746l-.2856-.2681c-.01-.0093-.0248-.0085-.0344.001h0l-.3359.327c-1.1119,1.0851-1.9626,2.0109-1.8996,2.0688h0l.0957.0894c.0708.0498,1.0179-.7802,2.1238-1.8584l.3359-.327c.0096-.0094.0101-.0234.0001-.0327h0ZM117.955,47.6206l-.0485.2418c-.0077.0393.0191.0777.0604.0856h0l.9984.1997c.4326.0865.7969.0863.8166.0005l.0139-.0695c.0213-.0855-.3131-.2271-.7473-.3139l-.0048-.0007-.9986-.1982c-.041-.0094-.0808.0157-.0901.0547h0ZM117.6389,47.8183l.0177-.1904c.0019-.034-.0231-.0627-.0584-.0666l-.2492-.0257c-.2139-.0219-.3908.0133-.3971.0762l-.0078.0829c-.0064.0629.161.1322.3749.154l.2494.0242c.0353.0039.0669-.0209.0704-.0546h0ZM84.2324,57.3759c.3152-.6075.5269-1.1467.9529-1.6889,1.8408-2.3457,4.8098-3.9423,7.6654-4.9378,3.8908-1.3556,7.9972-2.2217,12.3176-2.5972,3.5935-.3108,6.945-.439,10.0576-.3826.1403.0012.2712-.0644.3487-.1756l.0044-.0071c.0399-.0578.021-.137-.0384-.1757-.0193-.0123-.0412-.0188-.0638-.0207-1.0927-.0849-2.1548-.1246-3.1881-.1178-6.2932.0435-12.4495.7077-18.3435,2.5695-2.7685.8749-5.3056,2.1684-7.4641,4.0402-1.1282.9782-1.8905,2.1372-2.2857,3.4801-.0032.0104.0018.0205.0109.025s.0214-.0014.026-.01l.0002-.0015ZM119.3662,50.4771c.0191.0029.0372-.0083.0416-.0263.0028-.0183-.0076-.0354-.0268-.0384-1.5175-.4677-3.1806-.6353-4.8499-.7416-3.3356-.2105-6.7935-.1764-10.3723.1023-4.913.3843-9.8044,1.4168-14.0655,3.697-1.4322.7665-2.7353,1.7881-3.9081,3.0679-.0021.0028-.0012.0076,0,.0109l.03.0389c.0123.0159.0344.0208.0527.0081,0,0,.0037-.0026.0039-.0041,1.2826-1.1758,2.7532-2.1608,4.4146-2.9514,3.9274-1.8718,8.2762-2.8909,12.6766-3.2665,5.3137-.4522,10.6494-.4181,16.0036.1016l-.0002.0015ZM75.0838,54.9492c-.2691-.2796-.6056-.5243-1.0075-.7369-2.0581-1.0864-4.3857-1.767-6.5823-2.1519-2.2046-.3861-4.4363-.7125-6.9386-.8716-2.8968-.1853-5.739-.2797-8.5296-.2836-.1421,0-.2554.1104-.2531.2447l-.0009.0061.0018.0096c.0064.1396.1264.2515.2733.2522,4.2301.0111,8.1025.2041,11.6175.576,2.6825.2833,5.1963.7728,7.5383,1.4666,1.403.4159,2.6856.924,3.8491,1.5275.0121.0065.0287.0044.0356-.0086.0064-.0099.0035-.0228-.0051-.0304l.0016.0002Z" style="fill: #fbc887;"/>
  <path d="M88.4086,20.0476c-.3537.2402-.8164.297-1.3899.1702.5671-.3648,1.0299-.4217,1.3899-.1702Z" style="fill: #211f22;"/>
  <path d="M86.7441,20.2723c-.2145.1743-.4699.2956-.7665.3654-3.9667.9343-7.5826,2.4893-10.7762,4.9019l-.3503.1753c-.0551.0289-.1252.0073-.1561-.0473-.0091-.0154-.0145-.0334-.0133-.0519-.0019-.1685.0701-.3086.2163-.4201,3.335-2.5467,7.1148-4.2121,11.3394-4.9963.1917-.036.3611-.0116.5066.0729h0Z" style="fill: #211f22;"/>
  <path d="M54.5815,16.4782c-.1609.1763-.2132.3147-.1556.4185.2371.4351.4635.8763.6778,1.322.0039.0068.0395.1369.11.3907.0624.2323.2673.4833.6142.7561l-.3978-.1326c-.0684-.0229-.1421.0109-.1652.0759-.0117.034-.0091.0703.009.1011.0333.0596.0774.1022.1339.128.3641.1711.6554.3169.8719.4389l.8503,2.2534c.007.0182.0158.0351.0265.0508l.4548.6242c-2.5552-.7732-5.2081-1.1859-7.9567-1.241-1.3304-.0263-2.4753.0273-3.4351.1621-.06.0079-.1026.0622-.0935.1196.0025.016.0086.0293.0179.0432l.0134.0192c.0588.0853.1603.1367.2671.1328,1.0263-.0359,2.0265-.0509,2.9993-.0467,2.2765.0124,4.5339.2991,6.7737.8603.6497.1619,1.2879.3671,1.9146.6158l-.0764.211c-.0219.0574-.0155.1222.0156.1753l1.2088,2.1199c-1.3896-.4497-2.9164-.7288-4.5802-.8389-.0905-.0061-.1699.0534-.1827.1371l-.0009.0061c-.0155.0802.043.1561.1274.1706l.0032.0005c.8214.1181,1.6686.2385,2.5404.3581.6203.0873,1.4382.3138,2.4552.6799.3418.8608.7376,1.6567,1.1874,2.3876.0209.0344.0454.0661.0733.0969.1618.1697.2803.3342.3587.4942-1.9452-.5333-3.9155-.8601-5.909-.9817-2.2314-.1363-4.4771-.0941-6.6174.3366-.6302.1262-1.2021.2987-1.7158.5175-.0158.0069-.0233.0245-.0177.0409.0036.0083.0123.0159.0234.0176.0328.0097.0686.0105.1106.0029,4.8248-.8854,9.5395-.7113,14.1431.5191l1.8588,3.165c-1.3599-.4093-2.812-.7066-4.3554-.8885-3.3929-.4015-6.6649-.3234-9.8146.2361-.0806.0141-.1346.09-.1171.1674.0041.0162.0099.0311.0176.0448l.0145.0225c.0656.1051.1906.1632.3159.145,3.588-.5094,7.0787-.5229,10.4754-.0398,1.2931.1841,2.6577.4773,4.094.8781-.0563.1861-.0579.3245-.0037.4184.3361.5671.6812,1.1293,1.0388,1.6841.0041.0053.0066.0104.0107.0157l.5071.5388c-1.1153-.364-2.2098-.5863-3.2836-.6667-.0661-.0055-.1265.0367-.1408.0984l-.0155.0693c-.0208.0934.0402.1853.138.2081l.0064.001,3.3476.6329c-.0421.1789-.0432.3034-.0001.3738,1.3345,2.259,2.6121,4.5483,3.8296,6.8673.2189.4152.4426.842.6708,1.2819-2.0119-.6307-3.7569-1.085-5.2354-1.3598-5.107-.9507-10.177-1.2151-15.375-1.2515-.0848-.0005-.1611-.0465-.1989-.1193l-14.9257-28.1677c-.019-.0356-.0041-.0801.0327-.0962.0105-.0046.0224-.0075.0338-.0073,2.8045.0419,5.2719.0663,7.4024.0719,1.9086.0043,3.6535.0754,5.2365.212,2.6982.2343,5.2838.8735,7.7578,1.9208h0ZM52.8275,18.6939c.0135-.0774-.0403-.1526-.1231-.1668h0l-.6139-.1081c-.0812-.014-.1591.0364-.1728.1153l-.0023.0152c-.0151.0771.0403.1526.1215.1666h0l.6139.1081c.0812.014.1591-.0364.1728-.1153l.0023-.0152.0016.0002ZM55.1071,19.294c.0326-.1165-.04-.2398-.1624-.2726l-1.6104-.4368c-.1224-.0328-.2503.0349-.2829.1514h0l-.0039.015c-.0326.1165.04.2398.1624.2726l1.6104.4368c.1224.0328.2503-.0349.2829-.1514h0l.0039-.015ZM48.697,18.1716c.0049-.0958-.0722-.1793-.1727-.1838h0l-1.2723-.075c-.1003-.006-.1866.0664-.1899.1625l-.0023.0152c-.0033.0961.0738.1795.1743.184l1.2723.075c.1003.006.1866-.0664.1899-.1625l.0023-.0152-.0016-.0002ZM41.5176,18.6588l.0273.0353s.0146.0116.0246.01c1.6456-.3148,3.339-.4619,5.0799-.4397.114.0019.2178-.057.2683-.152l.0156-.0272c.0301-.0577.0066-.1283-.0542-.1578-.0153-.007-.0323-.0127-.0485-.0137-1.7436-.1223-3.5056.0999-5.2864.6682-.0274.0083-.0432.037-.0326.0635.0009.0048.0036.0083.0061.0134h0ZM45.9192,22.0701l-.0469-.2159c-.0061-.0243-.0313-.0406-.058-.0369l-.0301.0047c-1.4475.2689-2.6067.5539-2.5914.6357l.0029.0129c.0184.0823,1.2064-.0706,2.6554-.3392l.0304-.0063c.0253-.0055.0421-.0294.0378-.055h0ZM53.7592,25.3197c.0023-.0682-.1223-.1293-.2812-.1366-.1574-.007-.2873.0416-.2896.1098s.1223.1293.2812.1366c.1574.007.2873-.0416.2896-.1098h0ZM48.8787,25.2681c-.0108-.0998-.1039-.1748-.2081-.1659h0l-1.3119.109c-.1043.0089-.1814.0968-.1706.1966h0l.0013.0127c.0108.0998.1039.1748.2081.1659l1.3119-.109c.1043-.0089.1814-.0968.1706-.1966h0l-.0013-.0127ZM46.014,25.7046l.737-.088c.0132-.0011.0217-.0138.0204-.0265h0l.0007-.0046c-.0147-.0957-.1619-.1588-.3284-.1376h0l-.178.021c-.1679.0194-.2919.1142-.279.2112h0l-.0007.0046c.0029.0129.0164.0212.0296.0201h0l-.0016-.0002ZM61.5206,35.8612c.0094-.0827-.168-.1722-.3973-.1995h0c-.2291-.0289-.4236.0145-.433.0972-.0094.0827.168.1722.3973.1995h0c.2291.0289.4236-.0145.433-.0972ZM54.794,35.3975c-.8792.0351-1.784.1098-2.7146.2243-.3546.0438-.6152.0926-.7835.1463-.089.0269-.1391.1189-.1081.2046.0009.0048.0036.0083.0045.0132l.0025.0051c.0423.0968.1477.155.2545.1402,1.143-.1473,2.2667-.243,3.3699-.2905,1.1041-.0427,2.2336-.0378,3.3885.0145.1086.0057.2053-.0605.2368-.16l.0009-.0061c.0279-.0861-.0234-.178-.114-.2044l-.0128-.002c-.1737-.0391-.4391-.0657-.7978-.0802-.9382-.0378-1.8479-.0386-2.727-.0035l.0002-.0015Z" style="fill: #fceed2;"/>
  <path d="M69.8533,45.2752c-.2282-.44-.4519-.8668-.6708-1.2819-1.2175-2.319-2.4951-4.6083-3.8296-6.8673-.0431-.0705-.042-.1949.0001-.3738.114.0237.1983.0273.2545.0125.0479-.0145.075-.0633.0592-.1093-.0068-.0197-.0206-.0359-.0384-.0479l-.3273-.1981-.5071-.5388s-.0066-.0104-.0107-.0157c-.3576-.5548-.7026-1.117-1.0388-1.6841-.0542-.094-.0526-.2324.0037-.4184.4343.1927.8703.3639,1.3093.5153.6999.2396,1.1407.4006,1.3227.4815.6832.3056,1.3599.6118,2.031.9218.0319.0158.0714.0031.0859-.0273.0119-.0247.0082-.0533-.0134-.0722-.2497-.2361-.5302-.4411-.8432-.6152-1.4491-.8077-2.9578-1.3972-4.5226-1.7693l-1.8588-3.165c.2805.0134.4073-.0466.3799-.177-.0045-.0241-.0195-.0435-.0404-.056l-.3567-.2198c-.0784-.16-.1969-.3246-.3587-.4942-.028-.0308-.0525-.0626-.0733-.0969-.4499-.7309-.8457-1.5268-1.1874-2.3876.2452.0625.3897.0893.4338.0789.0591-.0127.0953-.0679.0828-.1244-.007-.0291-.0276-.0541-.0566-.0679l-.8223-.4001-1.2088-2.1199c-.0311-.053-.0375-.1179-.0156-.1753l.0764-.211c1.9619.6589,3.8167,1.5366,5.5648,2.6315l.0016.0002s-.0125-.0144-.0198-.0202c-1.7368-1.5948-3.9237-2.5436-6.0473-3.2771l-.4548-.6242c-.0107-.0157-.0195-.0326-.0265-.0508l-.8503-2.2534,3.3871,1.452c.0123.005.0244.0006.0295-.0111.0048-.0102.0017-.0216-.0072-.0276-1.2314-.8429-2.5194-1.5185-3.8612-2.0247-.3469-.2728-.5518-.5238-.6142-.7561-.0705-.2538-.1061-.3839-.11-.3907-.2143-.4456-.4407-.8869-.6778-1.322-.0576-.1038-.0053-.2423.1556-.4185,3.2486,1.3747,6.4461,3.4457,8.6651,6.1362.4834.5865,1.0729,1.4931,1.7718,2.7201,1.2478,2.1959,2.374,4.1302,3.3784,5.8044,2.5755,4.2966,5.9242,9.922,10.0444,16.8759.7736,1.3039,1.1844,2.0024,1.2301,2.0982.503,1.0132,1.0372,2.2166,1.0854,3.3409.002.019-.0136.0353-.0332.0354-.0164.0006-.0315-.0079-.0357-.0226-1.7705-4.2636-6.5531-6.8407-10.8344-8.1914h0ZM67.233,32.5089c.0256-.0179.031-.0529.0119-.0776-.0027-.0035-.007-.0073-.0114-.0111-1.6404-1.2218-3.3854-2.0811-5.2338-2.5746-.072-.0204-.1451.0198-.1636.0871-.0044.018-.0056.0365-.0036.0555l.0063.0337c.0197.1167.106.2141.2227.2522,1.8113.5969,3.5119,1.3512,5.1019,2.2631.0107.0048.0223.0034.0297-.0017l.04-.0266h0ZM68.3876,37.6689c.0402-.092-.0071-.1989-.1039-.2387h0l-1.4439-.5857c-.0968-.0398-.208.004-.2483.0959h0l-.0051.0117c-.0402.092.0071.1989.1039.2387h0l1.4439.5857c.0968.0398.208-.004.2483-.0959h0l.0051-.0117ZM71.4805,39.2394c.058-.0908.029-.2105-.0668-.2673h0l-1.4077-.8434c-.0958-.0567-.2207-.0307-.2787.0601h0l-.0064.0099c-.058.0908-.029.2105.0668.2673h0l1.4077.8434c.0958.0567.2207.0307.2787-.0601h0l.0064-.0099Z" style="fill: #fbc887;"/>
  <path d="M89.6689,23.814c-.1577.2297-.4749.3385-.9518.3277-.153-.0032-.2548-.0531-.3056-.1481-.0069-.04.0073-.069.0432-.09.388-.2194.7928-.2493,1.2142-.0897h0Z" style="fill: #211f22;"/>
  <path d="M51.9149,18.5519l.004-.0222c.0136-.0759.0892-.126.1688-.1119l.621.11c.0796.0141.1331.0871.1195.163l-.004.0222c-.0136.0759-.0892.126-.1688.1119l-.621-.11c-.0796-.0141-.1331-.0871-.1195-.163Z" style="fill: #211f22;"/>
  <path d="M53.0459,18.7595l.0093-.0328c.0318-.1121.153-.177.2708-.1451l1.6288.4425c.1178.032.1874.1488.1556.2609l-.0093.0328c-.0318.1121-.153.177-.2708.1451l-1.6288-.4425c-.1178-.032-.1874-.1488-.1556-.2609Z" style="fill: #211f22;"/>
  <path d="M47.2454,17.912l1.285.0756c.0971.0057.1721.0856.1675.1783l-.0013.0271c-.0046.0928-.0871.1633-.1842.1576l-1.285-.0756c-.0971-.0057-.1721-.0856-.1675-.1783l.0013-.0271c.0046-.0928.0871-.1633.1842-.1576Z" style="fill: #211f22;"/>
  <path d="M41.5176,18.6588c-.0161-.0227-.0112-.0547.0126-.0713.0037-.0026.0089-.0049.0139-.0057,1.7808-.5683,3.5428-.7905,5.2864-.6682.068.0042.1198.0604.1164.1253-.0026.0167-.0049.032-.0136.0462l-.0156.0272c-.0505.0951-.1543.1539-.2683.152-1.7409-.0222-3.4343.1249-5.0799.4397-.01.0016-.0191-.0029-.0246-.01l-.0273-.0353h0Z" style="fill: #211f22;"/>
  <path d="M55.8279,19.3655c1.3418.5062,2.6298,1.1818,3.8612,2.0247.0102.0078.0129.0222.0049.0319-.0062.0084-.0181.0113-.0272.0067l-3.3871-1.452c-.2165-.122-.5077-.2678-.8719-.4389-.0565-.0258-.1006-.0684-.1339-.128-.0349-.0599-.0135-.136.0505-.1698.032-.0169.0717-.0202.1056-.0072,0,0,.3978.1326.3978.1326Z" style="fill: #211f22;"/>
  <path d="M86.0611,24.4528c.1096.2333.0507.3832-.1735.4501-.9546.2821-1.7266.5236-2.3162.7261-2.983,1.0274-5.5936,2.5558-7.8337,4.5864-.9251.8676-1.7394,1.7694-2.443,2.7052-.0131.0214-.0432.0261-.0641.0135-.0209-.0126-.0284-.0386-.0171-.0587,1.3552-2.8329,4.1903-4.9095,7.041-6.3419,1.8566-.9352,3.792-1.6277,5.8066-2.0808h0Z" style="fill: #211f22;"/>
  <path d="M88.6643,28.0465c-1.5377.3672-3.0899.8724-4.6536,1.516-.3346.1372-.649.2386-.9428.301-.034.0088-.0702-.0108-.0781-.0447-.0061-.0243.0027-.0494.023-.065.2828-.2043.5852-.3761.9086-.515,1.5327-.6546,3.08-1.1699,4.6448-1.5438,1.565-.3755,3.1883-.619,4.8699-.732.355-.025.7087-.0098,1.0632.043.0351.0054.0578.0385.0527.0719-.0035.0228-.0209.0404-.0449.0476-.2911.0769-.6176.1297-.9816.1596-1.7036.1393-3.3235.3927-4.8613.7614h0Z" style="fill: #211f22;"/>
  <path d="M125.6939,33.5973l1.917-1.4047c.1832-.1342.4476-.0995.5906.0775l.0418.0518c.143.177.1105.4293-.0727.5635l-1.917,1.4047c-.1832.1342-.4476.0995-.5906-.0775l-.0418-.0518c-.143-.177-.1105-.4293.0727-.5635Z" style="fill: #fbc887;"/>
  <path d="M143.3839,63.0001l.2824,1.5682c-2.352-.0208-4.6953-.045-7.0284-.0722-1.9613-.0233-4.6166-.0687-7.9661-.1349-1.1251-.0229-2.0039-.0329-2.6366-.0286-1.0086.0059-1.5951.0064-1.7609.0012-1.4918-.0494-2.9383.0217-4.2339-.0397-.754-.0361-1.6688-.0454-2.7441-.031-1.1243.0146-2.4848-.0708-3.6622-.072-2.9738-.0024-6.4674-.0346-10.4825-.0952-3.1206-.0467-6.0492-.0671-8.784-.0624-.8807.0021-1.9447.0603-2.6202-.2317-.02-.0077-.0282-.0292-.0204-.0483h0c.0074-.016.0247-.0227.0402-.0172.7854.2465,1.8519.2043,2.742.1834,1.6951-.0409,2.5083.0027,4.0592-.0245.6305-.0109,1.2491-.008,1.8559.0071,1.2412.0329,2.4819.0578,3.7236.0768,1.0279.0173,2.0564.0207,3.0838.0099.8882-.0088,1.6728-.0023,2.3536.0211.6792.0231,1.4647.0344,2.3565.034,1.4228-.0016,2.8897.0611,4.2086.0452,1.3419-.0171,3.0313.086,4.123.071.938-.0136,1.7128-.007,2.3262.0184,1.4283.0584,3.5373-.0079,5.2726.0618,1.2951.0536,2.2218.0071,3.5638.0429,1.1971.0323,3.5616.0675,7.0935.1056.2559.0034.5281-.0141.8133-.053.5084-.067.7189-.7263.6545-1.1163-.0253-.155-.1761-.4071-.4509-.756-1.385-1.7481-3.1606-4.028-5.3269-6.8382-1.3199-1.7147-2.1974-2.8632-2.6304-3.4483-.9732-1.3127-2.217-2.927-3.8721-5.0233-1.2846-1.6252-2.4622-3.1499-3.5342-4.5743-2.5878-3.4386-5.119-6.7347-7.5919-9.8893-.0245-.0318-.0178-.0759.0152-.0989.0091-.0064.0212-.0108.0329-.0121l3.8302-.5019c.0468-.0068.094.0051.1324.0312.1295.093.2727.2458.4311.4586,7.1018,9.6024,13.9054,18.8055,20.4108,27.6094.2636.3582.5868.8283.9665,1.4098.3229.4934.6475.9653.9756,1.4143l-.0016-.0002Z" style="fill: #af2d2c;"/>
  <path d="M57.6113,22.9052c2.1236.7335,4.3105,1.6823,6.0473,3.2771.0073.0058.0127.0129.0198.0202l-.0016-.0002c-1.7481-1.095-3.6029-1.9727-5.5648-2.6315-.6266-.2487-1.2648-.4539-1.9146-.6158-2.2398-.5613-4.4972-.848-6.7737-.8603-.9728-.0042-1.973.0108-2.9993.0467-.1068.0039-.2083-.0475-.2671-.1328l-.0134-.0192c-.0334-.0487-.0199-.1152.0306-.1464.0128-.0089.0283-.0144.045-.0165.9598-.1349,2.1048-.1884,3.4351-.1621,2.7485.0551,5.4014.4678,7.9567,1.241Z" style="fill: #211f22;"/>
  <path d="M31.6761,18.6758c.169.4854.3775.9473.6251,1.3886.3732.6662.5605,1.0002.5618,1.002,1.7756,3.4201,3.2257,6.0442,5.3568,10.2463,1.2485,2.4577,4.0887,8.1719,8.521,17.1394l-5.4962.2467c-.0956.0056-.1873-.0458-.2299-.1302l-15.555-30.2112c-.0091-.0154-.0031-.0332.0129-.0416.0053-.0023.0121-.0044.0185-.0034l6.1851.3636h0Z" style="fill: #fceed2;"/>
  <path d="M45.9192,22.0701c.0042.0256-.0125.0495-.0378.055l-.0304.0063c-1.449.2686-2.637.4215-2.6554.3392l-.0029-.0129c-.0152-.0818,1.144-.3668,2.5914-.6357l.0301-.0047c.0267-.0037.052.0126.058.0369l.0469.2159h0Z" style="fill: #211f22;"/>
  <path d="M127.5763,35.0248l2.3069.0896c.2035.0079.3641.1719.3587.3663l-.0016.0569c-.0054.1944-.1747.3456-.3782.3377l-2.3069-.0896c-.2035-.0079-.3641-.1719-.3587-.3663l.0016-.0569c.0054-.1944.1747-.3456.3782-.3377Z" style="fill: #fbc887;"/>
  <path d="M20.5623,18.7888l.0325-.054c.1111-.1846.359-.2459.5537-.1371l1.2588.7036c.1947.1088.2624.3467.1513.5312l-.0325.054c-.1111.1846-.359.2459-.5537.1371l-1.2588-.7036c-.1947-.1088-.2624-.3467-.1513-.5312Z" style="fill: #fbc887;"/>
  <path d="M59.26,26.0769l.8223.4001c.0533.0253.0747.0878.0474.1381-.014.0275-.0414.0466-.0736.0541-.0441.0104-.1886-.0164-.4338-.0789-1.017-.3661-1.8348-.5927-2.4552-.6799-.8718-.1196-1.719-.24-2.5404-.3581-.0846-.013-.1434-.0874-.1326-.1683l.0005-.003.0009-.0061c.0144-.0835.0938-.143.1843-.1369,1.6638.1101,3.1906.3892,4.5802.8389h0Z" style="fill: #211f22;"/>
  <ellipse cx="53.4744" cy="25.3062" rx=".1232" ry=".2856" transform="translate(25.468 77.4172) rotate(-87.0702)" style="fill: #211f22;"/>
  <path d="M47.3502,25.2129l1.329-.1107c.1-.0083.1893.0625.1995.1583l.003.028c.0101.0957-.0627.1801-.1628.1884l-1.329.1107c-.1.0083-.1893-.0625-.1995-.1583l-.003-.028c-.0101-.0957.0627-.1801.1628-.1884Z" style="fill: #211f22;"/>
  <ellipse cx="23.1648" cy="21.8309" rx=".4262" ry=".7663" transform="translate(-5.8127 35.0029) rotate(-67.7467)" style="fill: #fbc887;"/>
  <path d="M79.8056,31.7655c-.0105.0046-.023.0011-.0283-.0074l-.0041-.0053c-.1055-.1641.2338-.5452.7574-.8497l.0466-.0271c.5238-.306,1.0347-.4209,1.142-.258l.0023.0066c.0068.0088.0034.0208-.0058.0271l-1.9101,1.1139h0Z" style="fill: #211f22;"/>
  <path d="M103.7159,34.0522c-1.5317.094-3.0673.1811-4.607.263-3.3805.1783-6.6521.8188-9.8169,1.9242-2.2331.7809-4.3002,1.7788-6.2029,2.9936-.1755.1117-.3594.1708-.5533.1785.262-.3134.4472-.5094.5583-.5843,5.2782-3.5777,11.9586-5.1039,18.4546-5.0323.7974.0085,1.5208.0944,2.1671.2573h0Z" style="fill: #211f22;"/>
  <path d="M46.014,25.7046c-.0135.0026-.0251-.007-.028-.0199h0l.0007-.0046c-.0163-.096.1092-.1904.2758-.2116h0l.178-.021c.1682-.021.3155.0406.33.1378h0l-.0007.0046c.0029.0129-.0069.0239-.0204.0265h0l-.737.088.0016.0002Z" style="fill: #211f22;"/>
  <path d="M86.1988,32.8386c-.1883.3014-.4853.4381-.8912.4118.2446-.2211.5415-.3578.8912-.4118Z" style="fill: #211f22;"/>
  <path d="M61.2418,29.5691l.3567.2198c.0209.0126.0359.032.0404.056.0274.1304-.0994.1904-.3799.177-4.6035-1.2303-9.3183-1.4044-14.1431-.5191-.042.0076-.0778.0068-.1106-.0029-.0176-.0027-.028-.0199-.0238-.0364.0014-.0091.0092-.0173.0181-.0222.5137-.2188,1.0857-.3913,1.7158-.5175,2.1403-.4306,4.3859-.4729,6.6174-.3366,1.9936.1217,3.9639.4485,5.909.9817h0Z" style="fill: #211f22;"/>
  <path d="M77.774,33.3951c-1.0064.8225-1.8747,1.7782-2.6023,2.8708-.0087.0142-.0288.0174-.042.0076-.0105-.0063-.0152-.0179-.015-.0303.199-1.0645,1.5027-2.463,2.3398-3.2039.3112-.2934.6516-.5326,1.0208-.7143.0816-.042.185-.0137.2302.0649.0388.0667.0246.1486-.0337.1989l-.8977.8064h0Z" style="fill: #211f22;"/>
  <path d="M67.233,32.5089l-.04.0266s-.019.0064-.0297.0017c-1.5899-.9119-3.2905-1.6662-5.1019-2.2631-.1167-.0381-.203-.1355-.2227-.2522l-.0063-.0337c-.0121-.0704.0369-.1345.1091-.1468.0185-.0034.0395-.0017.0581.0042,1.8484.4935,3.5934,1.3528,5.2338,2.5746.0248.0194.0308.0546.0109.078-.0039.0041-.0078.0082-.0114.0107h0Z" style="fill: #211f22;"/>
  <path d="M90.0368,61.5987c-.02-.0077-.0298-.0295-.022-.0485.0051-.0117.0163-.0209.0279-.0222,1.5921-.2109,3.6485-.6809,5.5501-.9285,3.9317-.5144,7.7788-.8284,11.5411-.9404,4.9749-.149,9.2689-.1281,12.884.0598,1.865.0973,4.1214.2094,6.7656.3373,1.6048.0792,3.0964.247,4.6838.3547,1.7443.1177,4.0169.4862,5.2852.64.0574.0088.111-.0313.1194-.0861.004-.0259-.0032-.0535-.0212-.0749l-.1581-.2049c-.0709-.0919-.179-.1536-.2978-.1671-.8042-.0921-1.5864-.1995-2.3501-.3212-.4908-.0799-1.2505-.1636-2.2773-.2524-5.1456-.4426-10.271-.7186-15.4571-.8653-6.5469-.1869-13.1547.0654-19.6193.8974-2.4809.3193-4.8473.776-7.0978,1.372-.0187.0049-.037.0068-.0552.0087l-.4572.0203c-.0297.0017-.0574-.0197-.0596-.0481-.0029-.0238.0118-.0449.036-.0537.2983-.1132.4756-.2153.8364-.3423,3.1683-1.1174,6.7273-1.8431,10.6776-2.1802,4.2711-.3627,8.5789-.4644,12.9201-.3039,4.6641.1741,8.5736.3806,11.7279.6225,2.239.1717,5.7545.6901,8.7382.6816.6993-.0019,1.1507.0688,1.9681.1707.0239.0037.0477-.0129.0499-.0375.0023-.0152-.0049-.0319-.0183-.0402-.2888-.2047-.613-.3167-.9708-.3372-.0276-.0011-.0597-.0154-.0706-.0295-.0068-.0088-.004-.0162.0049-.0211.0502-.0188.1057-.0181.1665.0006.0579.0167.118-.0131.1346-.0682.0037-.0135.0044-.0289.0033-.0431-.0391-.2459-.2322-.4141-.4916-.5115-.3843-.1461-.7387-.3063-1.0647-.4809-.2673-.1422-.3556-.3333-.2649-.5733.0189-.0485.0029-.1039-.0395-.1369-.1092-.0868-.2502-.1474-.4264-.1806-.0303-.0046-.0595-.0169-.0861-.035-.0965-.0631-.1035-.156-.0237-.2825.0326-.0526.1052-.068.1591-.0364.0075.0043.0132.0098.0205.0156l.4221.3793c.0962.0864.2226.1354.3549.1354l.1243-.0012c.0557-.0008.0996-.0424.0979-.0956,0-.0218-.0081-.0433-.0235-.0597-.1745-.1934-.3557-.4393-.544-.7345-.5219-.8152-1.0998-1.6483-1.7324-2.4976-5.3485-7.1873-9.1497-12.2792-11.4018-15.2754-.0136-.0177-.0097-.0435.0086-.0563l.0018-.0013.0434-.0276s.0148-.0008.0189.0045c3.6264,4.8252,7.6823,10.1306,12.1674,15.9177.5632.7265,1.132,1.4912,1.7094,2.2962,1.0168,1.4222,2.0388,2.6832,3.0818,4.1265.4352.6025.8827,1.221,1.3441,1.8555.0284.0386.0186.0916-.0198.1185-.0165.0115-.0368.0162-.0578.0145-.571-.0361-1.2126-.0596-1.9246-.0706-15.9211-.2245-27.6999-.3657-35.3367-.4221-3.4372-.0267-6.7629-.0035-9.9765.0664-.1145.0011-.2222-.0527-.2849-.1449l-.209-.3093c-.0386-.0573-.0221-.1327.0371-.1672.0144-.0087.0318-.0154.0484-.0175,2.2172-.3145,4.5005-.5597,6.8518-.7368,4.8892-.3677,9.9511-.5407,15.1826-.5195,2.6036.0095,4.3581.0182,5.2647.0278,6.3617.0635,12.7184.3086,19.07.7366.0488.0012.0886-.0347.089-.0798.0008-.0373-.0251-.0708-.0625-.0828-.5032-.1378-1.0783-.2322-1.7284-.2851-4.4187-.3577-8.8591-.6066-13.3194-.7464-6.528-.2043-13.2217-.1582-20.0811.1381-4.02.1738-7.4664.4946-10.3371.9598-.6598.1061-1.2333.2145-1.8513.0263l.0016.0003Z" style="fill: #fbc887;"/>
  <path d="M83.778,33.9381c.07.14.0327.2558-.1102.3461-1.4677.9231-2.6397,1.6968-3.5145,2.3214-.0384.0268-.0791.0471-.1236.0605-.2345.07-.311.0256-.2329-.1323,1.1945-1.0693,2.521-1.9347,3.9811-2.5957Z" style="fill: #211f22;"/>
  <path d="M83.6347,42.932l-2.394,2.1504c-.032.0278-.0806.025-.1101-.006-.0195-.0217-.0265-.0508-.0143-.077.0076-.0175.0207-.0389.0379-.0659.6079-.9084,1.3802-1.6951,2.3162-2.357.5468-.424,1.1182-.7742,1.714-1.0489.0457-.021.0887-.0456.1305-.0735.5553-.3838,1.0952-.7092,1.6179-.9764,2.6771-1.3655,5.704-2.3379,9.0803-2.9156,2.2726-.3886,4.4551-.4981,6.5507-.3281.0178.0012.0305.014.0311.0313l.0017.0423c-.0014.0091-.0074.016-.0172.0161-1.5652.0141-3.4055.1823-5.5215.5076-4.3442.6693-8.2284,1.9714-11.6526,3.9063-.2523.1436-.8423.5407-1.7706,1.1945h0Z" style="fill: #211f22;"/>
  <path d="M120.6654,40.7086l11.2307,15.1557c.027.0369.0175.0884-.0207.1137-.0217.0138-.0484.0175-.0735.0106l-3.1856-.9336c-1.9297-2.9048-3.8718-5.718-5.8279-8.4399-.7081-.9855-1.2717-1.8055-1.6903-2.4631-1.0249-1.6041-1.5643-2.4438-1.6183-2.5175-.0175-.0245-.0442-.0956-.0803-.2117-.0395-.126.0342-.2549.1638-.2911.0103-.0031.0203-.0047.0304-.0063.4377-.0638.7953-.2021,1.0716-.4168h0Z" style="fill: #fceed2;"/>
  <path d="M63.1178,33.1868c1.5648.3722,3.0735.9616,4.5226,1.7693.313.1741.5936.3791.8432.6152.0257.0242.0281.0619.0029.0877-.0195.0204-.0496.0251-.0753.0118-.6711-.31-1.3478-.6162-2.031-.9218-.182-.0808-.6228-.2418-1.3227-.4815-.439-.1514-.875-.3226-1.3093-.5153-1.4363-.4008-2.8009-.694-4.094-.8781-3.3967-.4831-6.8874-.4696-10.4754.0398-.1253.0182-.2505-.0384-.3159-.145l-.0145-.0225c-.0417-.0687-.0184-.157.0529-.196.0144-.0087.0299-.0141.0466-.0162,3.1498-.5595,6.4218-.6376,9.8146-.2361,1.5433.182,2.9955.4792,4.3554.8885ZM63.4856,33.494c.0124-.0277.0105-.0576-.0054-.0927-.0075-.0152-.0259-.0227-.0417-.0157-.0037.0026-.0073.0051-.011.0077-.0272.0285-.0381.0565-.0324.0838.0058.0258.0309.0437.056.0397.0151-.0024.0279-.0113.0345-.0227h0Z" style="fill: #211f22;"/>
  <path d="M24.1392,27.3374c.4198.9802.8512,1.9171,1.2973,2.811,5.602,11.2465,9.1431,18.3983,10.6232,21.4553.5969,1.2317,1.1921,2.474,1.7858,3.727.1977.415.447.9096.7482,1.4807.0734.139.1645.248.2733.3269.1042.0767.2276.1564.3696.242-1.9104.1886-3.8017.3583-5.6757.512-.8684.071-1.5526-.132-2.0526-.6105-.1923-.1837-.5484-.8021-1.0667-1.8535-3.4014-6.9123-7.1166-14.4194-11.1421-22.524-.4454-.8985-1.2767-2.6256-2.4934-5.1844-.1027-.1715-.1476-.3264-.1376-.4666.0036-.0446.0429-.0775.0901-.0765,0,0,7.3807.1605,7.3807.1605Z" style="fill: #fceed2;"/>
  <path d="M63.4856,33.494c-.0117.0231-.0391.0314-.0632.0183-.0137-.0068-.023-.0207-.0273-.0353-.0056-.0273.0052-.0553.0324-.0838.0101-.0125.0299-.0141.0445-.0025.0043.0038.007.0073.0082.0106.0158.0351.0178.065.0054.0927h0Z" style="fill: #5e7185;"/>
  <path d="M39.2364,57.3803c5.9011-.5117,10.2134-.8557,12.9383-1.0301,3.1768-.2033,6.4819-.3589,9.9151-.4652,3.3067-.1024,6.4382-.0198,9.3906.2504.514.046,1.089.1731,1.7251.3812,0,0,.0016.0002.0014.0018s-.0002.0015-.0018.0013h0c-.7555-.122-1.3243-.1936-1.7084-.2135-2.65-.1334-5.2997-.1407-7.9471-.0245-7.8865.3477-15.7579.8846-23.6153,1.6075-1.7326.1364-3.4661.2789-5.2021.4272-1.0112.0865-1.9442.1211-2.8009.1051-.1451-.002-.2706.0925-.3028.2278l-.0912.4035c-.0289.1249.055.2483.1877.278l.0191.0029c.2704.0368.4912.0457.6586.0293,2.6356-.2628,5.2735-.4988,7.9171-.7075,6.8285-.5846,13.6711-1.0268,20.526-1.3254,3.3329-.1451,6.3426-.1528,9.029-.0231,2.3412.1126,4.8061.5588,6.9186,1.5991.5103.2511.7143.5082.6117.7729-2.6109-1.2521-5.477-1.7551-8.3442-1.8564-2.2337-.079-4.4929-.0763-6.7761.0085-9.2863.3482-18.5437.9874-27.73,1.7169-.6003.0482-1.0856.0922-1.4541.1308-.915.0981-1.4112.1389-1.4873.1241-.1315-.0264-.262.0471-.2989.1707l-.333,1.139c-.0282.0985.0313.2011.1347.2294.0267.0072.0559.0086.0841.0051.343-.0534.8089-.0131,1.1321-.0337,10.7735-.653,21.7626-1.0285,32.9693-1.1291,2.1409-.0193,4.135.0245,5.981.1283,2.0597.1162,3.759.3143,5.0963.594.0634.0128.1033.0719.091.1308l-.0002.0015-.0285.1218c-.0264.119-.1462.1972-.2723.1779-4.0055-.6028-7.7686-.6561-12.0418-.6208-9.5294.0804-19.4035.3525-29.6194.8199-1.4014.0641-2.4072.1265-3.0192.1869-.1942.0201-.3825.0769-.5619.1709-.0446.0243-.0825.059-.1073.1035l-.7686,1.3387-.6145.0133c-.0443.001-.0802-.031-.0819-.0733l.0012-.0076.0105-.2601c.0487.0978.0989.1538.1507.1679.0581.0151.1137-.0278.1669-.1302.188-.3637.3493-.7767.4841-1.2405.0141-.0492.0045-.1037-.0264-.1474-.2493-.3451-.5029-.7687-.7619-1.2741-2.3674-4.5996-4.4892-8.713-6.3656-12.3386-2.9708-5.7466-5.5968-11.1102-8.143-16.3976-.26-.5414-.4509-.9694-.5725-1.284-.0479-.1242-.1914-.1898-.3204-.1472-.0103.0031-.0208.0077-.0297.0126l-.0441.0213c-.1606.0782-.2353.2568-.1757.4217.1799.4995.3251.8629.4388,1.0906,2.87,5.7857,5.9383,12.1002,8.0927,16.555.0014.0018.0009.0048-.0009.0061-.0226.0199-.0434.0276-.0639.0229-.0176-.0027-.0337-.0145-.0412-.0297-.1197-.2099-.3475-.642-.6799-1.2974-.3197-.6316-1.1163-2.1586-2.3901-4.5797-.8792-1.6706-2.1548-4.1324-3.8256-7.3839-.7639-1.4847-1.4609-2.9264-2.0908-4.3267-.0584-.1304-.1581-.2049-.3008-.2221-.1026-.0126-.1963.0556-.2078.152-.0042.0274-.0002.0545.0089.0808.0172.0478.0491.1166.0953.2093-.1551-.0113-.2276-.1455-.2178-.401.0027-.0494.0384-.0907.0888-.1001.7497-.139,1.1789-.4564,1.6385-1.0465.2259-.2909.5853-.4088.9083-.4808.3988-.0869.6288-.5438.9543-.8133-.2841.4362-.3381.7675-.1199,1.2729.2261.5175.492,1.0957.7941,1.7354,1.1155,2.3454,2.5131,5.1516,4.1914,8.4181,3.4472,6.709,6.5403,12.6909,9.2808,17.9474.2411.4622.4524.8419.6355,1.1395.0279.0417.0844.0566.1292.0307.016-.0085.0279-.0222.0353-.0382l.1923-.4129c.0391-.0844.0262-.1814-.0345-.2545-.2274-.2747-.4466-.6245-.6593-1.0481-4.7673-9.5095-9.5207-19.0247-14.2568-28.5465l.4841-.633c1.2167,2.5588,2.048,4.2859,2.4934,5.1844,4.0255,8.1045,7.7408,15.6117,11.1421,22.524.5183,1.0514.8744,1.6698,1.0667,1.8535.5.4785,1.1842.6815,2.0526.6105,1.8741-.1537,3.7653-.3234,5.6757-.512l-.0016-.0002ZM30.3093,60.7353c.0643-.3453.2245-.6229.4834-.8309.0819-.0653.1023-.1775.049-.2666-.8758-1.5112-1.5767-2.9379-2.3827-4.468-3.147-5.9714-6.2663-11.9744-9.3581-18.0075-.4589-.8959-.9267-1.8399-1.4006-2.8299-.4231-.8842-.8788-1.8325-1.3654-2.8463-.3332-.6928-.6778-1.3858-1.034-2.0775-.1437-.2775-.3354-.3801-.6384-.2894-.0788.0238-.1265.1006-.1108.1793.0498.2397.1196.456.2088.6519,2.4145,5.2408,6.2125,12.9226,11.3922,23.0452,1.5901,3.1066,2.798,5.446,3.6252,7.0182.1858.354.326.6014.4204.742.0188.0263.0567.0352.0857.0162.0128-.0089.0229-.0214.0252-.0366h0Z" style="fill: #211f22;"/>
  <path d="M16.1338,28.1092c.0707.0607.1334.1419.188.2438,4.736,9.5219,9.4894,19.037,14.2568,28.5465.2128.4236.4319.7734.6593,1.0481.0607.0732.0736.1702.0345.2545l-.1923.4129c-.0216.045-.0766.063-.124.0418-.0169-.0073-.0312-.0204-.0405-.0342-.1831-.2975-.3944-.6773-.6355-1.1395-2.7404-5.2565-5.8336-11.2383-9.2808-17.9474-1.6783-3.2666-3.0759-6.0727-4.1914-8.4181-.3021-.6398-.568-1.2179-.7941-1.7354-.2182-.5054-.1642-.8367.1199-1.2729h0Z" style="fill: #fbc887;"/>
  <path d="M94.4499,41.9006c-1.2146.2843-2.4383.628-3.6744,1.0305-.1153.0384-.2443-.0047-.3142-.1027l-.0041-.0053c-.0604-.0856-.0376-.202.0508-.257.0037-.0026.0073-.0051.0126-.0074.1746-.0947.4541-.203.8373-.3265,1.0049-.3227,1.9926-.5966,2.9597-.8222.9685-.2239,1.9776-.4135,3.0287-.5687.401-.0585.7021-.084.9035-.0765.1072.004.192.0902.1894.1926l-.0019.0122-.0009.0061c-.0113.1166-.1043.2114-.2245.2288-1.2939.1834-2.5496.4162-3.7636.6959l.0016.0002Z" style="fill: #211f22;"/>
  <path d="M65.301,36.4093l.3273.1981c.0432.0269.0545.0816.0288.1212-.0108.017-.0291.0298-.0496.036-.0562.0148-.1405.0112-.2545-.0125l-3.3476-.6329c-.0985-.0182-.1629-.1091-.1453-.203l.0009-.0061.0155-.0693c.0143-.0617.0747-.1038.1408-.0984,1.0738.0804,2.1684.3027,3.2836.6667h0Z" style="fill: #1d1e2d;"/>
  <ellipse cx="61.1061" cy="35.8103" rx=".1494" ry=".4181" transform="translate(18.0042 92.0114) rotate(-82.8864)" style="fill: #211f22;"/>
  <path d="M54.794,35.3975c.8792-.0351,1.7888-.0343,2.727.0035.3587.0145.6241.0411.7978.0802.0916.0203.1518.1074.1316.1962l-.0019.0122-.0009.0061c-.0332.0993-.1299.1655-.2384.1597-1.1549-.0523-2.2844-.0572-3.3885-.0145-1.1032.0475-2.2269.1432-3.3699.2905-.1068.0148-.2122-.0434-.2545-.1402l-.0025-.0051c-.0362-.0834.0029-.1787.0899-.2136.0053-.0023.0087-.0033.0137-.0041.1683-.0537.4289-.1025.7835-.1463.9305-.1144,1.8354-.1892,2.7146-.2243l-.0016-.0002Z" style="fill: #211f22;"/>
  <path d="M66.5845,36.9577l.0112-.0259c.0382-.0884.1445-.1294.2375-.0917l1.4595.5923c.093.0377.1375.14.0993.2284l-.0112.0259c-.0382.0884-.1445.1294-.2375.0917l-1.4595-.5923c-.093-.0377-.1375-.14-.0993-.2284Z" style="fill: #211f22;"/>
  <path d="M30.3093,60.7353c-.0049.032-.0389.0517-.0722.045-.016-.0024-.0308-.0125-.0387-.0246-.0944-.1406-.2345-.388-.4204-.742-.8273-1.5723-2.0351-3.9116-3.6252-7.0182-5.1797-10.1226-8.9776-17.8044-11.3922-23.0452-.0892-.1959-.159-.4122-.2088-.6519-.0157-.0787.032-.1555.1108-.1793.303-.0907.4947.0119.6384.2894.3562.6917.7008,1.3847,1.034,2.0775.4865,1.0138.9423,1.9622,1.3654,2.8463.4738.9901.9417,1.9341,1.4006,2.8299,3.0918,6.0331,6.2111,12.0361,9.3581,18.0075.806,1.5301,1.5069,2.9568,2.3827,4.468.0533.0892.0329.2013-.049.2666-.2589.208-.419.4857-.4834.8309h0Z" style="fill: #fbc887;"/>
  <path d="M81.7686,39.9746c.01.0093.0095.0233-.0001.0327h0l-.3359.327c-1.106,1.0782-2.0531,1.9082-2.1238,1.8584l-.0957-.0894c-.0632-.0564.7856-.9809,1.896-2.0662l.0037-.0026.3359-.327c.0096-.0094.0244-.0103.0344-.001h0l.2856.2681h0Z" style="fill: #211f22;"/>
  <path d="M69.7149,38.2067l.0164-.0253c.056-.0865.1754-.1123.2668-.0575l1.4236.8535c.0913.0548.12.1693.064.2558l-.0164.0253c-.056.0865-.1754.1123-.2668.0575l-1.4236-.8535c-.0913-.0548-.12-.1693-.064-.2558Z" style="fill: #211f22;"/>
  <path d="M29.3647,63.0097L12.7617,30.9509c-.0462-.0928-.0781-.1615-.0953-.2093-.0348-.0926.0166-.1937.1146-.2254.0274-.0083.0557-.0117.0844-.0073.1427.0172.2424.0917.3008.2221.6298,1.4003,1.3268,2.842,2.0908,4.3267,1.6708,3.2514,2.9465,5.7133,3.8256,7.3839,1.2737,2.4211,2.0704,3.9482,2.3901,4.5797.3324.6553.5602,1.0874.6799,1.2974.0075.0152.0239.0255.0412.0297.0205.0047.0413-.003.0639-.0229.0018-.0013.0023-.0043.0009-.0061-2.1544-4.4548-5.2227-10.7693-8.0927-16.555-.1137-.2277-.259-.5911-.4388-1.0906-.0597-.1649.0151-.3435.1757-.4217l.0441-.0213c.1218-.0592.2728-.0112.3365.1061.0052.0086.0086.0185.0136.0286.1217.3146.3125.7426.5725,1.284,2.5462,5.2875,5.1722,10.651,8.143,16.3976,1.8764,3.6256,3.9982,7.739,6.3657,12.3386.259.5054.5126.929.7619,1.2741.0309.0437.0405.0981.0264.1474-.1348.4638-.296.8768-.4841,1.2405-.0533.1024-.1088.1453-.1669.1302-.0517-.0142-.1019-.0701-.1507-.1679h0Z" style="fill: #fbc887;"/>
  <path d="M117.955,47.6206c.0093-.0391.049-.0641.0901-.0547h0l.9986.1982c.4342.0868.7704.2271.7523.3131h0l-.0139.0695c-.0197.0858-.3839.086-.8166-.0005l-.9984-.1997c-.0413-.0079-.068-.0463-.0604-.0856h0l.0485-.2418-.0002.0015Z" style="fill: #211f22;"/>
  <path d="M117.6389,47.8183c-.0035.0337-.0351.0585-.0704.0546h0l-.2494-.0242c-.2139-.0219-.3813-.0911-.3749-.154l.0078-.0829c.0064-.0629.1833-.0981.3971-.0762l.2492.0257c.0353.0039.0603.0326.0584.0666l-.0177.1904h0Z" style="fill: #211f22;"/>
  <path d="M33.4895,64.5716c-.0153.0678.0026.1219.0508.1589l-8.1728.1699c-.2134-.4408-.3978-.8787-.5514-1.3151-.237-.6703-.4025-1.1147-.4982-1.3318-1.0782-2.4394-2.193-4.8424-3.3431-7.2071-.7539-1.5501-1.6923-3.1114-2.5459-4.7781-1.0249-1.9982-1.9789-3.7986-2.8633-5.403-1.0544-1.9124-2.0331-3.701-2.9326-5.3669-1.4864-2.7496-2.9987-5.5001-4.5371-8.2515l3.2946.1154c.1446.005.2759.0859.3419.2097,3.2123,6.078,4.847,9.1385,6.4627,12.313.5556,1.0961,1.352,2.486,1.967,3.7594.7095,1.467,1.7311,3.284,2.5233,4.84,1.068,2.0905,2.2802,4.4227,3.6383,6.9969.6784,1.2862,1.4727,3.0092,2.2663,4.4813.2187.4058.5851.6052,1.1006.5986,1.265-.0164,2.5321-.0139,3.799.0104h0Z" style="fill: #af2d2c;"/>
  <path d="M84.1952,57.3624c.3952-1.3429,1.1575-2.5018,2.2857-3.4801,2.1586-1.8718,4.6956-3.1653,7.4641-4.0402,5.894-1.8618,12.0503-2.526,18.3435-2.5695,1.0333-.0068,2.0954.0329,3.1881.1178.0727.0049.1286.0664.1229.1357-.0017.0216-.0081.0424-.0207.0607l-.0044.0071c-.0775.1112-.2084.1768-.3487.1756-3.1126-.0564-6.4641.0719-10.0576.3826-4.3204.3754-8.4269,1.2416-12.3176,2.5972-2.8556.9955-5.8246,2.592-7.6654,4.9378-.4261.5422-.6377,1.0814-.9529,1.6889-.0032.0104-.0153.0148-.026.01s-.0157-.0149-.0109-.025h0l-.0002.0015Z" style="fill: #211f22;"/>
  <ellipse cx="88.5146" cy="43.4922" rx=".171" ry=".0707" transform="translate(-9.8521 50.5918) rotate(-30.2957)" style="fill: #211f22;"/>
  <path d="M8.0958,31.2469c1.5384,2.7514,3.0507,5.5018,4.5371,8.2515.8995,1.6659,1.8781,3.4545,2.9326,5.3669.8844,1.6044,1.8384,3.4048,2.8633,5.403.8536,1.6667,1.792,3.2279,2.5459,4.7781,1.1501,2.3647,2.2649,4.7677,3.3431,7.2071.0958.2172.2612.6615.4982,1.3318.1536.4363.3381.8742.5514,1.3151-.167.0134-.2961.0029-.3845-.0278-.0652-.0224-.12-.0698-.1533-.1294L6.5865,31.2586c-.0234-.0394-.0075-.0899.0348-.1099.0142-.0072.0311-.0108.0472-.0099l1.4273.1081h0Z" style="fill: #c1201f;"/>
  <path d="M4.7506,31.0459l.8234.0732c.1402.0121.2636.0918.3287.2108l18.5471,34.081c.0254.0475.0761.0786.1313.0809.2062.0082.5212.0098.942.0026,10.0731-.1747,21.0027-.3115,32.7894-.4137,5.4967-.0472,10.5079-.0706,15.0348-.0671,1.0501.0005,1.7071-.0344,1.9676-.1035,1.1234-.2967,1.8265-1.2825,2.3382-2.2555.04-.0795.097-.1425.1678-.1892.1369-.0943.3421-.0582.4723.0833.6011.6498-.3518,1.9228-.8792,2.4121-.8914.8292-1.657,1.0499-2.9234,1.0646-2.1797.0274-3.53.0245-5.5542.0602-6.1444.1068-11.0331.1195-16.5384.2121-6.087.1047-11.6876.1376-17.9156.2674-2.7986.0587-5.5457.1004-8.2429.1264-.6854.0071-1.589.0945-2.3727.0399-.0921-.0063-.1757-.0581-.2176-.1361L4.6255,31.223c-.0331-.0611-.0071-.135.0564-.1658.0212-.0108.0448-.0149.0687-.0113Z" style="fill: #c86334;"/>
  <ellipse cx="86.9431" cy="44.3056" rx=".8939" ry=".2149" transform="translate(-10.5727 47.8776) rotate(-29.1009)" style="fill: #211f22;"/>
  <path d="M119.3662,50.4771c-5.3543-.5198-10.6899-.5538-16.0036-.1016-4.4005.3756-8.7492,1.3947-12.6766,3.2665-1.6613.7906-3.1319,1.7756-4.4146,2.9514-.0151.0133-.0379.0129-.052-.0017,0,0-.0027-.0035-.0043-.0038l-.03-.0389s-.002-.0081,0-.0109c1.1728-1.2798,2.4759-2.3014,3.9081-3.0679,4.2611-2.2802,9.1525-3.3127,14.0655-3.697,3.5788-.2788,7.0367-.3128,10.3723-.1023,1.6693.1062,3.3324.2738,4.8499.7416.0191.0029.0312.0204.0268.0384-.0028.0183-.0224.0293-.0416.0263h0Z" style="fill: #211f22;"/>
  <path d="M65.4524,45.185l-.5824.8376c-2.0916-.4731-4.3828-.8055-6.8736-.9971-2.5004-.1931-5.08-.2955-7.7388-.3072-.0278.0004-.0531-.0159-.0642-.0394l-.4911-.9522c-.0061-.0134-.0006-.0281.0136-.0353.0034-.001.0069-.0021.01-.0016,3.248.0039,6.5226.1754,9.8249.5179,1.9887.2066,3.956.5314,5.9015.9775h0Z" style="fill: #fceed2;"/>
  <path d="M92.9626,57.4379c2.0365-1.107,4.2477-1.8944,6.6369-2.3616,6.2465-1.2205,12.8396-.7165,19.1054.2498,3.7768.5818,7.7188,1.2902,11.8244,2.1249.5956.1209,1.21.2898,1.8433.5052.0433.016.0691.0604.0578.1023l-.0005.003c-.0118.0449-.0584.072-.1045.0634-1.7933-.32-3.033-.5333-3.721-.6371-7.105-1.0856-14.29-1.6491-21.5564-1.6924-2.3596-.0142-4.4758.0681-6.35.2436-2.5372.239-5.1082.7204-7.7134,1.4459-.0151.0024-.0301-.0062-.0328-.0206-.0018-.0096.003-.0198.0106-.0264Z" style="fill: #fbc887;"/>
  <ellipse cx="132.623" cy="58.1676" rx=".0416" ry=".1709" transform="translate(34.3456 164.5343) rotate(-70.9456)" style="fill: #4c596b;"/>
  <path d="M134.6232,59.4599c-1.7355-.1538-2.7645-.2491-3.0856-.2859-7.2079-.8194-14.5108-1.253-21.9108-1.2981-2.0478-.0131-4.7601.0791-6.5279.1898-3.8768.2409-7.5827.7634-11.1302,1.8507-.6153.1892-1.3555.4683-2.2171.8363-.4596.1959-.8192.5069-1.2624.777-.1029.0637-.1921.145-.2624.2417l-.124.1695c-.027.0379-.0741.0572-.1224.0529l-.9896-.0862c-.0207-.0032-.0378-.0198-.0364-.0398.0009-.0061.0021-.0137.0078-.0191.804-1.0684,1.8851-2.0274,3.2415-2.8741.856-.534,1.9788-.9865,3.3696-1.3545,5.3186-1.411,10.7703-1.4635,16.5062-1.27,6.0059.2006,12.0814.7032,18.2253,1.5059,1.3016.1714,3.1077.6319,4.7212.5583.0297-.0017.06.003.0859.0147l.4494.1904c.1423.0623.2686.1549.3684.2714.1481.1738.3882.3336.7169.4806.0246.01.0366.0383.0265.0617-.0078.0191-.0275.0301-.0498.0266h0Z" style="fill: #fbc887;"/>
  <path d="M143.3839,63.0001c.8995.9836,1.7413,2.0348,2.5224,3.1514.0213.0313.0132.0737-.0193.0936-.0091.0064-.021.0092-.0327.0106-.3692.0322-.7535.0465-1.1531.0429-9.8284-.0682-16.7494-.1271-20.7625-.1797-6.9359-.0892-11.5717-.15-13.9052-.1851-7.0383-.1033-12.4384-.1644-16.1984-.1844-.9564-.0048-1.7808.0138-2.5186-.3189-1.0681-.4799-2.1375-1.6235-2.1065-2.8275.0013-.0512.0345-.0975.0848-.1163.2512-.0939.4271-.0903.5756.1661.3939.6803,1.1273,1.5544,1.957,1.8529.3283.1173.9118.1786,1.7502.1856,10.7709.0787,24.5633.2216,49.3642.5014.3065.0034.6136-.0072.9227-.0315.1008-.0079.1743-.0932.1646-.1897-.0011-.0142-.004-.0271-.0085-.0402-.0601-.1728-.1787-.2937-.3544-.3627l-.2824-1.5682h0Z" style="fill: #c86334;"/>
  <path d="M75.0838,54.9492c.01.0093.0109.025.0013.0345-.0078.0082-.021.0092-.0317.0045-1.1635-.6035-2.4462-1.1116-3.8491-1.5275-2.342-.6937-4.8557-1.1833-7.5383-1.4666-3.515-.3719-7.3873-.5649-11.6175-.576-.1469-.0007-.2669-.1126-.2733-.2522l-.0018-.0096c-.0055-.1348.1048-.2472.2458-.2505l.0064.001c2.7907.0039,5.6328.0983,8.5296.2836,2.5023.1591,4.734.4855,6.9386.8716,2.1966.3849,4.5243,1.0655,6.5823,2.1519.4019.2127.7384.4574,1.0075.7369l.0002-.0015Z" style="fill: #211f22;"/>
  <path d="M47.051,49.0494c-.0648.1988-.0846.3282-.0597.3896.2365.5456.509,1.0484.8158,1.5082l-4.1935.0163c-.0766-.0008-.1532-.0126-.2264-.0362l-1.0922-.3652c-.0825-.0267-.1555-.0721-.2149-.1326-.3103-.3092-.5441-.6488-.7016-1.0172-.0111-.0235.0013-.0512.0271-.0597.0053-.0023.0103-.0031.0153-.0039l5.6285-.2996.0016.0002Z" style="fill: #fceed2;"/>
  <path d="M77.4052,59.6788c-.2335.5328-.2272,1.0883.019,1.6665-.3674.1914-.6189.4472-.7546.7676-.1407.332-.2821.5939-.426.7868-.0289.0392-.0748.0618-.1257.0633-16.1734.0577-31.1852.1984-45.0354.422-.4209.0072-.7648-.0081-1.0315-.0475l.7686-1.3387c.0248-.0445.0628-.0792.1073-.1035.1794-.094.3677-.1508.5619-.1709.6119-.0604,1.6178-.1228,3.0192-.1869,10.2159-.4674,20.09-.7396,29.6194-.8199,4.2732-.0353,8.0363.0179,12.0418.6208.1261.0193.2459-.0589.2723-.1779l.0285-.1218c.0139-.0586-.0261-.1177-.0892-.1321l-.0016-.0002c-1.3373-.2797-3.0366-.4777-5.0963-.594-1.846-.1037-3.8401-.1476-5.981-.1283-11.2067.1007-22.1957.4761-32.9693,1.1291-.3233.0206-.7891-.0197-1.1321.0337-.1052.015-.2058-.0533-.223-.1541-.004-.0271-.0032-.0535.0041-.0804l.333-1.139c.0369-.1236.1674-.1971.2989-.1707.0761.0148.5724-.026,1.4873-.1241.3685-.0386.8538-.0826,1.4541-.1308,9.1863-.7296,18.4437-1.3688,27.73-1.7169,2.2832-.0847,4.5425-.0875,6.7761-.0085,2.8672.1013,5.7333.6043,8.3442,1.8564Z" style="fill: #fceed2;"/>
  <path d="M79.2675,64.3023l.2563-1.1399c.0035-.0228.0254-.0382.0483-.0378l8.5364-.0269c.0212.0001.0406.0124.0473.0322l.4708,1.1376c.0093.0248-.0031.0525-.0289.061-.0053.0023-.0119.0029-.0169.0036l-9.2635.0292c-.0278.0004-.0506-.0218-.0516-.0469l.0019-.0122h0Z" style="fill: #c86334;"/>
  <path d="M39.9343,57.8891l.3856.7663c-2.6436.2087-5.2816.4447-7.9171.7075-.1675.0164-.3882.0075-.6586-.0293-.1327-.0188-.2274-.1361-.2096-.2627l.0028-.0183.0912-.4035c.0322-.1353.1577-.2297.3028-.2278.8567.016,1.7897-.0186,2.8009-.1051,1.736-.1483,3.4696-.2908,5.2021-.4272Z" style="fill: #fceed2;"/>
  <path d="M33.5403,64.7305c-.0482-.037-.0661-.0911-.0508-.1589,2.177-.02,4.3433-.0666,6.5336-.0456,1.2312.0126,2.2615-.0491,3.7163-.0677,7.5905-.1002,13.4565-.1594,17.5996-.1772,2.3877-.0095,3.8443-.0184,4.3728-.0247,1.497-.0167,2.2741-.0254,2.3316-.0275.8328-.0204,1.6095-.026,2.3289-.0201,1.2677.0089,2.6342-.0091,4.0997-.0541.297-.009.5656-.0348.8036-.0747.0135-.0026.0255.0039.0285.0168h0c.0029.0129-.0037.0244-.0158.0287-.3169.0963-.6232.1444-.9192.1473-1.0613.0087-2.0603.0581-3.0846.0383-.6954-.0131-1.3669-.0116-2.0147.0059-1.4236.0389-3.0721-.0221-4.4157.0275-1.0414.0383-2.1096-.0148-3.1915.0219-1.3315.0452-2.9007.0104-4.676.0421-1.6688.0293-5.3355.0719-10.9967.1266-1.3036.0121-3.0901.0421-5.3625.088-1.7877.0376-3.5746.0598-5.3594.0682-.5768.002-1.1537.0148-1.7275.0391h0Z" style="fill: #af2d2c;"/>
</svg>